M48
INCH,TZ
T1C0.0320
T2C0.0394
T3C0.1200
%
G90
G05
T1
X5.0561Y-3.5275
X5.0561Y-3.6275
X5.1561Y-3.5275
X5.2644Y-4.1713
X5.2644Y-4.2713
X5.8469Y-3.5275
X5.8469Y-3.6275
X5.9469Y-3.5275
X5.8469Y-3.9375
X5.8469Y-4.0375
X5.9469Y-3.9375
X5.7406Y-4.1713
X5.7406Y-4.2713
X5.0561Y-3.9375
X5.0561Y-4.0375
X5.1561Y-3.9375
X5.0556Y-3.1026
X5.0556Y-3.2026
X5.1556Y-3.1026
X5.8469Y-3.095
X5.8469Y-3.195
X5.9469Y-3.095
T2
X5.6225Y-3.5065
X5.6225Y-3.7034
X5.3825Y-3.9466
X5.3825Y-4.1435
X5.6225Y-3.0945
X5.6225Y-3.2914
X5.3925Y-3.5091
X5.3925Y-3.706
X5.4025Y-3.1026
X5.4025Y-3.2995
X5.6225Y-3.9466
X5.6225Y-4.1435
T3
X5.1081Y-2.79
X5.2525Y-4.4252
X5.7525Y-4.4252
X5.8939Y-2.79
T0
M30
