G04 #@! TF.GenerationSoftware,KiCad,Pcbnew,5.0.2-5.fc29*
G04 #@! TF.CreationDate,2019-03-13T23:33:12-07:00*
G04 #@! TF.ProjectId,electroscope_pth,656c6563-7472-46f7-9363-6f70655f7074,rev?*
G04 #@! TF.SameCoordinates,Original*
G04 #@! TF.FileFunction,Legend,Top*
G04 #@! TF.FilePolarity,Positive*
%FSLAX46Y46*%
G04 Gerber Fmt 4.6, Leading zero omitted, Abs format (unit mm)*
G04 Created by KiCad (PCBNEW 5.0.2-5.fc29) date Wed 13 Mar 2019 11:33:12 PM PDT*
%MOMM*%
%LPD*%
G01*
G04 APERTURE LIST*
%ADD10C,0.300000*%
%ADD11C,0.150000*%
%ADD12C,0.250000*%
G04 APERTURE END LIST*
D10*
X133338571Y-70203142D02*
X133186785Y-70274571D01*
X132901071Y-70274571D01*
X132767142Y-70203142D01*
X132713571Y-70060285D01*
X132785000Y-69488857D01*
X132874285Y-69346000D01*
X133026071Y-69274571D01*
X133311785Y-69274571D01*
X133445714Y-69346000D01*
X133499285Y-69488857D01*
X133481428Y-69631714D01*
X132749285Y-69774571D01*
X134258214Y-70274571D02*
X134124285Y-70203142D01*
X134070714Y-70060285D01*
X134231428Y-68774571D01*
X135410000Y-70203142D02*
X135258214Y-70274571D01*
X134972500Y-70274571D01*
X134838571Y-70203142D01*
X134785000Y-70060285D01*
X134856428Y-69488857D01*
X134945714Y-69346000D01*
X135097500Y-69274571D01*
X135383214Y-69274571D01*
X135517142Y-69346000D01*
X135570714Y-69488857D01*
X135552857Y-69631714D01*
X134820714Y-69774571D01*
X136767142Y-70203142D02*
X136615357Y-70274571D01*
X136329642Y-70274571D01*
X136195714Y-70203142D01*
X136133214Y-70131714D01*
X136079642Y-69988857D01*
X136133214Y-69560285D01*
X136222500Y-69417428D01*
X136302857Y-69346000D01*
X136454642Y-69274571D01*
X136740357Y-69274571D01*
X136874285Y-69346000D01*
X137311785Y-69274571D02*
X137883214Y-69274571D01*
X137588571Y-68774571D02*
X137427857Y-70060285D01*
X137481428Y-70203142D01*
X137615357Y-70274571D01*
X137758214Y-70274571D01*
X138258214Y-70274571D02*
X138383214Y-69274571D01*
X138347500Y-69560285D02*
X138436785Y-69417428D01*
X138517142Y-69346000D01*
X138668928Y-69274571D01*
X138811785Y-69274571D01*
X139401071Y-70274571D02*
X139267142Y-70203142D01*
X139204642Y-70131714D01*
X139151071Y-69988857D01*
X139204642Y-69560285D01*
X139293928Y-69417428D01*
X139374285Y-69346000D01*
X139526071Y-69274571D01*
X139740357Y-69274571D01*
X139874285Y-69346000D01*
X139936785Y-69417428D01*
X139990357Y-69560285D01*
X139936785Y-69988857D01*
X139847500Y-70131714D01*
X139767142Y-70203142D01*
X139615357Y-70274571D01*
X139401071Y-70274571D01*
X140481428Y-70203142D02*
X140615357Y-70274571D01*
X140901071Y-70274571D01*
X141052857Y-70203142D01*
X141142142Y-70060285D01*
X141151071Y-69988857D01*
X141097500Y-69846000D01*
X140963571Y-69774571D01*
X140749285Y-69774571D01*
X140615357Y-69703142D01*
X140561785Y-69560285D01*
X140570714Y-69488857D01*
X140660000Y-69346000D01*
X140811785Y-69274571D01*
X141026071Y-69274571D01*
X141160000Y-69346000D01*
X142410000Y-70203142D02*
X142258214Y-70274571D01*
X141972500Y-70274571D01*
X141838571Y-70203142D01*
X141776071Y-70131714D01*
X141722500Y-69988857D01*
X141776071Y-69560285D01*
X141865357Y-69417428D01*
X141945714Y-69346000D01*
X142097500Y-69274571D01*
X142383214Y-69274571D01*
X142517142Y-69346000D01*
X143258214Y-70274571D02*
X143124285Y-70203142D01*
X143061785Y-70131714D01*
X143008214Y-69988857D01*
X143061785Y-69560285D01*
X143151071Y-69417428D01*
X143231428Y-69346000D01*
X143383214Y-69274571D01*
X143597500Y-69274571D01*
X143731428Y-69346000D01*
X143793928Y-69417428D01*
X143847500Y-69560285D01*
X143793928Y-69988857D01*
X143704642Y-70131714D01*
X143624285Y-70203142D01*
X143472500Y-70274571D01*
X143258214Y-70274571D01*
X144526071Y-69274571D02*
X144338571Y-70774571D01*
X144517142Y-69346000D02*
X144668928Y-69274571D01*
X144954642Y-69274571D01*
X145088571Y-69346000D01*
X145151071Y-69417428D01*
X145204642Y-69560285D01*
X145151071Y-69988857D01*
X145061785Y-70131714D01*
X144981428Y-70203142D01*
X144829642Y-70274571D01*
X144543928Y-70274571D01*
X144410000Y-70203142D01*
X146338571Y-70203142D02*
X146186785Y-70274571D01*
X145901071Y-70274571D01*
X145767142Y-70203142D01*
X145713571Y-70060285D01*
X145785000Y-69488857D01*
X145874285Y-69346000D01*
X146026071Y-69274571D01*
X146311785Y-69274571D01*
X146445714Y-69346000D01*
X146499285Y-69488857D01*
X146481428Y-69631714D01*
X145749285Y-69774571D01*
X146748571Y-104755142D02*
X147891428Y-104755142D01*
X147320000Y-105326571D02*
X147320000Y-104183714D01*
X131762571Y-104755142D02*
X132905428Y-104755142D01*
X132334000Y-105326571D02*
X132334000Y-104183714D01*
X145570000Y-74354571D02*
X145570000Y-75354571D01*
X145570000Y-74497428D02*
X145641428Y-74426000D01*
X145784285Y-74354571D01*
X145998571Y-74354571D01*
X146141428Y-74426000D01*
X146212857Y-74568857D01*
X146212857Y-75354571D01*
X146927142Y-75354571D02*
X146927142Y-73854571D01*
X147498571Y-73854571D01*
X147641428Y-73926000D01*
X147712857Y-73997428D01*
X147784285Y-74140285D01*
X147784285Y-74354571D01*
X147712857Y-74497428D01*
X147641428Y-74568857D01*
X147498571Y-74640285D01*
X146927142Y-74640285D01*
X148427142Y-74354571D02*
X148427142Y-75354571D01*
X148427142Y-74497428D02*
X148498571Y-74426000D01*
X148641428Y-74354571D01*
X148855714Y-74354571D01*
X148998571Y-74426000D01*
X149070000Y-74568857D01*
X149070000Y-75354571D01*
X130294285Y-73846571D02*
X130294285Y-75346571D01*
X130294285Y-73918000D02*
X130437142Y-73846571D01*
X130722857Y-73846571D01*
X130865714Y-73918000D01*
X130937142Y-73989428D01*
X131008571Y-74132285D01*
X131008571Y-74560857D01*
X130937142Y-74703714D01*
X130865714Y-74775142D01*
X130722857Y-74846571D01*
X130437142Y-74846571D01*
X130294285Y-74775142D01*
X131651428Y-74846571D02*
X131651428Y-73346571D01*
X132508571Y-74846571D01*
X132508571Y-73346571D01*
X133222857Y-73846571D02*
X133222857Y-75346571D01*
X133222857Y-73918000D02*
X133365714Y-73846571D01*
X133651428Y-73846571D01*
X133794285Y-73918000D01*
X133865714Y-73989428D01*
X133937142Y-74132285D01*
X133937142Y-74560857D01*
X133865714Y-74703714D01*
X133794285Y-74775142D01*
X133651428Y-74846571D01*
X133365714Y-74846571D01*
X133222857Y-74775142D01*
D11*
G04 #@! TO.C,Q5*
X131682500Y-80076040D02*
X129682500Y-82076040D01*
G04 #@! TO.C,Q2*
X151781000Y-79883000D02*
X149781000Y-81883000D01*
G04 #@! TO.C,Q1*
X131695200Y-101282500D02*
X129695200Y-103282500D01*
G04 #@! TO.C,Q4*
X151781000Y-90868500D02*
X149781000Y-92868500D01*
G04 #@! TO.C,Q6*
X151781000Y-101282500D02*
X149781000Y-103282500D01*
G04 #@! TO.C,Q3*
X131695200Y-90868500D02*
X129695200Y-92868500D01*
G04 #@! TO.C,R3*
X136969000Y-91531440D02*
X136969000Y-92532200D01*
X139468360Y-89131140D02*
G75*
G03X139468360Y-89131140I-2499360J0D01*
G01*
G04 #@! TO.C,D1*
X132446000Y-109048800D02*
X134986000Y-109048800D01*
X134691527Y-106303136D02*
G75*
G03X133716000Y-105950000I-975527J-1170864D01*
G01*
X133715531Y-105951889D02*
G75*
G03X132705080Y-106336080I469J-1522111D01*
G01*
X133716034Y-108996147D02*
G75*
G03X134706600Y-108629700I-34J1522147D01*
G01*
X132740473Y-108644864D02*
G75*
G03X133716000Y-108998000I975527J1170864D01*
G01*
X134603155Y-108713166D02*
G75*
G03X135240000Y-107474000I-887155J1239166D01*
G01*
X135240000Y-107473199D02*
G75*
G03X134630400Y-106254800I-1524000J-801D01*
G01*
X132193794Y-107474442D02*
G75*
G03X132781280Y-108675420I1522206J442D01*
G01*
X132779829Y-106271436D02*
G75*
G03X132192000Y-107474000I936171J-1202564D01*
G01*
X134351000Y-107474000D02*
G75*
G03X133716000Y-106839000I-635000J0D01*
G01*
X134732000Y-107474000D02*
G75*
G03X133716000Y-106458000I-1016000J0D01*
G01*
X133081000Y-107474000D02*
G75*
G03X133716000Y-108109000I635000J0D01*
G01*
X132700000Y-107474000D02*
G75*
G03X133716000Y-108490000I1016000J0D01*
G01*
X135019426Y-109032880D02*
G75*
G03X135748000Y-107474000I-1303426J1558880D01*
G01*
X135745460Y-107473025D02*
G75*
G03X134671040Y-105683300I-2029460J-975D01*
G01*
X131686614Y-107476552D02*
G75*
G03X132405360Y-109023400I2029386J2552D01*
G01*
X132706149Y-105710701D02*
G75*
G03X131684000Y-107474000I1009851J-1763299D01*
G01*
X134679347Y-105684870D02*
G75*
G03X133716000Y-105442000I-963347J-1789130D01*
G01*
X133715900Y-105443077D02*
G75*
G03X132651740Y-105744260I100J-2030923D01*
G01*
G04 #@! TO.C,D2*
X144542000Y-109048800D02*
X147082000Y-109048800D01*
X146787527Y-106303136D02*
G75*
G03X145812000Y-105950000I-975527J-1170864D01*
G01*
X145811531Y-105951889D02*
G75*
G03X144801080Y-106336080I469J-1522111D01*
G01*
X145812034Y-108996147D02*
G75*
G03X146802600Y-108629700I-34J1522147D01*
G01*
X144836473Y-108644864D02*
G75*
G03X145812000Y-108998000I975527J1170864D01*
G01*
X146699155Y-108713166D02*
G75*
G03X147336000Y-107474000I-887155J1239166D01*
G01*
X147336000Y-107473199D02*
G75*
G03X146726400Y-106254800I-1524000J-801D01*
G01*
X144289794Y-107474442D02*
G75*
G03X144877280Y-108675420I1522206J442D01*
G01*
X144875829Y-106271436D02*
G75*
G03X144288000Y-107474000I936171J-1202564D01*
G01*
X146447000Y-107474000D02*
G75*
G03X145812000Y-106839000I-635000J0D01*
G01*
X146828000Y-107474000D02*
G75*
G03X145812000Y-106458000I-1016000J0D01*
G01*
X145177000Y-107474000D02*
G75*
G03X145812000Y-108109000I635000J0D01*
G01*
X144796000Y-107474000D02*
G75*
G03X145812000Y-108490000I1016000J0D01*
G01*
X147115426Y-109032880D02*
G75*
G03X147844000Y-107474000I-1303426J1558880D01*
G01*
X147841460Y-107473025D02*
G75*
G03X146767040Y-105683300I-2029460J-975D01*
G01*
X143782614Y-107476552D02*
G75*
G03X144501360Y-109023400I2029386J2552D01*
G01*
X144802149Y-105710701D02*
G75*
G03X143780000Y-107474000I1009851J-1763299D01*
G01*
X146775347Y-105684870D02*
G75*
G03X145812000Y-105442000I-963347J-1789130D01*
G01*
X145811900Y-105443077D02*
G75*
G03X144747740Y-105744260I100J-2030923D01*
G01*
G04 #@! TO.C,R1*
X136715000Y-102643940D02*
X136715000Y-103644700D01*
X139214360Y-100243640D02*
G75*
G03X139214360Y-100243640I-2499360J0D01*
G01*
G04 #@! TO.C,R2*
X142811000Y-81201260D02*
X142811000Y-80200500D01*
X145310360Y-83601560D02*
G75*
G03X145310360Y-83601560I-2499360J0D01*
G01*
G04 #@! TO.C,R4*
X142811000Y-91666060D02*
X142811000Y-90665300D01*
X145310360Y-94066360D02*
G75*
G03X145310360Y-94066360I-2499360J0D01*
G01*
G04 #@! TO.C,R5*
X137223000Y-81206340D02*
X137223000Y-82207100D01*
X139722360Y-78806040D02*
G75*
G03X139722360Y-78806040I-2499360J0D01*
G01*
G04 #@! TO.C,R6*
X142811000Y-102643940D02*
X142811000Y-103644700D01*
X145310360Y-100243640D02*
G75*
G03X145310360Y-100243640I-2499360J0D01*
G01*
G04 #@! TO.C,U1*
X151991000Y-70866000D02*
G75*
G03X151991000Y-70866000I-2286000J0D01*
G01*
G04 #@! TO.C,U2*
X132032000Y-70866000D02*
G75*
G03X132032000Y-70866000I-2286000J0D01*
G01*
G04 #@! TO.C,R3*
X134564380Y-95845095D02*
X134564380Y-96416523D01*
X134564380Y-96130809D02*
X133564380Y-96130809D01*
X133707238Y-96226047D01*
X133802476Y-96321285D01*
X133850095Y-96416523D01*
X133564380Y-95226047D02*
X133564380Y-95130809D01*
X133612000Y-95035571D01*
X133659619Y-94987952D01*
X133754857Y-94940333D01*
X133945333Y-94892714D01*
X134183428Y-94892714D01*
X134373904Y-94940333D01*
X134469142Y-94987952D01*
X134516761Y-95035571D01*
X134564380Y-95130809D01*
X134564380Y-95226047D01*
X134516761Y-95321285D01*
X134469142Y-95368904D01*
X134373904Y-95416523D01*
X134183428Y-95464142D01*
X133945333Y-95464142D01*
X133754857Y-95416523D01*
X133659619Y-95368904D01*
X133612000Y-95321285D01*
X133564380Y-95226047D01*
X133564380Y-94273666D02*
X133564380Y-94178428D01*
X133612000Y-94083190D01*
X133659619Y-94035571D01*
X133754857Y-93987952D01*
X133945333Y-93940333D01*
X134183428Y-93940333D01*
X134373904Y-93987952D01*
X134469142Y-94035571D01*
X134516761Y-94083190D01*
X134564380Y-94178428D01*
X134564380Y-94273666D01*
X134516761Y-94368904D01*
X134469142Y-94416523D01*
X134373904Y-94464142D01*
X134183428Y-94511761D01*
X133945333Y-94511761D01*
X133754857Y-94464142D01*
X133659619Y-94416523D01*
X133612000Y-94368904D01*
X133564380Y-94273666D01*
X134564380Y-93511761D02*
X133564380Y-93511761D01*
X134564380Y-92940333D02*
X133992952Y-93368904D01*
X133564380Y-92940333D02*
X134135809Y-93511761D01*
X134564380Y-92559380D02*
X134564380Y-92321285D01*
X134373904Y-92321285D01*
X134326285Y-92416523D01*
X134231047Y-92511761D01*
X134088190Y-92559380D01*
X133850095Y-92559380D01*
X133707238Y-92511761D01*
X133612000Y-92416523D01*
X133564380Y-92273666D01*
X133564380Y-92083190D01*
X133612000Y-91940333D01*
X133707238Y-91845095D01*
X133850095Y-91797476D01*
X134088190Y-91797476D01*
X134231047Y-91845095D01*
X134326285Y-91940333D01*
X134373904Y-92035571D01*
X134564380Y-92035571D01*
X134564380Y-91797476D01*
G04 #@! TO.C,D1*
X131262380Y-108180095D02*
X130262380Y-108180095D01*
X130262380Y-107942000D01*
X130310000Y-107799142D01*
X130405238Y-107703904D01*
X130500476Y-107656285D01*
X130690952Y-107608666D01*
X130833809Y-107608666D01*
X131024285Y-107656285D01*
X131119523Y-107703904D01*
X131214761Y-107799142D01*
X131262380Y-107942000D01*
X131262380Y-108180095D01*
X131262380Y-106656285D02*
X131262380Y-107227714D01*
X131262380Y-106942000D02*
X130262380Y-106942000D01*
X130405238Y-107037238D01*
X130500476Y-107132476D01*
X130548095Y-107227714D01*
G04 #@! TO.C,D2*
X149296380Y-107926095D02*
X148296380Y-107926095D01*
X148296380Y-107688000D01*
X148344000Y-107545142D01*
X148439238Y-107449904D01*
X148534476Y-107402285D01*
X148724952Y-107354666D01*
X148867809Y-107354666D01*
X149058285Y-107402285D01*
X149153523Y-107449904D01*
X149248761Y-107545142D01*
X149296380Y-107688000D01*
X149296380Y-107926095D01*
X148391619Y-106973714D02*
X148344000Y-106926095D01*
X148296380Y-106830857D01*
X148296380Y-106592761D01*
X148344000Y-106497523D01*
X148391619Y-106449904D01*
X148486857Y-106402285D01*
X148582095Y-106402285D01*
X148724952Y-106449904D01*
X149296380Y-107021333D01*
X149296380Y-106402285D01*
G04 #@! TO.C,R1*
X146756380Y-101568095D02*
X146756380Y-102139523D01*
X146756380Y-101853809D02*
X145756380Y-101853809D01*
X145899238Y-101949047D01*
X145994476Y-102044285D01*
X146042095Y-102139523D01*
X145756380Y-100949047D02*
X145756380Y-100853809D01*
X145804000Y-100758571D01*
X145851619Y-100710952D01*
X145946857Y-100663333D01*
X146137333Y-100615714D01*
X146375428Y-100615714D01*
X146565904Y-100663333D01*
X146661142Y-100710952D01*
X146708761Y-100758571D01*
X146756380Y-100853809D01*
X146756380Y-100949047D01*
X146708761Y-101044285D01*
X146661142Y-101091904D01*
X146565904Y-101139523D01*
X146375428Y-101187142D01*
X146137333Y-101187142D01*
X145946857Y-101139523D01*
X145851619Y-101091904D01*
X145804000Y-101044285D01*
X145756380Y-100949047D01*
X145756380Y-99996666D02*
X145756380Y-99901428D01*
X145804000Y-99806190D01*
X145851619Y-99758571D01*
X145946857Y-99710952D01*
X146137333Y-99663333D01*
X146375428Y-99663333D01*
X146565904Y-99710952D01*
X146661142Y-99758571D01*
X146708761Y-99806190D01*
X146756380Y-99901428D01*
X146756380Y-99996666D01*
X146708761Y-100091904D01*
X146661142Y-100139523D01*
X146565904Y-100187142D01*
X146375428Y-100234761D01*
X146137333Y-100234761D01*
X145946857Y-100187142D01*
X145851619Y-100139523D01*
X145804000Y-100091904D01*
X145756380Y-99996666D01*
X146756380Y-99282380D02*
X146756380Y-99044285D01*
X146565904Y-99044285D01*
X146518285Y-99139523D01*
X146423047Y-99234761D01*
X146280190Y-99282380D01*
X146042095Y-99282380D01*
X145899238Y-99234761D01*
X145804000Y-99139523D01*
X145756380Y-98996666D01*
X145756380Y-98806190D01*
X145804000Y-98663333D01*
X145899238Y-98568095D01*
X146042095Y-98520476D01*
X146280190Y-98520476D01*
X146423047Y-98568095D01*
X146518285Y-98663333D01*
X146565904Y-98758571D01*
X146756380Y-98758571D01*
X146756380Y-98520476D01*
G04 #@! TO.C,R5*
X146756380Y-84423142D02*
X146756380Y-84994571D01*
X146756380Y-84708857D02*
X145756380Y-84708857D01*
X145899238Y-84804095D01*
X145994476Y-84899333D01*
X146042095Y-84994571D01*
X146756380Y-83994571D02*
X145756380Y-83994571D01*
X146470666Y-83661238D01*
X145756380Y-83327904D01*
X146756380Y-83327904D01*
X146756380Y-82899333D02*
X146756380Y-82661238D01*
X146565904Y-82661238D01*
X146518285Y-82756476D01*
X146423047Y-82851714D01*
X146280190Y-82899333D01*
X146042095Y-82899333D01*
X145899238Y-82851714D01*
X145804000Y-82756476D01*
X145756380Y-82613619D01*
X145756380Y-82423142D01*
X145804000Y-82280285D01*
X145899238Y-82185047D01*
X146042095Y-82137428D01*
X146280190Y-82137428D01*
X146423047Y-82185047D01*
X146518285Y-82280285D01*
X146565904Y-82375523D01*
X146756380Y-82375523D01*
X146756380Y-82137428D01*
G04 #@! TO.C,BT1*
D12*
X128079547Y-111963628D02*
X128841452Y-111963628D01*
X128460500Y-112344580D02*
X128460500Y-111582676D01*
X150685547Y-111963628D02*
X151447452Y-111963628D01*
D10*
X138834928Y-112646971D02*
X139120642Y-112646971D01*
X139263500Y-112575542D01*
X139334928Y-112504114D01*
X139477785Y-112289828D01*
X139549214Y-112004114D01*
X139549214Y-111432685D01*
X139477785Y-111289828D01*
X139406357Y-111218400D01*
X139263500Y-111146971D01*
X138977785Y-111146971D01*
X138834928Y-111218400D01*
X138763500Y-111289828D01*
X138692071Y-111432685D01*
X138692071Y-111789828D01*
X138763500Y-111932685D01*
X138834928Y-112004114D01*
X138977785Y-112075542D01*
X139263500Y-112075542D01*
X139406357Y-112004114D01*
X139477785Y-111932685D01*
X139549214Y-111789828D01*
X139977785Y-111146971D02*
X140477785Y-112646971D01*
X140977785Y-111146971D01*
G04 #@! TD*
M02*
