G04 #@! TF.FileFunction,Copper,L1,Top,Signal*
%FSLAX46Y46*%
G04 Gerber Fmt 4.6, Leading zero omitted, Abs format (unit mm)*
G04 Created by KiCad (PCBNEW (after 2015-mar-04 BZR unknown)-product) date Wed 09 Sep 2015 12:18:02 PM PDT*
%MOMM*%
G01*
G04 APERTURE LIST*
%ADD10C,0.100000*%
%ADD11R,1.397000X1.397000*%
%ADD12C,1.397000*%
%ADD13C,1.676400*%
%ADD14C,1.998980*%
%ADD15C,4.064000*%
%ADD16C,3.810000*%
%ADD17C,0.508000*%
%ADD18C,0.203200*%
G04 APERTURE END LIST*
D10*
D11*
X151511000Y-78613000D03*
D12*
X148971000Y-78613000D03*
X148971000Y-81153000D03*
D13*
X136080500Y-109855000D03*
X136080500Y-112395000D03*
X142176500Y-109728000D03*
X142176500Y-112268000D03*
D11*
X129286000Y-100012500D03*
D12*
X126746000Y-100012500D03*
X126746000Y-102552500D03*
D11*
X129286000Y-89598500D03*
D12*
X126746000Y-89598500D03*
X126746000Y-92138500D03*
D11*
X151511000Y-89598500D03*
D12*
X148971000Y-89598500D03*
X148971000Y-92138500D03*
D11*
X129273300Y-78806040D03*
D12*
X126733300Y-78806040D03*
X126733300Y-81346040D03*
D11*
X151511000Y-100012500D03*
D12*
X148971000Y-100012500D03*
X148971000Y-102552500D03*
D14*
X136080500Y-100243640D03*
X136080500Y-105244900D03*
X142176500Y-83601560D03*
X142176500Y-78600300D03*
X136334500Y-89131140D03*
X136334500Y-94132400D03*
X142176500Y-94066360D03*
X142176500Y-89065100D03*
X136588500Y-78806040D03*
X136588500Y-83807300D03*
X142176500Y-100243640D03*
X142176500Y-105244900D03*
D15*
X142176500Y-71374000D03*
X136588500Y-71310500D03*
D16*
X132524500Y-115900200D03*
X145224500Y-115900200D03*
D17*
X142176500Y-83601560D02*
X140374369Y-81799429D01*
X141177011Y-95065849D02*
X142176500Y-94066360D01*
X140374369Y-81799429D02*
X135551061Y-81799429D01*
X135551061Y-81799429D02*
X134517129Y-82833361D01*
X135487561Y-95949771D02*
X140293089Y-95949771D01*
X134517129Y-82833361D02*
X134517129Y-84400239D01*
X134517129Y-84400239D02*
X138248381Y-88131491D01*
X138248381Y-88131491D02*
X138248381Y-89744709D01*
X138248381Y-89744709D02*
X134199629Y-93793461D01*
X140293089Y-95949771D02*
X141177011Y-95065849D01*
X134199629Y-93793461D02*
X134199629Y-94661839D01*
X134199629Y-94661839D02*
X135487561Y-95949771D01*
X142176500Y-94066360D02*
X142176500Y-95479852D01*
X142176500Y-95479852D02*
X142176500Y-100243640D01*
X132524500Y-115900200D02*
X126746000Y-110121700D01*
X126746000Y-110121700D02*
X126746000Y-102552500D01*
X126746000Y-102552500D02*
X139867640Y-102552500D01*
X139867640Y-102552500D02*
X142176500Y-100243640D01*
X136334500Y-94132400D02*
X139665098Y-94132400D01*
X139665098Y-94132400D02*
X141383409Y-92414089D01*
X141383409Y-92414089D02*
X142969591Y-92414089D01*
X136334500Y-94132400D02*
X138052811Y-92414089D01*
X142969591Y-92414089D02*
X143828771Y-93273269D01*
X137571481Y-107404557D02*
X137571481Y-110904019D01*
X143828771Y-93273269D02*
X143828771Y-101147267D01*
X143828771Y-101147267D02*
X137571481Y-107404557D01*
X137571481Y-110904019D02*
X136918699Y-111556801D01*
X136918699Y-111556801D02*
X136080500Y-112395000D01*
X136588500Y-83807300D02*
X139256771Y-86475571D01*
X139256771Y-86475571D02*
X139256771Y-91210129D01*
X137333989Y-93132911D02*
X136334500Y-94132400D01*
X139256771Y-91210129D02*
X137333989Y-93132911D01*
X145224500Y-115900200D02*
X139585700Y-115900200D01*
X139585700Y-115900200D02*
X136080500Y-112395000D01*
X145224500Y-115900200D02*
X148971000Y-112153700D01*
X148971000Y-112153700D02*
X148971000Y-102552500D01*
X136080500Y-105244900D02*
X136080500Y-109855000D01*
X142176500Y-105244900D02*
X142176500Y-109728000D01*
X146812000Y-102108000D02*
X146812000Y-107632500D01*
X146812000Y-107632500D02*
X142176500Y-112268000D01*
X147566381Y-101353619D02*
X146812000Y-102108000D01*
X151511000Y-100012500D02*
X151511000Y-100914200D01*
X151511000Y-100914200D02*
X151071581Y-101353619D01*
D18*
X151071581Y-101353619D02*
X147566381Y-101353619D01*
D17*
X126746000Y-92138500D02*
X126746000Y-93126328D01*
X126746000Y-93126328D02*
X126746000Y-100012500D01*
X148971000Y-78613000D02*
X148971000Y-78168500D01*
X144462141Y-72399695D02*
X144437226Y-72290538D01*
X145059890Y-75671604D02*
X145048576Y-75660290D01*
X148530518Y-76331533D02*
X148429642Y-76282954D01*
X144330154Y-74234761D02*
X144242617Y-74304570D01*
X144462141Y-72511660D02*
X144462141Y-72399695D01*
X148699178Y-76500193D02*
X148629370Y-76412656D01*
X148971000Y-78168500D02*
X148629370Y-77826870D01*
X148486067Y-77417334D02*
X148510981Y-77308177D01*
X148629370Y-77826870D02*
X148559561Y-77739332D01*
X148747758Y-76931349D02*
X148772672Y-76822191D01*
X146771676Y-74821195D02*
X146662519Y-74846110D01*
X146342118Y-76687599D02*
X146367033Y-76578442D01*
X143493345Y-73704754D02*
X143541924Y-73603877D01*
X148747758Y-76601070D02*
X148699178Y-76500193D01*
X148559561Y-77739332D02*
X148510981Y-77638456D01*
X147310914Y-75164226D02*
X147262335Y-75063350D01*
X148510981Y-77638456D02*
X148486067Y-77529298D01*
X145874070Y-74057661D02*
X145898985Y-73948504D01*
X145147429Y-75741414D02*
X145059890Y-75671604D01*
X148429642Y-76282954D02*
X148320485Y-76258039D01*
X144905274Y-75250755D02*
X144930189Y-75141598D01*
X145755682Y-74246075D02*
X145825491Y-74158538D01*
X143788831Y-71972422D02*
X143687954Y-72021001D01*
X148486067Y-77529298D02*
X148486067Y-77417334D01*
X143710585Y-74304570D02*
X143623046Y-74234760D01*
X148510981Y-77308177D02*
X148559561Y-77207300D01*
X144437226Y-72290538D02*
X144388647Y-72189662D01*
X148618056Y-76401342D02*
X148530518Y-76331533D01*
X146794305Y-77251751D02*
X146685148Y-77226836D01*
X148559561Y-77207300D02*
X148699178Y-77032225D01*
X145898985Y-73836539D02*
X145874070Y-73727382D01*
X144242617Y-74304570D02*
X144141740Y-74353149D01*
X143623046Y-74234760D02*
X143611732Y-74223446D01*
X148699178Y-77032225D02*
X148747758Y-76931349D01*
X145656830Y-73457845D02*
X145555954Y-73409266D01*
X148629370Y-76412656D02*
X148618056Y-76401342D01*
X146367033Y-76578442D02*
X146415612Y-76477565D01*
X144388647Y-72721694D02*
X144437226Y-72620817D01*
X148208520Y-76258039D02*
X148099363Y-76282954D01*
X148772672Y-76822191D02*
X148772672Y-76710227D01*
X148772672Y-76710227D02*
X148747758Y-76601070D01*
X148320485Y-76258039D02*
X148208520Y-76258039D01*
X148099363Y-76282954D02*
X147998486Y-76331533D01*
X147015428Y-77226837D02*
X146906271Y-77251752D01*
X144978768Y-75572753D02*
X144930188Y-75471876D01*
X146496734Y-77108448D02*
X146485420Y-77097134D01*
X147998486Y-76331533D02*
X147910949Y-76401342D01*
X145225675Y-73409266D02*
X145124798Y-73457845D01*
X147910949Y-76401342D02*
X147203842Y-77108449D01*
X147335829Y-75273383D02*
X147310914Y-75164226D01*
X145679461Y-75741414D02*
X145578584Y-75789993D01*
X147203842Y-77108449D02*
X147116305Y-77178258D01*
X145048577Y-74953184D02*
X145755682Y-74246075D01*
X147116305Y-77178258D02*
X147015428Y-77226837D01*
X146906271Y-77251752D02*
X146794305Y-77251751D01*
X144307524Y-72090810D02*
X144219986Y-72021001D01*
X146685148Y-77226836D02*
X146584273Y-77178258D01*
X143611733Y-73516340D02*
X144318838Y-72809231D01*
X146584273Y-77178258D02*
X146496734Y-77108448D01*
X145037261Y-73527654D02*
X144330154Y-74234761D01*
X146485420Y-77097134D02*
X146415612Y-77009597D01*
X144141740Y-74353149D02*
X144032583Y-74378064D01*
X144219986Y-72021001D02*
X144119110Y-71972422D01*
X145578584Y-75789993D02*
X145469427Y-75814908D01*
X143512879Y-72160618D02*
X143412003Y-72209198D01*
X146415612Y-77009597D02*
X146367032Y-76908720D01*
X145248304Y-75789992D02*
X145147429Y-75741414D01*
X143493344Y-74035032D02*
X143468429Y-73925875D01*
X146367032Y-76908720D02*
X146342117Y-76799563D01*
X146342117Y-76799563D02*
X146342118Y-76687599D01*
X146992798Y-74846110D02*
X146883641Y-74821195D01*
X146415612Y-76477565D02*
X146485421Y-76390028D01*
X146485421Y-76390028D02*
X147192526Y-75682919D01*
X143541924Y-74135909D02*
X143493344Y-74035032D01*
X147181212Y-74964498D02*
X147093674Y-74894689D01*
X143687954Y-72021001D02*
X143512879Y-72160618D01*
X146474105Y-74964498D02*
X145766998Y-75671605D01*
X147192526Y-75682919D02*
X147262335Y-75595382D01*
X145898985Y-73948504D02*
X145898985Y-73836539D01*
X147262335Y-75595382D02*
X147310914Y-75494505D01*
X146662519Y-74846110D02*
X146561642Y-74894689D01*
X147192526Y-74975812D02*
X147181212Y-74964498D01*
X147310914Y-75494505D02*
X147335829Y-75385348D01*
X143541924Y-73603877D02*
X143611733Y-73516340D01*
X147262335Y-75063350D02*
X147192526Y-74975812D01*
X147335829Y-75385348D02*
X147335829Y-75273383D01*
X147093674Y-74894689D02*
X146992798Y-74846110D01*
X146883641Y-74821195D02*
X146771676Y-74821195D01*
X146561642Y-74894689D02*
X146474105Y-74964498D01*
X145766998Y-75671605D02*
X145679461Y-75741414D01*
X145357461Y-75814907D02*
X145248304Y-75789992D01*
X145469427Y-75814908D02*
X145357461Y-75814907D01*
X145048576Y-75660290D02*
X144978768Y-75572753D01*
X144930188Y-75471876D02*
X144905273Y-75362719D01*
X144905273Y-75362719D02*
X144905274Y-75250755D01*
X145555954Y-73409266D02*
X145446797Y-73384351D01*
X142893310Y-72090810D02*
X142176500Y-71374000D01*
X144930189Y-75141598D02*
X144978768Y-75040721D01*
X144388647Y-72189662D02*
X144318838Y-72102124D01*
X144978768Y-75040721D02*
X145048577Y-74953184D01*
X145825491Y-73626506D02*
X145755682Y-73538968D01*
X145825491Y-74158538D02*
X145874070Y-74057661D01*
X145874070Y-73727382D02*
X145825491Y-73626506D01*
X143611732Y-74223446D02*
X143541924Y-74135909D01*
X145755682Y-73538968D02*
X145744368Y-73527654D01*
X145744368Y-73527654D02*
X145656830Y-73457845D01*
X145446797Y-73384351D02*
X145334832Y-73384351D01*
X145334832Y-73384351D02*
X145225675Y-73409266D01*
X145124798Y-73457845D02*
X145037261Y-73527654D01*
X144032583Y-74378064D02*
X143920617Y-74378063D01*
X144318838Y-72102124D02*
X144307524Y-72090810D01*
X143920617Y-74378063D02*
X143811460Y-74353148D01*
X143811460Y-74353148D02*
X143710585Y-74304570D01*
X143468429Y-73925875D02*
X143468430Y-73813911D01*
X143468430Y-73813911D02*
X143493345Y-73704754D01*
X144318838Y-72809231D02*
X144388647Y-72721694D01*
X144437226Y-72620817D02*
X144462141Y-72511660D01*
X144119110Y-71972422D02*
X144009953Y-71947507D01*
X144009953Y-71947507D02*
X143897988Y-71947507D01*
X143897988Y-71947507D02*
X143788831Y-71972422D01*
X143412003Y-72209198D02*
X143302845Y-72234112D01*
X143302845Y-72234112D02*
X143190881Y-72234112D01*
X143190881Y-72234112D02*
X143081724Y-72209198D01*
X143081724Y-72209198D02*
X142980847Y-72160618D01*
X142980847Y-72160618D02*
X142893310Y-72090810D01*
X126733300Y-81346040D02*
X126733300Y-89585800D01*
X126733300Y-89585800D02*
X126746000Y-89598500D01*
X127879264Y-76245864D02*
X127966801Y-76176056D01*
X126733300Y-78806040D02*
X127450050Y-78089290D01*
X127463180Y-78078818D02*
X127478312Y-78071531D01*
X127569246Y-78099761D02*
X127584378Y-78107048D01*
X132576689Y-74222596D02*
X132685846Y-74197681D01*
X131271634Y-73253799D02*
X131372511Y-73302378D01*
X127450050Y-78089290D02*
X127463180Y-78078818D01*
X127527853Y-78071531D02*
X127542985Y-78078818D01*
X132896887Y-71935348D02*
X132984426Y-72005156D01*
X127617546Y-78110785D02*
X127633919Y-78107048D01*
X127478312Y-78071531D02*
X127494685Y-78067794D01*
X133603995Y-71935347D02*
X134228840Y-71310500D01*
X128292294Y-77448673D02*
X128296031Y-77432299D01*
X128274536Y-77476935D02*
X128285007Y-77463804D01*
X128397956Y-76127477D02*
X128498833Y-76176056D01*
X132786722Y-74149102D02*
X132874260Y-74079293D01*
X127494685Y-78067794D02*
X127511480Y-78067794D01*
X132254690Y-74149102D02*
X132355567Y-74197681D01*
X127724646Y-76554749D02*
X127749561Y-76445592D01*
X128288799Y-76102562D02*
X128397956Y-76127477D01*
X129913044Y-77022780D02*
X130000582Y-76952971D01*
X127662182Y-78089290D02*
X128274536Y-77476935D01*
X129186400Y-75008753D02*
X129234980Y-74907876D01*
X130081704Y-76322087D02*
X130011895Y-76234550D01*
X129316103Y-74809025D02*
X129403640Y-74739217D01*
X130752942Y-73372186D02*
X130840479Y-73302378D01*
X131460048Y-73372187D02*
X132167153Y-74079293D01*
X127511480Y-78067794D02*
X127527853Y-78071531D01*
X131139850Y-75659435D02*
X131249007Y-75634520D01*
X133415580Y-72053737D02*
X133516458Y-72005156D01*
X130840479Y-73302378D02*
X130941356Y-73253798D01*
X127542985Y-78078818D02*
X127569246Y-78099761D01*
X130671819Y-74003069D02*
X130623240Y-73902192D01*
X129504517Y-74690637D02*
X129613674Y-74665722D01*
X129234980Y-74907876D02*
X129304788Y-74820339D01*
X127798141Y-76876747D02*
X127749562Y-76775870D01*
X131518543Y-75417280D02*
X131567122Y-75316404D01*
X127584378Y-78107048D02*
X127600751Y-78110785D01*
X127600751Y-78110785D02*
X127617546Y-78110785D01*
X127867949Y-76257178D02*
X127879264Y-76245864D01*
X127633919Y-78107048D02*
X127649051Y-78099761D01*
X130155198Y-76532121D02*
X130130283Y-76422964D01*
X127649051Y-78099761D02*
X127662182Y-78089290D01*
X131437421Y-75516132D02*
X131448734Y-75504818D01*
X128067678Y-76127476D02*
X128176835Y-76102561D01*
X128176835Y-76102561D02*
X128288799Y-76102562D01*
X127867950Y-76964284D02*
X127798141Y-76876747D01*
X129481889Y-77071359D02*
X129591046Y-77096274D01*
X128285007Y-77384000D02*
X128274536Y-77370869D01*
X128285007Y-77463804D02*
X128292294Y-77448673D01*
X128296031Y-77432299D02*
X128296031Y-77415505D01*
X128296031Y-77415505D02*
X128292294Y-77399131D01*
X130623239Y-73571914D02*
X130671819Y-73471037D01*
X128292294Y-77399131D02*
X128285007Y-77384000D01*
X129812168Y-77071359D02*
X129913044Y-77022780D01*
X128274536Y-77370869D02*
X127867950Y-76964284D01*
X127749562Y-76775870D02*
X127724647Y-76666713D01*
X130130283Y-76753243D02*
X130155198Y-76644086D01*
X127724647Y-76666713D02*
X127724646Y-76554749D01*
X130598324Y-73681071D02*
X130623239Y-73571914D01*
X127749561Y-76445592D02*
X127798141Y-76344715D01*
X127798141Y-76344715D02*
X127867949Y-76257178D01*
X133516458Y-72005156D02*
X133603995Y-71935347D01*
X127966801Y-76176056D02*
X128067678Y-76127476D01*
X128498833Y-76176056D02*
X128586370Y-76245865D01*
X129591046Y-77096274D02*
X129703011Y-77096274D01*
X128586370Y-76245865D02*
X129293475Y-76952971D01*
X131592037Y-75207247D02*
X131592037Y-75095282D01*
X129293475Y-76952971D02*
X129381012Y-77022780D01*
X129381012Y-77022780D02*
X129481889Y-77071359D01*
X133028876Y-73770408D02*
X133028876Y-73658443D01*
X129725638Y-74665723D02*
X129834795Y-74690638D01*
X129703011Y-77096274D02*
X129812168Y-77071359D01*
X129161485Y-75117910D02*
X129186400Y-75008753D01*
X132108658Y-72034198D02*
X132178466Y-71946661D01*
X129613674Y-74665722D02*
X129725638Y-74665723D01*
X130011895Y-76941657D02*
X130081704Y-76854119D01*
X130081704Y-76854119D02*
X130130283Y-76753243D01*
X130000582Y-76952971D02*
X130011895Y-76941657D01*
X130155198Y-76644086D02*
X130155198Y-76532121D01*
X132885573Y-74067979D02*
X132955382Y-73980441D01*
X130130283Y-76422964D02*
X130081704Y-76322087D01*
X130011895Y-76234550D02*
X129304789Y-75527445D01*
X130941356Y-73253798D02*
X131050513Y-73228883D01*
X129186401Y-75339031D02*
X129161486Y-75229874D01*
X129304789Y-75527445D02*
X129234980Y-75439908D01*
X129234980Y-75439908D02*
X129186401Y-75339031D01*
X129935672Y-74739217D02*
X130023209Y-74809026D01*
X129161486Y-75229874D02*
X129161485Y-75117910D01*
X129304788Y-74820339D02*
X129316103Y-74809025D01*
X129403640Y-74739217D02*
X129504517Y-74690637D01*
X129834795Y-74690638D02*
X129935672Y-74739217D01*
X132955382Y-73448409D02*
X132885573Y-73360872D01*
X130023209Y-74809026D02*
X130730314Y-75516132D01*
X130598325Y-73793035D02*
X130598324Y-73681071D01*
X130730314Y-75516132D02*
X130817851Y-75585941D01*
X130741627Y-73383500D02*
X130752942Y-73372186D01*
X130817851Y-75585941D02*
X130918728Y-75634520D01*
X130918728Y-75634520D02*
X131027885Y-75659435D01*
X131027885Y-75659435D02*
X131139850Y-75659435D01*
X132874260Y-74079293D02*
X132885573Y-74067979D01*
X131249007Y-75634520D02*
X131349883Y-75585941D01*
X131349883Y-75585941D02*
X131437421Y-75516132D01*
X131448734Y-75504818D02*
X131518543Y-75417280D01*
X131567122Y-75316404D02*
X131592037Y-75207247D01*
X131592037Y-75095282D02*
X131567122Y-74986125D01*
X131567122Y-74986125D02*
X131518543Y-74885248D01*
X131518543Y-74885248D02*
X131448734Y-74797711D01*
X131448734Y-74797711D02*
X130741628Y-74090606D01*
X130741628Y-74090606D02*
X130671819Y-74003069D01*
X132178466Y-71946661D02*
X132189781Y-71935347D01*
X130623240Y-73902192D02*
X130598325Y-73793035D01*
X130671819Y-73471037D02*
X130741627Y-73383500D01*
X131050513Y-73228883D02*
X131162477Y-73228884D01*
X131162477Y-73228884D02*
X131271634Y-73253799D01*
X131372511Y-73302378D02*
X131460048Y-73372187D01*
X132167153Y-74079293D02*
X132254690Y-74149102D01*
X132060078Y-72135075D02*
X132108658Y-72034198D01*
X132355567Y-74197681D02*
X132464724Y-74222596D01*
X133028876Y-73658443D02*
X133003961Y-73549286D01*
X132035164Y-72356196D02*
X132035163Y-72244232D01*
X132464724Y-74222596D02*
X132576689Y-74222596D01*
X132685846Y-74197681D02*
X132786722Y-74149102D01*
X132955382Y-73980441D02*
X133003961Y-73879565D01*
X132060079Y-72465353D02*
X132035164Y-72356196D01*
X133003961Y-73879565D02*
X133028876Y-73770408D01*
X133003961Y-73549286D02*
X132955382Y-73448409D01*
X132885573Y-73360872D02*
X132178467Y-72653767D01*
X132178467Y-72653767D02*
X132108658Y-72566230D01*
X132108658Y-72566230D02*
X132060079Y-72465353D01*
X132035163Y-72244232D02*
X132060078Y-72135075D01*
X132189781Y-71935347D02*
X132277318Y-71865539D01*
X132277318Y-71865539D02*
X132378195Y-71816959D01*
X132378195Y-71816959D02*
X132487352Y-71792044D01*
X132487352Y-71792044D02*
X132599316Y-71792045D01*
X132599316Y-71792045D02*
X132708473Y-71816960D01*
X133194460Y-72078650D02*
X133306424Y-72078650D01*
X132708473Y-71816960D02*
X132809350Y-71865539D01*
X132809350Y-71865539D02*
X132896887Y-71935348D01*
X132984426Y-72005156D02*
X133085302Y-72053736D01*
X133085302Y-72053736D02*
X133194460Y-72078650D01*
X133306424Y-72078650D02*
X133415580Y-72053737D01*
X134228840Y-71310500D02*
X136508672Y-71310500D01*
X136508672Y-71310500D02*
X136588500Y-71310500D01*
X148971000Y-89598500D02*
X148971000Y-81153000D01*
X132016500Y-100012500D02*
X132247640Y-100243640D01*
X132247640Y-100243640D02*
X136080500Y-100243640D01*
X129286000Y-100012500D02*
X132016500Y-100012500D01*
D18*
X147619719Y-79261616D02*
X148312222Y-79954119D01*
X148312222Y-79954119D02*
X151071581Y-79954119D01*
X151071581Y-79954119D02*
X151511000Y-79514700D01*
X151511000Y-79514700D02*
X151511000Y-78613000D01*
D17*
X142176500Y-78600300D02*
X146958403Y-78600300D01*
X146958403Y-78600300D02*
X147619719Y-79261616D01*
X132778500Y-89598500D02*
X133245860Y-89131140D01*
X133245860Y-89131140D02*
X136334500Y-89131140D01*
X129286000Y-89598500D02*
X132778500Y-89598500D01*
X147193000Y-90170000D02*
X143281400Y-90170000D01*
X143281400Y-90170000D02*
X142176500Y-89065100D01*
X147883881Y-90860881D02*
X147193000Y-90170000D01*
X151511000Y-89598500D02*
X150745345Y-89598500D01*
D18*
X150745345Y-89598500D02*
X149482964Y-90860881D01*
X149482964Y-90860881D02*
X147883881Y-90860881D01*
D17*
X129273300Y-78806040D02*
X130479800Y-78806040D01*
X130479800Y-78806040D02*
X136588500Y-78806040D01*
X148971000Y-100012500D02*
X148971000Y-99024672D01*
X148971000Y-99024672D02*
X148971000Y-92138500D01*
M02*
