G04 #@! TF.GenerationSoftware,KiCad,Pcbnew,5.0.2-5.fc29*
G04 #@! TF.CreationDate,2019-03-13T23:33:12-07:00*
G04 #@! TF.ProjectId,electroscope_pth,656c6563-7472-46f7-9363-6f70655f7074,rev?*
G04 #@! TF.SameCoordinates,Original*
G04 #@! TF.FileFunction,Copper,L1,Top*
G04 #@! TF.FilePolarity,Positive*
%FSLAX46Y46*%
G04 Gerber Fmt 4.6, Leading zero omitted, Abs format (unit mm)*
G04 Created by KiCad (PCBNEW 5.0.2-5.fc29) date Wed 13 Mar 2019 11:33:12 PM PDT*
%MOMM*%
%LPD*%
G01*
G04 APERTURE LIST*
G04 #@! TA.AperFunction,ComponentPad*
%ADD10C,1.397000*%
G04 #@! TD*
G04 #@! TA.AperFunction,ComponentPad*
%ADD11R,1.397000X1.397000*%
G04 #@! TD*
G04 #@! TA.AperFunction,ComponentPad*
%ADD12C,1.998980*%
G04 #@! TD*
G04 #@! TA.AperFunction,ComponentPad*
%ADD13C,1.676400*%
G04 #@! TD*
G04 #@! TA.AperFunction,ComponentPad*
%ADD14C,4.064000*%
G04 #@! TD*
G04 #@! TA.AperFunction,ComponentPad*
%ADD15C,3.810000*%
G04 #@! TD*
G04 #@! TA.AperFunction,Conductor*
%ADD16C,0.508000*%
G04 #@! TD*
G04 #@! TA.AperFunction,Conductor*
%ADD17C,0.203200*%
G04 #@! TD*
G04 #@! TA.AperFunction,NonConductor*
%ADD18C,0.254000*%
G04 #@! TD*
G04 APERTURE END LIST*
D10*
G04 #@! TO.P,Q5,1*
G04 #@! TO.N,Net-(Q3-Pad2)*
X128412500Y-81346040D03*
G04 #@! TO.P,Q5,2*
G04 #@! TO.N,Net-(Q5-Pad2)*
X128412500Y-78806040D03*
D11*
G04 #@! TO.P,Q5,3*
G04 #@! TO.N,Net-(Q5-Pad3)*
X130952500Y-78806040D03*
G04 #@! TD*
D10*
G04 #@! TO.P,Q2,1*
G04 #@! TO.N,Net-(Q2-Pad1)*
X148511000Y-81153000D03*
G04 #@! TO.P,Q2,2*
G04 #@! TO.N,Net-(Q2-Pad2)*
X148511000Y-78613000D03*
D11*
G04 #@! TO.P,Q2,3*
G04 #@! TO.N,Net-(Q2-Pad3)*
X151051000Y-78613000D03*
G04 #@! TD*
D10*
G04 #@! TO.P,Q1,1*
G04 #@! TO.N,VCC*
X128425200Y-102552500D03*
G04 #@! TO.P,Q1,2*
G04 #@! TO.N,Net-(Q1-Pad2)*
X128425200Y-100012500D03*
D11*
G04 #@! TO.P,Q1,3*
G04 #@! TO.N,Net-(Q1-Pad3)*
X130965200Y-100012500D03*
G04 #@! TD*
D10*
G04 #@! TO.P,Q4,1*
G04 #@! TO.N,Net-(Q4-Pad1)*
X148511000Y-92138500D03*
G04 #@! TO.P,Q4,2*
G04 #@! TO.N,Net-(Q2-Pad1)*
X148511000Y-89598500D03*
D11*
G04 #@! TO.P,Q4,3*
G04 #@! TO.N,Net-(Q4-Pad3)*
X151051000Y-89598500D03*
G04 #@! TD*
D10*
G04 #@! TO.P,Q6,1*
G04 #@! TO.N,GND*
X148511000Y-102552500D03*
G04 #@! TO.P,Q6,2*
G04 #@! TO.N,Net-(Q4-Pad1)*
X148511000Y-100012500D03*
D11*
G04 #@! TO.P,Q6,3*
G04 #@! TO.N,Net-(D2-Pad2)*
X151051000Y-100012500D03*
G04 #@! TD*
G04 #@! TO.P,Q3,3*
G04 #@! TO.N,Net-(Q3-Pad3)*
X130965200Y-89598500D03*
D10*
G04 #@! TO.P,Q3,2*
G04 #@! TO.N,Net-(Q3-Pad2)*
X128425200Y-89598500D03*
G04 #@! TO.P,Q3,1*
G04 #@! TO.N,Net-(Q1-Pad2)*
X128425200Y-92138500D03*
G04 #@! TD*
D12*
G04 #@! TO.P,R3,1*
G04 #@! TO.N,Net-(Q3-Pad3)*
X136969000Y-89131140D03*
G04 #@! TO.P,R3,2*
G04 #@! TO.N,GND*
X136969000Y-94132400D03*
G04 #@! TD*
D13*
G04 #@! TO.P,D1,1*
G04 #@! TO.N,Net-(D1-Pad1)*
X133716000Y-105950000D03*
G04 #@! TO.P,D1,2*
G04 #@! TO.N,GND*
X133716000Y-108490000D03*
G04 #@! TD*
G04 #@! TO.P,D2,1*
G04 #@! TO.N,Net-(D2-Pad1)*
X145812000Y-105950000D03*
G04 #@! TO.P,D2,2*
G04 #@! TO.N,Net-(D2-Pad2)*
X145812000Y-108490000D03*
G04 #@! TD*
D12*
G04 #@! TO.P,R1,1*
G04 #@! TO.N,Net-(Q1-Pad3)*
X136715000Y-100243640D03*
G04 #@! TO.P,R1,2*
G04 #@! TO.N,Net-(D1-Pad1)*
X136715000Y-105244900D03*
G04 #@! TD*
G04 #@! TO.P,R2,1*
G04 #@! TO.N,VCC*
X142811000Y-83601560D03*
G04 #@! TO.P,R2,2*
G04 #@! TO.N,Net-(Q2-Pad3)*
X142811000Y-78600300D03*
G04 #@! TD*
G04 #@! TO.P,R4,1*
G04 #@! TO.N,VCC*
X142811000Y-94066360D03*
G04 #@! TO.P,R4,2*
G04 #@! TO.N,Net-(Q4-Pad3)*
X142811000Y-89065100D03*
G04 #@! TD*
G04 #@! TO.P,R5,1*
G04 #@! TO.N,Net-(Q5-Pad3)*
X137223000Y-78806040D03*
G04 #@! TO.P,R5,2*
G04 #@! TO.N,GND*
X137223000Y-83807300D03*
G04 #@! TD*
G04 #@! TO.P,R6,1*
G04 #@! TO.N,VCC*
X142811000Y-100243640D03*
G04 #@! TO.P,R6,2*
G04 #@! TO.N,Net-(D2-Pad1)*
X142811000Y-105244900D03*
G04 #@! TD*
D14*
G04 #@! TO.P,U1,1*
G04 #@! TO.N,Net-(Q2-Pad2)*
X149705000Y-70866000D03*
G04 #@! TD*
G04 #@! TO.P,U2,1*
G04 #@! TO.N,Net-(Q5-Pad2)*
X129746000Y-70866000D03*
G04 #@! TD*
D15*
G04 #@! TO.P,BT1,2*
G04 #@! TO.N,GND*
X146113500Y-112400200D03*
G04 #@! TO.P,BT1,1*
G04 #@! TO.N,VCC*
X133413500Y-112400200D03*
G04 #@! TD*
D16*
G04 #@! TO.N,VCC*
X142811000Y-94066360D02*
X142811000Y-100243640D01*
X141397508Y-100243640D02*
X142811000Y-100243640D01*
X134937500Y-95250000D02*
X139931140Y-100243640D01*
X134937500Y-93599000D02*
X134937500Y-95250000D01*
X139001500Y-89535000D02*
X134937500Y-93599000D01*
X141397508Y-83601560D02*
X139634748Y-81838800D01*
X135191500Y-82994500D02*
X135191500Y-84391500D01*
X139931140Y-100243640D02*
X141397508Y-100243640D01*
X139634748Y-81838800D02*
X136347200Y-81838800D01*
X142811000Y-83601560D02*
X141397508Y-83601560D01*
X139001500Y-88201500D02*
X139001500Y-89535000D01*
X136347200Y-81838800D02*
X135191500Y-82994500D01*
X135191500Y-84391500D02*
X139001500Y-88201500D01*
X128425200Y-107411900D02*
X128425200Y-102552500D01*
X133413500Y-112400200D02*
X128425200Y-107411900D01*
X140502140Y-102552500D02*
X142811000Y-100243640D01*
X128425200Y-102552500D02*
X140502140Y-102552500D01*
G04 #@! TO.N,GND*
X138222489Y-84806789D02*
X137223000Y-83807300D01*
X140462000Y-87046300D02*
X138222489Y-84806789D01*
X136969000Y-94132400D02*
X138849100Y-94132400D01*
X138849100Y-94132400D02*
X141224000Y-91757500D01*
X141224000Y-91757500D02*
X143700500Y-91757500D01*
X136969000Y-94132400D02*
X140462000Y-90639400D01*
X140462000Y-90639400D02*
X140462000Y-87046300D01*
X145161000Y-93218000D02*
X145161000Y-100339002D01*
X143700500Y-91757500D02*
X145161000Y-93218000D01*
X142203300Y-108490000D02*
X146113500Y-112400200D01*
X133716000Y-108490000D02*
X142203300Y-108490000D01*
X148511000Y-110002700D02*
X148511000Y-102552500D01*
X146113500Y-112400200D02*
X148511000Y-110002700D01*
X137010002Y-108490000D02*
X145161000Y-100339002D01*
X133716000Y-108490000D02*
X137010002Y-108490000D01*
G04 #@! TO.N,Net-(D1-Pad1)*
X136715000Y-105244900D02*
X134531100Y-105244900D01*
X133826000Y-105950000D02*
X133716000Y-105950000D01*
X134531100Y-105244900D02*
X133826000Y-105950000D01*
G04 #@! TO.N,Net-(D2-Pad1)*
X142811000Y-105244900D02*
X144868900Y-105244900D01*
X145574000Y-105950000D02*
X145812000Y-105950000D01*
X144868900Y-105244900D02*
X145574000Y-105950000D01*
D17*
G04 #@! TO.N,Net-(D2-Pad2)*
X151051000Y-100914200D02*
X151051000Y-100012500D01*
X150682700Y-101282500D02*
X151051000Y-100914200D01*
X147320000Y-101282500D02*
X150682700Y-101282500D01*
D16*
X146875500Y-101282500D02*
X147320000Y-101282500D01*
X146177000Y-101981000D02*
X146875500Y-101282500D01*
X145812000Y-108490000D02*
X147574000Y-106728000D01*
X146177000Y-103759000D02*
X146177000Y-101981000D01*
X147574000Y-105156000D02*
X146177000Y-103759000D01*
X147574000Y-106728000D02*
X147574000Y-105156000D01*
G04 #@! TO.N,Net-(Q1-Pad2)*
X128425200Y-92138500D02*
X128425200Y-100012500D01*
G04 #@! TO.N,Net-(Q2-Pad2)*
X149705000Y-77419000D02*
X148511000Y-78613000D01*
X149705000Y-70866000D02*
X149705000Y-77419000D01*
G04 #@! TO.N,Net-(Q3-Pad2)*
X128412500Y-89585800D02*
X128425200Y-89598500D01*
X128412500Y-81346040D02*
X128412500Y-89585800D01*
G04 #@! TO.N,Net-(Q5-Pad2)*
X129746000Y-77472540D02*
X129746000Y-70866000D01*
X128412500Y-78806040D02*
X129746000Y-77472540D01*
G04 #@! TO.N,Net-(Q2-Pad1)*
X148511000Y-89598500D02*
X148511000Y-81153000D01*
G04 #@! TO.N,Net-(Q1-Pad3)*
X130965200Y-100012500D02*
X133159500Y-100012500D01*
X133390640Y-100243640D02*
X136715000Y-100243640D01*
X133159500Y-100012500D02*
X133390640Y-100243640D01*
G04 #@! TO.N,Net-(Q2-Pad3)*
X142811000Y-78600300D02*
X144322800Y-78600300D01*
X144322800Y-78600300D02*
X145605500Y-79883000D01*
D17*
X151051000Y-79514700D02*
X151051000Y-78613000D01*
X150682700Y-79883000D02*
X151051000Y-79514700D01*
X146431000Y-79883000D02*
X150682700Y-79883000D01*
D16*
X146431000Y-79883000D02*
X145605500Y-79883000D01*
G04 #@! TO.N,Net-(Q3-Pad3)*
X130965200Y-89598500D02*
X133413500Y-89598500D01*
X133880860Y-89131140D02*
X136969000Y-89131140D01*
X133413500Y-89598500D02*
X133880860Y-89131140D01*
D17*
G04 #@! TO.N,Net-(Q4-Pad3)*
X151051000Y-90500200D02*
X150682700Y-90868500D01*
X151051000Y-89598500D02*
X151051000Y-90500200D01*
X150682700Y-90868500D02*
X146431000Y-90868500D01*
D16*
X145986500Y-90868500D02*
X146431000Y-90868500D01*
X144614400Y-90868500D02*
X145986500Y-90868500D01*
X142811000Y-89065100D02*
X144614400Y-90868500D01*
G04 #@! TO.N,Net-(Q5-Pad3)*
X130952500Y-78806040D02*
X137223000Y-78806040D01*
G04 #@! TO.N,Net-(Q4-Pad1)*
X148511000Y-92138500D02*
X148511000Y-100012500D01*
G04 #@! TD*
D18*
G36*
X127784267Y-108052833D02*
X127858496Y-108102431D01*
X131101232Y-111345168D01*
X130873500Y-111894962D01*
X130873500Y-112905438D01*
X131260192Y-113838995D01*
X131544197Y-114123000D01*
X128146966Y-114123000D01*
X127957969Y-114085406D01*
X127854937Y-114016563D01*
X127786094Y-113913531D01*
X127748500Y-113724534D01*
X127748500Y-107999304D01*
X127784267Y-108052833D01*
X127784267Y-108052833D01*
G37*
X127784267Y-108052833D02*
X127858496Y-108102431D01*
X131101232Y-111345168D01*
X130873500Y-111894962D01*
X130873500Y-112905438D01*
X131260192Y-113838995D01*
X131544197Y-114123000D01*
X128146966Y-114123000D01*
X127957969Y-114085406D01*
X127854937Y-114016563D01*
X127786094Y-113913531D01*
X127748500Y-113724534D01*
X127748500Y-107999304D01*
X127784267Y-108052833D01*
G36*
X137010002Y-109396416D02*
X137097557Y-109379000D01*
X141835065Y-109379000D01*
X143801232Y-111345168D01*
X143573500Y-111894962D01*
X143573500Y-112905438D01*
X143960192Y-113838995D01*
X144244197Y-114123000D01*
X135282803Y-114123000D01*
X135566808Y-113838995D01*
X135953500Y-112905438D01*
X135953500Y-111894962D01*
X135566808Y-110961405D01*
X134852295Y-110246892D01*
X134088220Y-109930402D01*
X134550501Y-109738919D01*
X134910420Y-109379000D01*
X136922447Y-109379000D01*
X137010002Y-109396416D01*
X137010002Y-109396416D01*
G37*
X137010002Y-109396416D02*
X137097557Y-109379000D01*
X141835065Y-109379000D01*
X143801232Y-111345168D01*
X143573500Y-111894962D01*
X143573500Y-112905438D01*
X143960192Y-113838995D01*
X144244197Y-114123000D01*
X135282803Y-114123000D01*
X135566808Y-113838995D01*
X135953500Y-112905438D01*
X135953500Y-111894962D01*
X135566808Y-110961405D01*
X134852295Y-110246892D01*
X134088220Y-109930402D01*
X134550501Y-109738919D01*
X134910420Y-109379000D01*
X136922447Y-109379000D01*
X137010002Y-109396416D01*
G36*
X151715001Y-113724529D02*
X151677406Y-113913531D01*
X151608563Y-114016563D01*
X151505531Y-114085406D01*
X151316534Y-114123000D01*
X147982803Y-114123000D01*
X148266808Y-113838995D01*
X148653500Y-112905438D01*
X148653500Y-111894962D01*
X148425768Y-111345168D01*
X149077707Y-110693229D01*
X149151933Y-110643633D01*
X149348419Y-110349570D01*
X149400000Y-110090256D01*
X149400000Y-110090255D01*
X149417416Y-110002701D01*
X149400000Y-109915146D01*
X149400000Y-103549354D01*
X149641487Y-103307867D01*
X149844500Y-102817750D01*
X149844500Y-102287250D01*
X149733429Y-102019100D01*
X150610160Y-102019100D01*
X150682700Y-102033529D01*
X150755240Y-102019100D01*
X150755244Y-102019100D01*
X150970107Y-101976361D01*
X151213758Y-101813558D01*
X151254851Y-101752058D01*
X151520558Y-101486351D01*
X151582058Y-101445258D01*
X151640068Y-101358440D01*
X151715001Y-101358440D01*
X151715001Y-113724529D01*
X151715001Y-113724529D01*
G37*
X151715001Y-113724529D02*
X151677406Y-113913531D01*
X151608563Y-114016563D01*
X151505531Y-114085406D01*
X151316534Y-114123000D01*
X147982803Y-114123000D01*
X148266808Y-113838995D01*
X148653500Y-112905438D01*
X148653500Y-111894962D01*
X148425768Y-111345168D01*
X149077707Y-110693229D01*
X149151933Y-110643633D01*
X149348419Y-110349570D01*
X149400000Y-110090256D01*
X149400000Y-110090255D01*
X149417416Y-110002701D01*
X149400000Y-109915146D01*
X149400000Y-103549354D01*
X149641487Y-103307867D01*
X149844500Y-102817750D01*
X149844500Y-102287250D01*
X149733429Y-102019100D01*
X150610160Y-102019100D01*
X150682700Y-102033529D01*
X150755240Y-102019100D01*
X150755244Y-102019100D01*
X150970107Y-101976361D01*
X151213758Y-101813558D01*
X151254851Y-101752058D01*
X151520558Y-101486351D01*
X151582058Y-101445258D01*
X151640068Y-101358440D01*
X151715001Y-101358440D01*
X151715001Y-113724529D01*
G36*
X141425346Y-106170764D02*
X141885136Y-106630554D01*
X142485880Y-106879390D01*
X143136120Y-106879390D01*
X143736864Y-106630554D01*
X144196654Y-106170764D01*
X144211924Y-106133900D01*
X144338800Y-106133900D01*
X144338800Y-106243038D01*
X144563081Y-106784501D01*
X144977499Y-107198919D01*
X145028393Y-107220000D01*
X144977499Y-107241081D01*
X144563081Y-107655499D01*
X144338800Y-108196962D01*
X144338800Y-108783038D01*
X144563081Y-109324501D01*
X144977499Y-109738919D01*
X145439280Y-109930195D01*
X145058468Y-110087932D01*
X142893831Y-107923296D01*
X142844233Y-107849067D01*
X142550170Y-107652581D01*
X142290856Y-107601000D01*
X142290855Y-107601000D01*
X142203300Y-107583584D01*
X142115745Y-107601000D01*
X139156237Y-107601000D01*
X141179646Y-105577591D01*
X141425346Y-106170764D01*
X141425346Y-106170764D01*
G37*
X141425346Y-106170764D02*
X141885136Y-106630554D01*
X142485880Y-106879390D01*
X143136120Y-106879390D01*
X143736864Y-106630554D01*
X144196654Y-106170764D01*
X144211924Y-106133900D01*
X144338800Y-106133900D01*
X144338800Y-106243038D01*
X144563081Y-106784501D01*
X144977499Y-107198919D01*
X145028393Y-107220000D01*
X144977499Y-107241081D01*
X144563081Y-107655499D01*
X144338800Y-108196962D01*
X144338800Y-108783038D01*
X144563081Y-109324501D01*
X144977499Y-109738919D01*
X145439280Y-109930195D01*
X145058468Y-110087932D01*
X142893831Y-107923296D01*
X142844233Y-107849067D01*
X142550170Y-107652581D01*
X142290856Y-107601000D01*
X142290855Y-107601000D01*
X142203300Y-107583584D01*
X142115745Y-107601000D01*
X139156237Y-107601000D01*
X141179646Y-105577591D01*
X141425346Y-106170764D01*
G36*
X147622000Y-109634464D02*
X147168532Y-110087932D01*
X146618738Y-109860200D01*
X146353702Y-109860200D01*
X146646501Y-109738919D01*
X147060919Y-109324501D01*
X147285200Y-108783038D01*
X147285200Y-108274035D01*
X147622000Y-107937235D01*
X147622000Y-109634464D01*
X147622000Y-109634464D01*
G37*
X147622000Y-109634464D02*
X147168532Y-110087932D01*
X146618738Y-109860200D01*
X146353702Y-109860200D01*
X146646501Y-109738919D01*
X147060919Y-109324501D01*
X147285200Y-108783038D01*
X147285200Y-108274035D01*
X147622000Y-107937235D01*
X147622000Y-109634464D01*
G36*
X138120913Y-106121853D02*
X138349490Y-105570020D01*
X138349490Y-104919780D01*
X138100654Y-104319036D01*
X137640864Y-103859246D01*
X137040120Y-103610410D01*
X136389880Y-103610410D01*
X135789136Y-103859246D01*
X135329346Y-104319036D01*
X135314076Y-104355900D01*
X134618655Y-104355900D01*
X134531100Y-104338484D01*
X134443545Y-104355900D01*
X134443544Y-104355900D01*
X134184230Y-104407481D01*
X134053144Y-104495069D01*
X134009038Y-104476800D01*
X133422962Y-104476800D01*
X132881499Y-104701081D01*
X132467081Y-105115499D01*
X132242800Y-105656962D01*
X132242800Y-106243038D01*
X132467081Y-106784501D01*
X132881499Y-107198919D01*
X132932393Y-107220000D01*
X132881499Y-107241081D01*
X132467081Y-107655499D01*
X132242800Y-108196962D01*
X132242800Y-108783038D01*
X132467081Y-109324501D01*
X132881499Y-109738919D01*
X133174298Y-109860200D01*
X132908262Y-109860200D01*
X132358468Y-110087932D01*
X129314200Y-107043665D01*
X129314200Y-103549354D01*
X129422054Y-103441500D01*
X140414585Y-103441500D01*
X140502140Y-103458916D01*
X140589695Y-103441500D01*
X140589696Y-103441500D01*
X140849010Y-103389919D01*
X140860575Y-103382192D01*
X138120913Y-106121853D01*
X138120913Y-106121853D01*
G37*
X138120913Y-106121853D02*
X138349490Y-105570020D01*
X138349490Y-104919780D01*
X138100654Y-104319036D01*
X137640864Y-103859246D01*
X137040120Y-103610410D01*
X136389880Y-103610410D01*
X135789136Y-103859246D01*
X135329346Y-104319036D01*
X135314076Y-104355900D01*
X134618655Y-104355900D01*
X134531100Y-104338484D01*
X134443545Y-104355900D01*
X134443544Y-104355900D01*
X134184230Y-104407481D01*
X134053144Y-104495069D01*
X134009038Y-104476800D01*
X133422962Y-104476800D01*
X132881499Y-104701081D01*
X132467081Y-105115499D01*
X132242800Y-105656962D01*
X132242800Y-106243038D01*
X132467081Y-106784501D01*
X132881499Y-107198919D01*
X132932393Y-107220000D01*
X132881499Y-107241081D01*
X132467081Y-107655499D01*
X132242800Y-108196962D01*
X132242800Y-108783038D01*
X132467081Y-109324501D01*
X132881499Y-109738919D01*
X133174298Y-109860200D01*
X132908262Y-109860200D01*
X132358468Y-110087932D01*
X129314200Y-107043665D01*
X129314200Y-103549354D01*
X129422054Y-103441500D01*
X140414585Y-103441500D01*
X140502140Y-103458916D01*
X140589695Y-103441500D01*
X140589696Y-103441500D01*
X140849010Y-103389919D01*
X140860575Y-103382192D01*
X138120913Y-106121853D01*
G36*
X135329346Y-106170764D02*
X135789136Y-106630554D01*
X136389880Y-106879390D01*
X137040120Y-106879390D01*
X137591953Y-106650813D01*
X136641767Y-107601000D01*
X134910420Y-107601000D01*
X134550501Y-107241081D01*
X134499607Y-107220000D01*
X134550501Y-107198919D01*
X134964919Y-106784501D01*
X135189200Y-106243038D01*
X135189200Y-106133900D01*
X135314076Y-106133900D01*
X135329346Y-106170764D01*
X135329346Y-106170764D01*
G37*
X135329346Y-106170764D02*
X135789136Y-106630554D01*
X136389880Y-106879390D01*
X137040120Y-106879390D01*
X137591953Y-106650813D01*
X136641767Y-107601000D01*
X134910420Y-107601000D01*
X134550501Y-107241081D01*
X134499607Y-107220000D01*
X134550501Y-107198919D01*
X134964919Y-106784501D01*
X135189200Y-106243038D01*
X135189200Y-106133900D01*
X135314076Y-106133900D01*
X135329346Y-106170764D01*
G36*
X147177500Y-91873250D02*
X147177500Y-92403750D01*
X147380513Y-92893867D01*
X147622000Y-93135354D01*
X147622001Y-99015645D01*
X147380513Y-99257133D01*
X147177500Y-99747250D01*
X147177500Y-100277750D01*
X147225445Y-100393500D01*
X146963054Y-100393500D01*
X146875499Y-100376084D01*
X146787944Y-100393500D01*
X146528630Y-100445081D01*
X146234567Y-100641567D01*
X146184970Y-100715794D01*
X145610294Y-101290471D01*
X145536068Y-101340067D01*
X145486472Y-101414293D01*
X145486471Y-101414294D01*
X145339582Y-101634130D01*
X145270584Y-101981000D01*
X145288001Y-102068559D01*
X145288000Y-103671445D01*
X145270584Y-103759000D01*
X145288000Y-103846555D01*
X145339581Y-104105869D01*
X145536067Y-104399933D01*
X145610296Y-104449531D01*
X145637565Y-104476800D01*
X145518962Y-104476800D01*
X145395839Y-104527799D01*
X145215770Y-104407481D01*
X144956456Y-104355900D01*
X144956455Y-104355900D01*
X144868900Y-104338484D01*
X144781345Y-104355900D01*
X144211924Y-104355900D01*
X144196654Y-104319036D01*
X143736864Y-103859246D01*
X143143691Y-103613546D01*
X145727707Y-101029531D01*
X145801933Y-100979935D01*
X145998419Y-100685872D01*
X146050000Y-100426558D01*
X146050000Y-100426557D01*
X146067416Y-100339002D01*
X146050000Y-100251447D01*
X146050000Y-93305555D01*
X146067416Y-93218000D01*
X146050000Y-93130444D01*
X145998419Y-92871130D01*
X145801933Y-92577067D01*
X145727707Y-92527471D01*
X144957735Y-91757500D01*
X146518556Y-91757500D01*
X146777870Y-91705919D01*
X146928757Y-91605100D01*
X147288571Y-91605100D01*
X147177500Y-91873250D01*
X147177500Y-91873250D01*
G37*
X147177500Y-91873250D02*
X147177500Y-92403750D01*
X147380513Y-92893867D01*
X147622000Y-93135354D01*
X147622001Y-99015645D01*
X147380513Y-99257133D01*
X147177500Y-99747250D01*
X147177500Y-100277750D01*
X147225445Y-100393500D01*
X146963054Y-100393500D01*
X146875499Y-100376084D01*
X146787944Y-100393500D01*
X146528630Y-100445081D01*
X146234567Y-100641567D01*
X146184970Y-100715794D01*
X145610294Y-101290471D01*
X145536068Y-101340067D01*
X145486472Y-101414293D01*
X145486471Y-101414294D01*
X145339582Y-101634130D01*
X145270584Y-101981000D01*
X145288001Y-102068559D01*
X145288000Y-103671445D01*
X145270584Y-103759000D01*
X145288000Y-103846555D01*
X145339581Y-104105869D01*
X145536067Y-104399933D01*
X145610296Y-104449531D01*
X145637565Y-104476800D01*
X145518962Y-104476800D01*
X145395839Y-104527799D01*
X145215770Y-104407481D01*
X144956456Y-104355900D01*
X144956455Y-104355900D01*
X144868900Y-104338484D01*
X144781345Y-104355900D01*
X144211924Y-104355900D01*
X144196654Y-104319036D01*
X143736864Y-103859246D01*
X143143691Y-103613546D01*
X145727707Y-101029531D01*
X145801933Y-100979935D01*
X145998419Y-100685872D01*
X146050000Y-100426558D01*
X146050000Y-100426557D01*
X146067416Y-100339002D01*
X146050000Y-100251447D01*
X146050000Y-93305555D01*
X146067416Y-93218000D01*
X146050000Y-93130444D01*
X145998419Y-92871130D01*
X145801933Y-92577067D01*
X145727707Y-92527471D01*
X144957735Y-91757500D01*
X146518556Y-91757500D01*
X146777870Y-91705919D01*
X146928757Y-91605100D01*
X147288571Y-91605100D01*
X147177500Y-91873250D01*
G36*
X147177500Y-102287250D02*
X147177500Y-102817750D01*
X147380513Y-103307867D01*
X147622001Y-103549355D01*
X147622001Y-103946765D01*
X147066000Y-103390765D01*
X147066000Y-102349235D01*
X147212512Y-102202724D01*
X147177500Y-102287250D01*
X147177500Y-102287250D01*
G37*
X147177500Y-102287250D02*
X147177500Y-102817750D01*
X147380513Y-103307867D01*
X147622001Y-103549355D01*
X147622001Y-103946765D01*
X147066000Y-103390765D01*
X147066000Y-102349235D01*
X147212512Y-102202724D01*
X147177500Y-102287250D01*
G36*
X129619260Y-100711000D02*
X129668543Y-100958765D01*
X129808891Y-101168809D01*
X130018935Y-101309157D01*
X130266700Y-101358440D01*
X131663700Y-101358440D01*
X131911465Y-101309157D01*
X132121509Y-101168809D01*
X132261857Y-100958765D01*
X132273248Y-100901500D01*
X132775040Y-100901500D01*
X133043770Y-101081059D01*
X133303084Y-101132640D01*
X133303088Y-101132640D01*
X133390639Y-101150055D01*
X133478190Y-101132640D01*
X135314076Y-101132640D01*
X135329346Y-101169504D01*
X135789136Y-101629294D01*
X135871717Y-101663500D01*
X129422054Y-101663500D01*
X129180567Y-101422013D01*
X128843753Y-101282500D01*
X129180567Y-101142987D01*
X129555687Y-100767867D01*
X129619260Y-100614388D01*
X129619260Y-100711000D01*
X129619260Y-100711000D01*
G37*
X129619260Y-100711000D02*
X129668543Y-100958765D01*
X129808891Y-101168809D01*
X130018935Y-101309157D01*
X130266700Y-101358440D01*
X131663700Y-101358440D01*
X131911465Y-101309157D01*
X132121509Y-101168809D01*
X132261857Y-100958765D01*
X132273248Y-100901500D01*
X132775040Y-100901500D01*
X133043770Y-101081059D01*
X133303084Y-101132640D01*
X133303088Y-101132640D01*
X133390639Y-101150055D01*
X133478190Y-101132640D01*
X135314076Y-101132640D01*
X135329346Y-101169504D01*
X135789136Y-101629294D01*
X135871717Y-101663500D01*
X129422054Y-101663500D01*
X129180567Y-101422013D01*
X128843753Y-101282500D01*
X129180567Y-101142987D01*
X129555687Y-100767867D01*
X129619260Y-100614388D01*
X129619260Y-100711000D01*
G36*
X139240611Y-100810347D02*
X139290207Y-100884573D01*
X139584270Y-101081059D01*
X139843584Y-101132640D01*
X139843588Y-101132640D01*
X139931139Y-101150055D01*
X140018690Y-101132640D01*
X140664765Y-101132640D01*
X140133905Y-101663500D01*
X137558283Y-101663500D01*
X137640864Y-101629294D01*
X138100654Y-101169504D01*
X138349490Y-100568760D01*
X138349490Y-99919226D01*
X139240611Y-100810347D01*
X139240611Y-100810347D01*
G37*
X139240611Y-100810347D02*
X139290207Y-100884573D01*
X139584270Y-101081059D01*
X139843584Y-101132640D01*
X139843588Y-101132640D01*
X139931139Y-101150055D01*
X140018690Y-101132640D01*
X140664765Y-101132640D01*
X140133905Y-101663500D01*
X137558283Y-101663500D01*
X137640864Y-101629294D01*
X138100654Y-101169504D01*
X138349490Y-100568760D01*
X138349490Y-99919226D01*
X139240611Y-100810347D01*
G36*
X128006647Y-101282500D02*
X127748500Y-101389428D01*
X127748500Y-101175572D01*
X128006647Y-101282500D01*
X128006647Y-101282500D01*
G37*
X128006647Y-101282500D02*
X127748500Y-101389428D01*
X127748500Y-101175572D01*
X128006647Y-101282500D01*
G36*
X144272001Y-99499680D02*
X144196654Y-99317776D01*
X143736864Y-98857986D01*
X143700000Y-98842716D01*
X143700000Y-95467284D01*
X143736864Y-95452014D01*
X144196654Y-94992224D01*
X144272000Y-94810322D01*
X144272001Y-99499680D01*
X144272001Y-99499680D01*
G37*
X144272001Y-99499680D02*
X144196654Y-99317776D01*
X143736864Y-98857986D01*
X143700000Y-98842716D01*
X143700000Y-95467284D01*
X143736864Y-95452014D01*
X144196654Y-94992224D01*
X144272000Y-94810322D01*
X144272001Y-99499680D01*
G36*
X135583346Y-90057004D02*
X136043136Y-90516794D01*
X136551782Y-90727482D01*
X134370796Y-92908469D01*
X134296567Y-92958067D01*
X134100081Y-93252131D01*
X134091558Y-93294981D01*
X134031084Y-93599000D01*
X134048500Y-93686555D01*
X134048501Y-95162441D01*
X134031084Y-95250000D01*
X134071268Y-95452014D01*
X134100082Y-95596870D01*
X134296568Y-95890933D01*
X134370794Y-95940529D01*
X137039414Y-98609150D01*
X136389880Y-98609150D01*
X135789136Y-98857986D01*
X135329346Y-99317776D01*
X135314076Y-99354640D01*
X133775100Y-99354640D01*
X133506370Y-99175081D01*
X133247056Y-99123500D01*
X133247055Y-99123500D01*
X133159500Y-99106084D01*
X133071945Y-99123500D01*
X132273248Y-99123500D01*
X132261857Y-99066235D01*
X132121509Y-98856191D01*
X131911465Y-98715843D01*
X131663700Y-98666560D01*
X130266700Y-98666560D01*
X130018935Y-98715843D01*
X129808891Y-98856191D01*
X129668543Y-99066235D01*
X129619260Y-99314000D01*
X129619260Y-99410612D01*
X129555687Y-99257133D01*
X129314200Y-99015646D01*
X129314200Y-93135354D01*
X129555687Y-92893867D01*
X129758700Y-92403750D01*
X129758700Y-91873250D01*
X129555687Y-91383133D01*
X129180567Y-91008013D01*
X128843753Y-90868500D01*
X129180567Y-90728987D01*
X129555687Y-90353867D01*
X129619260Y-90200388D01*
X129619260Y-90297000D01*
X129668543Y-90544765D01*
X129808891Y-90754809D01*
X130018935Y-90895157D01*
X130266700Y-90944440D01*
X131663700Y-90944440D01*
X131911465Y-90895157D01*
X132121509Y-90754809D01*
X132261857Y-90544765D01*
X132273248Y-90487500D01*
X133325945Y-90487500D01*
X133413500Y-90504916D01*
X133501055Y-90487500D01*
X133501056Y-90487500D01*
X133760370Y-90435919D01*
X134054433Y-90239433D01*
X134104031Y-90165204D01*
X134249095Y-90020140D01*
X135568076Y-90020140D01*
X135583346Y-90057004D01*
X135583346Y-90057004D01*
G37*
X135583346Y-90057004D02*
X136043136Y-90516794D01*
X136551782Y-90727482D01*
X134370796Y-92908469D01*
X134296567Y-92958067D01*
X134100081Y-93252131D01*
X134091558Y-93294981D01*
X134031084Y-93599000D01*
X134048500Y-93686555D01*
X134048501Y-95162441D01*
X134031084Y-95250000D01*
X134071268Y-95452014D01*
X134100082Y-95596870D01*
X134296568Y-95890933D01*
X134370794Y-95940529D01*
X137039414Y-98609150D01*
X136389880Y-98609150D01*
X135789136Y-98857986D01*
X135329346Y-99317776D01*
X135314076Y-99354640D01*
X133775100Y-99354640D01*
X133506370Y-99175081D01*
X133247056Y-99123500D01*
X133247055Y-99123500D01*
X133159500Y-99106084D01*
X133071945Y-99123500D01*
X132273248Y-99123500D01*
X132261857Y-99066235D01*
X132121509Y-98856191D01*
X131911465Y-98715843D01*
X131663700Y-98666560D01*
X130266700Y-98666560D01*
X130018935Y-98715843D01*
X129808891Y-98856191D01*
X129668543Y-99066235D01*
X129619260Y-99314000D01*
X129619260Y-99410612D01*
X129555687Y-99257133D01*
X129314200Y-99015646D01*
X129314200Y-93135354D01*
X129555687Y-92893867D01*
X129758700Y-92403750D01*
X129758700Y-91873250D01*
X129555687Y-91383133D01*
X129180567Y-91008013D01*
X128843753Y-90868500D01*
X129180567Y-90728987D01*
X129555687Y-90353867D01*
X129619260Y-90200388D01*
X129619260Y-90297000D01*
X129668543Y-90544765D01*
X129808891Y-90754809D01*
X130018935Y-90895157D01*
X130266700Y-90944440D01*
X131663700Y-90944440D01*
X131911465Y-90895157D01*
X132121509Y-90754809D01*
X132261857Y-90544765D01*
X132273248Y-90487500D01*
X133325945Y-90487500D01*
X133413500Y-90504916D01*
X133501055Y-90487500D01*
X133501056Y-90487500D01*
X133760370Y-90435919D01*
X134054433Y-90239433D01*
X134104031Y-90165204D01*
X134249095Y-90020140D01*
X135568076Y-90020140D01*
X135583346Y-90057004D01*
G36*
X151715001Y-98666560D02*
X150352500Y-98666560D01*
X150104735Y-98715843D01*
X149894691Y-98856191D01*
X149754343Y-99066235D01*
X149705060Y-99314000D01*
X149705060Y-99410612D01*
X149641487Y-99257133D01*
X149400000Y-99015646D01*
X149400000Y-93135354D01*
X149641487Y-92893867D01*
X149844500Y-92403750D01*
X149844500Y-91873250D01*
X149733429Y-91605100D01*
X150610160Y-91605100D01*
X150682700Y-91619529D01*
X150755240Y-91605100D01*
X150755244Y-91605100D01*
X150970107Y-91562361D01*
X151213758Y-91399558D01*
X151254851Y-91338058D01*
X151520558Y-91072351D01*
X151582058Y-91031258D01*
X151640068Y-90944440D01*
X151715000Y-90944440D01*
X151715001Y-98666560D01*
X151715001Y-98666560D01*
G37*
X151715001Y-98666560D02*
X150352500Y-98666560D01*
X150104735Y-98715843D01*
X149894691Y-98856191D01*
X149754343Y-99066235D01*
X149705060Y-99314000D01*
X149705060Y-99410612D01*
X149641487Y-99257133D01*
X149400000Y-99015646D01*
X149400000Y-93135354D01*
X149641487Y-92893867D01*
X149844500Y-92403750D01*
X149844500Y-91873250D01*
X149733429Y-91605100D01*
X150610160Y-91605100D01*
X150682700Y-91619529D01*
X150755240Y-91605100D01*
X150755244Y-91605100D01*
X150970107Y-91562361D01*
X151213758Y-91399558D01*
X151254851Y-91338058D01*
X151520558Y-91072351D01*
X151582058Y-91031258D01*
X151640068Y-90944440D01*
X151715000Y-90944440D01*
X151715001Y-98666560D01*
G36*
X141885136Y-92680706D02*
X141425346Y-93140496D01*
X141176510Y-93741240D01*
X141176510Y-94391480D01*
X141425346Y-94992224D01*
X141885136Y-95452014D01*
X141922000Y-95467284D01*
X141922001Y-98842716D01*
X141885136Y-98857986D01*
X141425346Y-99317776D01*
X141410076Y-99354640D01*
X140299376Y-99354640D01*
X136711625Y-95766890D01*
X137294120Y-95766890D01*
X137894864Y-95518054D01*
X138354654Y-95058264D01*
X138369924Y-95021400D01*
X138761545Y-95021400D01*
X138849100Y-95038816D01*
X138936655Y-95021400D01*
X138936656Y-95021400D01*
X139195970Y-94969819D01*
X139490033Y-94773333D01*
X139539631Y-94699104D01*
X141592236Y-92646500D01*
X141967717Y-92646500D01*
X141885136Y-92680706D01*
X141885136Y-92680706D01*
G37*
X141885136Y-92680706D02*
X141425346Y-93140496D01*
X141176510Y-93741240D01*
X141176510Y-94391480D01*
X141425346Y-94992224D01*
X141885136Y-95452014D01*
X141922000Y-95467284D01*
X141922001Y-98842716D01*
X141885136Y-98857986D01*
X141425346Y-99317776D01*
X141410076Y-99354640D01*
X140299376Y-99354640D01*
X136711625Y-95766890D01*
X137294120Y-95766890D01*
X137894864Y-95518054D01*
X138354654Y-95058264D01*
X138369924Y-95021400D01*
X138761545Y-95021400D01*
X138849100Y-95038816D01*
X138936655Y-95021400D01*
X138936656Y-95021400D01*
X139195970Y-94969819D01*
X139490033Y-94773333D01*
X139539631Y-94699104D01*
X141592236Y-92646500D01*
X141967717Y-92646500D01*
X141885136Y-92680706D01*
G36*
X139573000Y-90271164D02*
X137330985Y-92513180D01*
X137295326Y-92498410D01*
X139568207Y-90225529D01*
X139573000Y-90222326D01*
X139573000Y-90271164D01*
X139573000Y-90271164D01*
G37*
X139573000Y-90271164D02*
X137330985Y-92513180D01*
X137295326Y-92498410D01*
X139568207Y-90225529D01*
X139573000Y-90222326D01*
X139573000Y-90271164D01*
G36*
X128006647Y-90868500D02*
X127748500Y-90975428D01*
X127748500Y-90761572D01*
X128006647Y-90868500D01*
X128006647Y-90868500D01*
G37*
X128006647Y-90868500D02*
X127748500Y-90975428D01*
X127748500Y-90761572D01*
X128006647Y-90868500D01*
G36*
X141425346Y-89990964D02*
X141885136Y-90450754D01*
X142485880Y-90699590D01*
X143136120Y-90699590D01*
X143172985Y-90684320D01*
X143357164Y-90868500D01*
X141322845Y-90868500D01*
X141351000Y-90726956D01*
X141351000Y-90726955D01*
X141368416Y-90639400D01*
X141351000Y-90551845D01*
X141351000Y-89811477D01*
X141425346Y-89990964D01*
X141425346Y-89990964D01*
G37*
X141425346Y-89990964D02*
X141885136Y-90450754D01*
X142485880Y-90699590D01*
X143136120Y-90699590D01*
X143172985Y-90684320D01*
X143357164Y-90868500D01*
X141322845Y-90868500D01*
X141351000Y-90726956D01*
X141351000Y-90726955D01*
X141368416Y-90639400D01*
X141351000Y-90551845D01*
X141351000Y-89811477D01*
X141425346Y-89990964D01*
G36*
X148816001Y-77050763D02*
X148587264Y-77279500D01*
X148245750Y-77279500D01*
X147755633Y-77482513D01*
X147380513Y-77857633D01*
X147177500Y-78347750D01*
X147177500Y-78878250D01*
X147288571Y-79146400D01*
X146928757Y-79146400D01*
X146777870Y-79045581D01*
X146518556Y-78994000D01*
X145973736Y-78994000D01*
X145013331Y-78033596D01*
X144963733Y-77959367D01*
X144669670Y-77762881D01*
X144410356Y-77711300D01*
X144410355Y-77711300D01*
X144322800Y-77693884D01*
X144235245Y-77711300D01*
X144211924Y-77711300D01*
X144196654Y-77674436D01*
X143736864Y-77214646D01*
X143136120Y-76965810D01*
X142485880Y-76965810D01*
X141885136Y-77214646D01*
X141425346Y-77674436D01*
X141176510Y-78275180D01*
X141176510Y-78925420D01*
X141425346Y-79526164D01*
X141885136Y-79985954D01*
X142485880Y-80234790D01*
X143136120Y-80234790D01*
X143736864Y-79985954D01*
X144094041Y-79628777D01*
X144914971Y-80449707D01*
X144964567Y-80523933D01*
X145258630Y-80720419D01*
X145517944Y-80772000D01*
X145517945Y-80772000D01*
X145605500Y-80789416D01*
X145693055Y-80772000D01*
X146518556Y-80772000D01*
X146777870Y-80720419D01*
X146928757Y-80619600D01*
X147288571Y-80619600D01*
X147177500Y-80887750D01*
X147177500Y-81418250D01*
X147380513Y-81908367D01*
X147622001Y-82149855D01*
X147622000Y-88601646D01*
X147380513Y-88843133D01*
X147177500Y-89333250D01*
X147177500Y-89863750D01*
X147288571Y-90131900D01*
X146928757Y-90131900D01*
X146777870Y-90031081D01*
X146518556Y-89979500D01*
X144982636Y-89979500D01*
X144430220Y-89427085D01*
X144445490Y-89390220D01*
X144445490Y-88739980D01*
X144196654Y-88139236D01*
X143736864Y-87679446D01*
X143136120Y-87430610D01*
X142485880Y-87430610D01*
X141885136Y-87679446D01*
X141425346Y-88139236D01*
X141351000Y-88318723D01*
X141351000Y-87133855D01*
X141368416Y-87046300D01*
X141351000Y-86958744D01*
X141299419Y-86699430D01*
X141102933Y-86405367D01*
X141028707Y-86355771D01*
X138913020Y-84240085D01*
X138913018Y-84240082D01*
X138842220Y-84169284D01*
X138857490Y-84132420D01*
X138857490Y-83482180D01*
X138608654Y-82881436D01*
X138455018Y-82727800D01*
X139266513Y-82727800D01*
X140706979Y-84168267D01*
X140756575Y-84242493D01*
X141050638Y-84438979D01*
X141309952Y-84490560D01*
X141397507Y-84507976D01*
X141415784Y-84504340D01*
X141425346Y-84527424D01*
X141885136Y-84987214D01*
X142485880Y-85236050D01*
X143136120Y-85236050D01*
X143736864Y-84987214D01*
X144196654Y-84527424D01*
X144445490Y-83926680D01*
X144445490Y-83276440D01*
X144196654Y-82675696D01*
X143736864Y-82215906D01*
X143136120Y-81967070D01*
X142485880Y-81967070D01*
X141885136Y-82215906D01*
X141577113Y-82523929D01*
X140325279Y-81272096D01*
X140275681Y-81197867D01*
X139981618Y-81001381D01*
X139722304Y-80949800D01*
X139722303Y-80949800D01*
X139634748Y-80932384D01*
X139547193Y-80949800D01*
X136434756Y-80949800D01*
X136347200Y-80932384D01*
X136000329Y-81001381D01*
X135801983Y-81133912D01*
X135706267Y-81197867D01*
X135656671Y-81272094D01*
X134624796Y-82303969D01*
X134550567Y-82353567D01*
X134354081Y-82647631D01*
X134330906Y-82764141D01*
X134285084Y-82994500D01*
X134302500Y-83082055D01*
X134302501Y-84303941D01*
X134285084Y-84391500D01*
X134353046Y-84733164D01*
X134354082Y-84738370D01*
X134550568Y-85032433D01*
X134624794Y-85082029D01*
X137039414Y-87496650D01*
X136643880Y-87496650D01*
X136043136Y-87745486D01*
X135583346Y-88205276D01*
X135568076Y-88242140D01*
X133968415Y-88242140D01*
X133880860Y-88224724D01*
X133793305Y-88242140D01*
X133793304Y-88242140D01*
X133533990Y-88293721D01*
X133239927Y-88490207D01*
X133190329Y-88564436D01*
X133045265Y-88709500D01*
X132273248Y-88709500D01*
X132261857Y-88652235D01*
X132121509Y-88442191D01*
X131911465Y-88301843D01*
X131663700Y-88252560D01*
X130266700Y-88252560D01*
X130018935Y-88301843D01*
X129808891Y-88442191D01*
X129668543Y-88652235D01*
X129619260Y-88900000D01*
X129619260Y-88996612D01*
X129555687Y-88843133D01*
X129301500Y-88588946D01*
X129301500Y-82342894D01*
X129542987Y-82101407D01*
X129746000Y-81611290D01*
X129746000Y-81080790D01*
X129542987Y-80590673D01*
X129167867Y-80215553D01*
X128831053Y-80076040D01*
X129167867Y-79936527D01*
X129542987Y-79561407D01*
X129606560Y-79407928D01*
X129606560Y-79504540D01*
X129655843Y-79752305D01*
X129796191Y-79962349D01*
X130006235Y-80102697D01*
X130254000Y-80151980D01*
X131651000Y-80151980D01*
X131898765Y-80102697D01*
X132108809Y-79962349D01*
X132249157Y-79752305D01*
X132260548Y-79695040D01*
X135822076Y-79695040D01*
X135837346Y-79731904D01*
X136297136Y-80191694D01*
X136897880Y-80440530D01*
X137548120Y-80440530D01*
X138148864Y-80191694D01*
X138608654Y-79731904D01*
X138857490Y-79131160D01*
X138857490Y-78480920D01*
X138608654Y-77880176D01*
X138148864Y-77420386D01*
X137548120Y-77171550D01*
X136897880Y-77171550D01*
X136297136Y-77420386D01*
X135837346Y-77880176D01*
X135822076Y-77917040D01*
X132260548Y-77917040D01*
X132249157Y-77859775D01*
X132108809Y-77649731D01*
X131898765Y-77509383D01*
X131651000Y-77460100D01*
X130649941Y-77460100D01*
X130635000Y-77384985D01*
X130635000Y-75819000D01*
X148816001Y-75819000D01*
X148816001Y-77050763D01*
X148816001Y-77050763D01*
G37*
X148816001Y-77050763D02*
X148587264Y-77279500D01*
X148245750Y-77279500D01*
X147755633Y-77482513D01*
X147380513Y-77857633D01*
X147177500Y-78347750D01*
X147177500Y-78878250D01*
X147288571Y-79146400D01*
X146928757Y-79146400D01*
X146777870Y-79045581D01*
X146518556Y-78994000D01*
X145973736Y-78994000D01*
X145013331Y-78033596D01*
X144963733Y-77959367D01*
X144669670Y-77762881D01*
X144410356Y-77711300D01*
X144410355Y-77711300D01*
X144322800Y-77693884D01*
X144235245Y-77711300D01*
X144211924Y-77711300D01*
X144196654Y-77674436D01*
X143736864Y-77214646D01*
X143136120Y-76965810D01*
X142485880Y-76965810D01*
X141885136Y-77214646D01*
X141425346Y-77674436D01*
X141176510Y-78275180D01*
X141176510Y-78925420D01*
X141425346Y-79526164D01*
X141885136Y-79985954D01*
X142485880Y-80234790D01*
X143136120Y-80234790D01*
X143736864Y-79985954D01*
X144094041Y-79628777D01*
X144914971Y-80449707D01*
X144964567Y-80523933D01*
X145258630Y-80720419D01*
X145517944Y-80772000D01*
X145517945Y-80772000D01*
X145605500Y-80789416D01*
X145693055Y-80772000D01*
X146518556Y-80772000D01*
X146777870Y-80720419D01*
X146928757Y-80619600D01*
X147288571Y-80619600D01*
X147177500Y-80887750D01*
X147177500Y-81418250D01*
X147380513Y-81908367D01*
X147622001Y-82149855D01*
X147622000Y-88601646D01*
X147380513Y-88843133D01*
X147177500Y-89333250D01*
X147177500Y-89863750D01*
X147288571Y-90131900D01*
X146928757Y-90131900D01*
X146777870Y-90031081D01*
X146518556Y-89979500D01*
X144982636Y-89979500D01*
X144430220Y-89427085D01*
X144445490Y-89390220D01*
X144445490Y-88739980D01*
X144196654Y-88139236D01*
X143736864Y-87679446D01*
X143136120Y-87430610D01*
X142485880Y-87430610D01*
X141885136Y-87679446D01*
X141425346Y-88139236D01*
X141351000Y-88318723D01*
X141351000Y-87133855D01*
X141368416Y-87046300D01*
X141351000Y-86958744D01*
X141299419Y-86699430D01*
X141102933Y-86405367D01*
X141028707Y-86355771D01*
X138913020Y-84240085D01*
X138913018Y-84240082D01*
X138842220Y-84169284D01*
X138857490Y-84132420D01*
X138857490Y-83482180D01*
X138608654Y-82881436D01*
X138455018Y-82727800D01*
X139266513Y-82727800D01*
X140706979Y-84168267D01*
X140756575Y-84242493D01*
X141050638Y-84438979D01*
X141309952Y-84490560D01*
X141397507Y-84507976D01*
X141415784Y-84504340D01*
X141425346Y-84527424D01*
X141885136Y-84987214D01*
X142485880Y-85236050D01*
X143136120Y-85236050D01*
X143736864Y-84987214D01*
X144196654Y-84527424D01*
X144445490Y-83926680D01*
X144445490Y-83276440D01*
X144196654Y-82675696D01*
X143736864Y-82215906D01*
X143136120Y-81967070D01*
X142485880Y-81967070D01*
X141885136Y-82215906D01*
X141577113Y-82523929D01*
X140325279Y-81272096D01*
X140275681Y-81197867D01*
X139981618Y-81001381D01*
X139722304Y-80949800D01*
X139722303Y-80949800D01*
X139634748Y-80932384D01*
X139547193Y-80949800D01*
X136434756Y-80949800D01*
X136347200Y-80932384D01*
X136000329Y-81001381D01*
X135801983Y-81133912D01*
X135706267Y-81197867D01*
X135656671Y-81272094D01*
X134624796Y-82303969D01*
X134550567Y-82353567D01*
X134354081Y-82647631D01*
X134330906Y-82764141D01*
X134285084Y-82994500D01*
X134302500Y-83082055D01*
X134302501Y-84303941D01*
X134285084Y-84391500D01*
X134353046Y-84733164D01*
X134354082Y-84738370D01*
X134550568Y-85032433D01*
X134624794Y-85082029D01*
X137039414Y-87496650D01*
X136643880Y-87496650D01*
X136043136Y-87745486D01*
X135583346Y-88205276D01*
X135568076Y-88242140D01*
X133968415Y-88242140D01*
X133880860Y-88224724D01*
X133793305Y-88242140D01*
X133793304Y-88242140D01*
X133533990Y-88293721D01*
X133239927Y-88490207D01*
X133190329Y-88564436D01*
X133045265Y-88709500D01*
X132273248Y-88709500D01*
X132261857Y-88652235D01*
X132121509Y-88442191D01*
X131911465Y-88301843D01*
X131663700Y-88252560D01*
X130266700Y-88252560D01*
X130018935Y-88301843D01*
X129808891Y-88442191D01*
X129668543Y-88652235D01*
X129619260Y-88900000D01*
X129619260Y-88996612D01*
X129555687Y-88843133D01*
X129301500Y-88588946D01*
X129301500Y-82342894D01*
X129542987Y-82101407D01*
X129746000Y-81611290D01*
X129746000Y-81080790D01*
X129542987Y-80590673D01*
X129167867Y-80215553D01*
X128831053Y-80076040D01*
X129167867Y-79936527D01*
X129542987Y-79561407D01*
X129606560Y-79407928D01*
X129606560Y-79504540D01*
X129655843Y-79752305D01*
X129796191Y-79962349D01*
X130006235Y-80102697D01*
X130254000Y-80151980D01*
X131651000Y-80151980D01*
X131898765Y-80102697D01*
X132108809Y-79962349D01*
X132249157Y-79752305D01*
X132260548Y-79695040D01*
X135822076Y-79695040D01*
X135837346Y-79731904D01*
X136297136Y-80191694D01*
X136897880Y-80440530D01*
X137548120Y-80440530D01*
X138148864Y-80191694D01*
X138608654Y-79731904D01*
X138857490Y-79131160D01*
X138857490Y-78480920D01*
X138608654Y-77880176D01*
X138148864Y-77420386D01*
X137548120Y-77171550D01*
X136897880Y-77171550D01*
X136297136Y-77420386D01*
X135837346Y-77880176D01*
X135822076Y-77917040D01*
X132260548Y-77917040D01*
X132249157Y-77859775D01*
X132108809Y-77649731D01*
X131898765Y-77509383D01*
X131651000Y-77460100D01*
X130649941Y-77460100D01*
X130635000Y-77384985D01*
X130635000Y-75819000D01*
X148816001Y-75819000D01*
X148816001Y-77050763D01*
G36*
X151715000Y-88252560D02*
X150352500Y-88252560D01*
X150104735Y-88301843D01*
X149894691Y-88442191D01*
X149754343Y-88652235D01*
X149705060Y-88900000D01*
X149705060Y-88996612D01*
X149641487Y-88843133D01*
X149400000Y-88601646D01*
X149400000Y-82149854D01*
X149641487Y-81908367D01*
X149844500Y-81418250D01*
X149844500Y-80887750D01*
X149733429Y-80619600D01*
X150610160Y-80619600D01*
X150682700Y-80634029D01*
X150755240Y-80619600D01*
X150755244Y-80619600D01*
X150970107Y-80576861D01*
X151213758Y-80414058D01*
X151254851Y-80352558D01*
X151520558Y-80086851D01*
X151582058Y-80045758D01*
X151640068Y-79958940D01*
X151715000Y-79958940D01*
X151715000Y-88252560D01*
X151715000Y-88252560D01*
G37*
X151715000Y-88252560D02*
X150352500Y-88252560D01*
X150104735Y-88301843D01*
X149894691Y-88442191D01*
X149754343Y-88652235D01*
X149705060Y-88900000D01*
X149705060Y-88996612D01*
X149641487Y-88843133D01*
X149400000Y-88601646D01*
X149400000Y-82149854D01*
X149641487Y-81908367D01*
X149844500Y-81418250D01*
X149844500Y-80887750D01*
X149733429Y-80619600D01*
X150610160Y-80619600D01*
X150682700Y-80634029D01*
X150755240Y-80619600D01*
X150755244Y-80619600D01*
X150970107Y-80576861D01*
X151213758Y-80414058D01*
X151254851Y-80352558D01*
X151520558Y-80086851D01*
X151582058Y-80045758D01*
X151640068Y-79958940D01*
X151715000Y-79958940D01*
X151715000Y-88252560D01*
G36*
X137655782Y-85497318D02*
X137655785Y-85497320D01*
X139573001Y-87414537D01*
X139573001Y-87514174D01*
X139568207Y-87510971D01*
X137499025Y-85441790D01*
X137548120Y-85441790D01*
X137584984Y-85426520D01*
X137655782Y-85497318D01*
X137655782Y-85497318D01*
G37*
X137655782Y-85497318D02*
X137655785Y-85497320D01*
X139573001Y-87414537D01*
X139573001Y-87514174D01*
X139568207Y-87510971D01*
X137499025Y-85441790D01*
X137548120Y-85441790D01*
X137584984Y-85426520D01*
X137655782Y-85497318D01*
G36*
X127993947Y-80076040D02*
X127748500Y-80177708D01*
X127748500Y-79974372D01*
X127993947Y-80076040D01*
X127993947Y-80076040D01*
G37*
X127993947Y-80076040D02*
X127748500Y-80177708D01*
X127748500Y-79974372D01*
X127993947Y-80076040D01*
G36*
X128857000Y-77104304D02*
X128488764Y-77472540D01*
X128147250Y-77472540D01*
X127748500Y-77637708D01*
X127748500Y-75819000D01*
X128857000Y-75819000D01*
X128857000Y-77104304D01*
X128857000Y-77104304D01*
G37*
X128857000Y-77104304D02*
X128488764Y-77472540D01*
X128147250Y-77472540D01*
X127748500Y-77637708D01*
X127748500Y-75819000D01*
X128857000Y-75819000D01*
X128857000Y-77104304D01*
G36*
X151715000Y-77267060D02*
X150594000Y-77267060D01*
X150594000Y-75819000D01*
X151715000Y-75819000D01*
X151715000Y-77267060D01*
X151715000Y-77267060D01*
G37*
X151715000Y-77267060D02*
X150594000Y-77267060D01*
X150594000Y-75819000D01*
X151715000Y-75819000D01*
X151715000Y-77267060D01*
M02*
