G04 #@! TF.FileFunction,Copper,L1,Top,Signal*
%FSLAX46Y46*%
G04 Gerber Fmt 4.6, Leading zero omitted, Abs format (unit mm)*
G04 Created by KiCad (PCBNEW (after 2015-mar-04 BZR unknown)-product) date Wed 09 Sep 2015 12:39:13 PM PDT*
%MOMM*%
G01*
G04 APERTURE LIST*
%ADD10C,0.100000*%
%ADD11R,1.397000X1.397000*%
%ADD12C,1.397000*%
%ADD13C,1.676400*%
%ADD14C,1.998980*%
%ADD15C,4.064000*%
%ADD16C,3.810000*%
%ADD17C,0.508000*%
%ADD18C,0.203200*%
%ADD19C,0.254000*%
G04 APERTURE END LIST*
D10*
D11*
X151511000Y-78613000D03*
D12*
X148971000Y-78613000D03*
X148971000Y-81153000D03*
D13*
X136080500Y-109855000D03*
X136080500Y-112395000D03*
X142176500Y-109728000D03*
X142176500Y-112268000D03*
D11*
X129286000Y-100012500D03*
D12*
X126746000Y-100012500D03*
X126746000Y-102552500D03*
D11*
X129286000Y-89598500D03*
D12*
X126746000Y-89598500D03*
X126746000Y-92138500D03*
D11*
X151511000Y-89598500D03*
D12*
X148971000Y-89598500D03*
X148971000Y-92138500D03*
D11*
X129273300Y-78806040D03*
D12*
X126733300Y-78806040D03*
X126733300Y-81346040D03*
D11*
X151511000Y-100012500D03*
D12*
X148971000Y-100012500D03*
X148971000Y-102552500D03*
D14*
X136080500Y-100243640D03*
X136080500Y-105244900D03*
X142176500Y-83601560D03*
X142176500Y-78600300D03*
X136334500Y-89131140D03*
X136334500Y-94132400D03*
X142176500Y-94066360D03*
X142176500Y-89065100D03*
X136588500Y-78806040D03*
X136588500Y-83807300D03*
X142176500Y-100243640D03*
X142176500Y-105244900D03*
D15*
X142176500Y-71374000D03*
X136588500Y-71310500D03*
D16*
X132524500Y-115900200D03*
X145224500Y-115900200D03*
D17*
X142176500Y-83601560D02*
X140374369Y-81799429D01*
X141177011Y-95065849D02*
X142176500Y-94066360D01*
X140374369Y-81799429D02*
X135551061Y-81799429D01*
X135551061Y-81799429D02*
X134517129Y-82833361D01*
X134979561Y-95949771D02*
X140293089Y-95949771D01*
X134517129Y-82833361D02*
X134517129Y-84400239D01*
X134517129Y-84400239D02*
X138248381Y-88131491D01*
X138248381Y-88131491D02*
X138248381Y-89744709D01*
X138248381Y-89744709D02*
X134199629Y-93793461D01*
X140293089Y-95949771D02*
X141177011Y-95065849D01*
X134199629Y-93793461D02*
X134199629Y-95169839D01*
X134199629Y-95169839D02*
X134979561Y-95949771D01*
X142176500Y-94066360D02*
X142176500Y-95479852D01*
X142176500Y-95479852D02*
X142176500Y-100243640D01*
X132524500Y-115900200D02*
X126746000Y-110121700D01*
X126746000Y-110121700D02*
X126746000Y-102552500D01*
X126746000Y-102552500D02*
X139867640Y-102552500D01*
X139867640Y-102552500D02*
X142176500Y-100243640D01*
X136334500Y-94132400D02*
X139665098Y-94132400D01*
X139665098Y-94132400D02*
X141383409Y-92414089D01*
X141383409Y-92414089D02*
X142969591Y-92414089D01*
X136334500Y-94132400D02*
X138052811Y-92414089D01*
X142969591Y-92414089D02*
X143828771Y-93273269D01*
X138430000Y-106546038D02*
X138430000Y-110045500D01*
X143828771Y-93273269D02*
X143828771Y-101147267D01*
X143828771Y-101147267D02*
X138430000Y-106546038D01*
X138430000Y-110045500D02*
X136918699Y-111556801D01*
X136918699Y-111556801D02*
X136080500Y-112395000D01*
X136588500Y-83807300D02*
X139256771Y-86475571D01*
X139256771Y-86475571D02*
X139256771Y-91210129D01*
X137333989Y-93132911D02*
X136334500Y-94132400D01*
X139256771Y-91210129D02*
X137333989Y-93132911D01*
X145224500Y-115900200D02*
X139585700Y-115900200D01*
X139585700Y-115900200D02*
X136080500Y-112395000D01*
X145224500Y-115900200D02*
X148971000Y-112153700D01*
X148971000Y-112153700D02*
X148971000Y-102552500D01*
X136080500Y-105244900D02*
X136080500Y-109855000D01*
X142176500Y-105244900D02*
X142176500Y-109728000D01*
X146812000Y-102108000D02*
X146812000Y-107632500D01*
X146812000Y-107632500D02*
X142176500Y-112268000D01*
X147566381Y-101353619D02*
X146812000Y-102108000D01*
X151511000Y-100012500D02*
X151511000Y-100914200D01*
X151511000Y-100914200D02*
X151071581Y-101353619D01*
D18*
X151071581Y-101353619D02*
X147566381Y-101353619D01*
D17*
X126746000Y-92138500D02*
X126746000Y-93126328D01*
X126746000Y-93126328D02*
X126746000Y-100012500D01*
X148971000Y-78613000D02*
X148971000Y-78168500D01*
X144462141Y-72399695D02*
X144437226Y-72290538D01*
X145059890Y-75671604D02*
X145048576Y-75660290D01*
X148530518Y-76331533D02*
X148429642Y-76282954D01*
X144330154Y-74234761D02*
X144242617Y-74304570D01*
X144462141Y-72511660D02*
X144462141Y-72399695D01*
X148699178Y-76500193D02*
X148629370Y-76412656D01*
X148971000Y-78168500D02*
X148629370Y-77826870D01*
X148486067Y-77417334D02*
X148510981Y-77308177D01*
X148629370Y-77826870D02*
X148559561Y-77739332D01*
X148747758Y-76931349D02*
X148772672Y-76822191D01*
X146771676Y-74821195D02*
X146662519Y-74846110D01*
X146342118Y-76687599D02*
X146367033Y-76578442D01*
X143493345Y-73704754D02*
X143541924Y-73603877D01*
X148747758Y-76601070D02*
X148699178Y-76500193D01*
X148559561Y-77739332D02*
X148510981Y-77638456D01*
X147310914Y-75164226D02*
X147262335Y-75063350D01*
X148510981Y-77638456D02*
X148486067Y-77529298D01*
X145874070Y-74057661D02*
X145898985Y-73948504D01*
X145147429Y-75741414D02*
X145059890Y-75671604D01*
X148429642Y-76282954D02*
X148320485Y-76258039D01*
X144905274Y-75250755D02*
X144930189Y-75141598D01*
X145755682Y-74246075D02*
X145825491Y-74158538D01*
X143788831Y-71972422D02*
X143687954Y-72021001D01*
X148486067Y-77529298D02*
X148486067Y-77417334D01*
X143710585Y-74304570D02*
X143623046Y-74234760D01*
X148510981Y-77308177D02*
X148559561Y-77207300D01*
X144437226Y-72290538D02*
X144388647Y-72189662D01*
X148618056Y-76401342D02*
X148530518Y-76331533D01*
X146794305Y-77251751D02*
X146685148Y-77226836D01*
X148559561Y-77207300D02*
X148699178Y-77032225D01*
X145898985Y-73836539D02*
X145874070Y-73727382D01*
X144242617Y-74304570D02*
X144141740Y-74353149D01*
X143623046Y-74234760D02*
X143611732Y-74223446D01*
X148699178Y-77032225D02*
X148747758Y-76931349D01*
X145656830Y-73457845D02*
X145555954Y-73409266D01*
X148629370Y-76412656D02*
X148618056Y-76401342D01*
X146367033Y-76578442D02*
X146415612Y-76477565D01*
X144388647Y-72721694D02*
X144437226Y-72620817D01*
X148208520Y-76258039D02*
X148099363Y-76282954D01*
X148772672Y-76822191D02*
X148772672Y-76710227D01*
X148772672Y-76710227D02*
X148747758Y-76601070D01*
X148320485Y-76258039D02*
X148208520Y-76258039D01*
X148099363Y-76282954D02*
X147998486Y-76331533D01*
X147015428Y-77226837D02*
X146906271Y-77251752D01*
X144978768Y-75572753D02*
X144930188Y-75471876D01*
X146496734Y-77108448D02*
X146485420Y-77097134D01*
X147998486Y-76331533D02*
X147910949Y-76401342D01*
X145225675Y-73409266D02*
X145124798Y-73457845D01*
X147910949Y-76401342D02*
X147203842Y-77108449D01*
X147335829Y-75273383D02*
X147310914Y-75164226D01*
X145679461Y-75741414D02*
X145578584Y-75789993D01*
X147203842Y-77108449D02*
X147116305Y-77178258D01*
X145048577Y-74953184D02*
X145755682Y-74246075D01*
X147116305Y-77178258D02*
X147015428Y-77226837D01*
X146906271Y-77251752D02*
X146794305Y-77251751D01*
X144307524Y-72090810D02*
X144219986Y-72021001D01*
X146685148Y-77226836D02*
X146584273Y-77178258D01*
X143611733Y-73516340D02*
X144318838Y-72809231D01*
X146584273Y-77178258D02*
X146496734Y-77108448D01*
X145037261Y-73527654D02*
X144330154Y-74234761D01*
X146485420Y-77097134D02*
X146415612Y-77009597D01*
X144141740Y-74353149D02*
X144032583Y-74378064D01*
X144219986Y-72021001D02*
X144119110Y-71972422D01*
X145578584Y-75789993D02*
X145469427Y-75814908D01*
X143512879Y-72160618D02*
X143412003Y-72209198D01*
X146415612Y-77009597D02*
X146367032Y-76908720D01*
X145248304Y-75789992D02*
X145147429Y-75741414D01*
X143493344Y-74035032D02*
X143468429Y-73925875D01*
X146367032Y-76908720D02*
X146342117Y-76799563D01*
X146342117Y-76799563D02*
X146342118Y-76687599D01*
X146992798Y-74846110D02*
X146883641Y-74821195D01*
X146415612Y-76477565D02*
X146485421Y-76390028D01*
X146485421Y-76390028D02*
X147192526Y-75682919D01*
X143541924Y-74135909D02*
X143493344Y-74035032D01*
X147181212Y-74964498D02*
X147093674Y-74894689D01*
X143687954Y-72021001D02*
X143512879Y-72160618D01*
X146474105Y-74964498D02*
X145766998Y-75671605D01*
X147192526Y-75682919D02*
X147262335Y-75595382D01*
X145898985Y-73948504D02*
X145898985Y-73836539D01*
X147262335Y-75595382D02*
X147310914Y-75494505D01*
X146662519Y-74846110D02*
X146561642Y-74894689D01*
X147192526Y-74975812D02*
X147181212Y-74964498D01*
X147310914Y-75494505D02*
X147335829Y-75385348D01*
X143541924Y-73603877D02*
X143611733Y-73516340D01*
X147262335Y-75063350D02*
X147192526Y-74975812D01*
X147335829Y-75385348D02*
X147335829Y-75273383D01*
X147093674Y-74894689D02*
X146992798Y-74846110D01*
X146883641Y-74821195D02*
X146771676Y-74821195D01*
X146561642Y-74894689D02*
X146474105Y-74964498D01*
X145766998Y-75671605D02*
X145679461Y-75741414D01*
X145357461Y-75814907D02*
X145248304Y-75789992D01*
X145469427Y-75814908D02*
X145357461Y-75814907D01*
X145048576Y-75660290D02*
X144978768Y-75572753D01*
X144930188Y-75471876D02*
X144905273Y-75362719D01*
X144905273Y-75362719D02*
X144905274Y-75250755D01*
X145555954Y-73409266D02*
X145446797Y-73384351D01*
X142893310Y-72090810D02*
X142176500Y-71374000D01*
X144930189Y-75141598D02*
X144978768Y-75040721D01*
X144388647Y-72189662D02*
X144318838Y-72102124D01*
X144978768Y-75040721D02*
X145048577Y-74953184D01*
X145825491Y-73626506D02*
X145755682Y-73538968D01*
X145825491Y-74158538D02*
X145874070Y-74057661D01*
X145874070Y-73727382D02*
X145825491Y-73626506D01*
X143611732Y-74223446D02*
X143541924Y-74135909D01*
X145755682Y-73538968D02*
X145744368Y-73527654D01*
X145744368Y-73527654D02*
X145656830Y-73457845D01*
X145446797Y-73384351D02*
X145334832Y-73384351D01*
X145334832Y-73384351D02*
X145225675Y-73409266D01*
X145124798Y-73457845D02*
X145037261Y-73527654D01*
X144032583Y-74378064D02*
X143920617Y-74378063D01*
X144318838Y-72102124D02*
X144307524Y-72090810D01*
X143920617Y-74378063D02*
X143811460Y-74353148D01*
X143811460Y-74353148D02*
X143710585Y-74304570D01*
X143468429Y-73925875D02*
X143468430Y-73813911D01*
X143468430Y-73813911D02*
X143493345Y-73704754D01*
X144318838Y-72809231D02*
X144388647Y-72721694D01*
X144437226Y-72620817D02*
X144462141Y-72511660D01*
X144119110Y-71972422D02*
X144009953Y-71947507D01*
X144009953Y-71947507D02*
X143897988Y-71947507D01*
X143897988Y-71947507D02*
X143788831Y-71972422D01*
X143412003Y-72209198D02*
X143302845Y-72234112D01*
X143302845Y-72234112D02*
X143190881Y-72234112D01*
X143190881Y-72234112D02*
X143081724Y-72209198D01*
X143081724Y-72209198D02*
X142980847Y-72160618D01*
X142980847Y-72160618D02*
X142893310Y-72090810D01*
X126733300Y-81346040D02*
X126733300Y-89585800D01*
X126733300Y-89585800D02*
X126746000Y-89598500D01*
X127879264Y-76245864D02*
X127966801Y-76176056D01*
X126733300Y-78806040D02*
X127450050Y-78089290D01*
X127463180Y-78078818D02*
X127478312Y-78071531D01*
X127569246Y-78099761D02*
X127584378Y-78107048D01*
X132576689Y-74222596D02*
X132685846Y-74197681D01*
X131271634Y-73253799D02*
X131372511Y-73302378D01*
X127450050Y-78089290D02*
X127463180Y-78078818D01*
X127527853Y-78071531D02*
X127542985Y-78078818D01*
X132896887Y-71935348D02*
X132984426Y-72005156D01*
X127617546Y-78110785D02*
X127633919Y-78107048D01*
X127478312Y-78071531D02*
X127494685Y-78067794D01*
X133603995Y-71935347D02*
X134228840Y-71310500D01*
X128292294Y-77448673D02*
X128296031Y-77432299D01*
X128274536Y-77476935D02*
X128285007Y-77463804D01*
X128397956Y-76127477D02*
X128498833Y-76176056D01*
X132786722Y-74149102D02*
X132874260Y-74079293D01*
X127494685Y-78067794D02*
X127511480Y-78067794D01*
X132254690Y-74149102D02*
X132355567Y-74197681D01*
X127724646Y-76554749D02*
X127749561Y-76445592D01*
X128288799Y-76102562D02*
X128397956Y-76127477D01*
X129913044Y-77022780D02*
X130000582Y-76952971D01*
X127662182Y-78089290D02*
X128274536Y-77476935D01*
X129186400Y-75008753D02*
X129234980Y-74907876D01*
X130081704Y-76322087D02*
X130011895Y-76234550D01*
X129316103Y-74809025D02*
X129403640Y-74739217D01*
X130752942Y-73372186D02*
X130840479Y-73302378D01*
X131460048Y-73372187D02*
X132167153Y-74079293D01*
X127511480Y-78067794D02*
X127527853Y-78071531D01*
X131139850Y-75659435D02*
X131249007Y-75634520D01*
X133415580Y-72053737D02*
X133516458Y-72005156D01*
X130840479Y-73302378D02*
X130941356Y-73253798D01*
X127542985Y-78078818D02*
X127569246Y-78099761D01*
X130671819Y-74003069D02*
X130623240Y-73902192D01*
X129504517Y-74690637D02*
X129613674Y-74665722D01*
X129234980Y-74907876D02*
X129304788Y-74820339D01*
X127798141Y-76876747D02*
X127749562Y-76775870D01*
X131518543Y-75417280D02*
X131567122Y-75316404D01*
X127584378Y-78107048D02*
X127600751Y-78110785D01*
X127600751Y-78110785D02*
X127617546Y-78110785D01*
X127867949Y-76257178D02*
X127879264Y-76245864D01*
X127633919Y-78107048D02*
X127649051Y-78099761D01*
X130155198Y-76532121D02*
X130130283Y-76422964D01*
X127649051Y-78099761D02*
X127662182Y-78089290D01*
X131437421Y-75516132D02*
X131448734Y-75504818D01*
X128067678Y-76127476D02*
X128176835Y-76102561D01*
X128176835Y-76102561D02*
X128288799Y-76102562D01*
X127867950Y-76964284D02*
X127798141Y-76876747D01*
X129481889Y-77071359D02*
X129591046Y-77096274D01*
X128285007Y-77384000D02*
X128274536Y-77370869D01*
X128285007Y-77463804D02*
X128292294Y-77448673D01*
X128296031Y-77432299D02*
X128296031Y-77415505D01*
X128296031Y-77415505D02*
X128292294Y-77399131D01*
X130623239Y-73571914D02*
X130671819Y-73471037D01*
X128292294Y-77399131D02*
X128285007Y-77384000D01*
X129812168Y-77071359D02*
X129913044Y-77022780D01*
X128274536Y-77370869D02*
X127867950Y-76964284D01*
X127749562Y-76775870D02*
X127724647Y-76666713D01*
X130130283Y-76753243D02*
X130155198Y-76644086D01*
X127724647Y-76666713D02*
X127724646Y-76554749D01*
X130598324Y-73681071D02*
X130623239Y-73571914D01*
X127749561Y-76445592D02*
X127798141Y-76344715D01*
X127798141Y-76344715D02*
X127867949Y-76257178D01*
X133516458Y-72005156D02*
X133603995Y-71935347D01*
X127966801Y-76176056D02*
X128067678Y-76127476D01*
X128498833Y-76176056D02*
X128586370Y-76245865D01*
X129591046Y-77096274D02*
X129703011Y-77096274D01*
X128586370Y-76245865D02*
X129293475Y-76952971D01*
X131592037Y-75207247D02*
X131592037Y-75095282D01*
X129293475Y-76952971D02*
X129381012Y-77022780D01*
X129381012Y-77022780D02*
X129481889Y-77071359D01*
X133028876Y-73770408D02*
X133028876Y-73658443D01*
X129725638Y-74665723D02*
X129834795Y-74690638D01*
X129703011Y-77096274D02*
X129812168Y-77071359D01*
X129161485Y-75117910D02*
X129186400Y-75008753D01*
X132108658Y-72034198D02*
X132178466Y-71946661D01*
X129613674Y-74665722D02*
X129725638Y-74665723D01*
X130011895Y-76941657D02*
X130081704Y-76854119D01*
X130081704Y-76854119D02*
X130130283Y-76753243D01*
X130000582Y-76952971D02*
X130011895Y-76941657D01*
X130155198Y-76644086D02*
X130155198Y-76532121D01*
X132885573Y-74067979D02*
X132955382Y-73980441D01*
X130130283Y-76422964D02*
X130081704Y-76322087D01*
X130011895Y-76234550D02*
X129304789Y-75527445D01*
X130941356Y-73253798D02*
X131050513Y-73228883D01*
X129186401Y-75339031D02*
X129161486Y-75229874D01*
X129304789Y-75527445D02*
X129234980Y-75439908D01*
X129234980Y-75439908D02*
X129186401Y-75339031D01*
X129935672Y-74739217D02*
X130023209Y-74809026D01*
X129161486Y-75229874D02*
X129161485Y-75117910D01*
X129304788Y-74820339D02*
X129316103Y-74809025D01*
X129403640Y-74739217D02*
X129504517Y-74690637D01*
X129834795Y-74690638D02*
X129935672Y-74739217D01*
X132955382Y-73448409D02*
X132885573Y-73360872D01*
X130023209Y-74809026D02*
X130730314Y-75516132D01*
X130598325Y-73793035D02*
X130598324Y-73681071D01*
X130730314Y-75516132D02*
X130817851Y-75585941D01*
X130741627Y-73383500D02*
X130752942Y-73372186D01*
X130817851Y-75585941D02*
X130918728Y-75634520D01*
X130918728Y-75634520D02*
X131027885Y-75659435D01*
X131027885Y-75659435D02*
X131139850Y-75659435D01*
X132874260Y-74079293D02*
X132885573Y-74067979D01*
X131249007Y-75634520D02*
X131349883Y-75585941D01*
X131349883Y-75585941D02*
X131437421Y-75516132D01*
X131448734Y-75504818D02*
X131518543Y-75417280D01*
X131567122Y-75316404D02*
X131592037Y-75207247D01*
X131592037Y-75095282D02*
X131567122Y-74986125D01*
X131567122Y-74986125D02*
X131518543Y-74885248D01*
X131518543Y-74885248D02*
X131448734Y-74797711D01*
X131448734Y-74797711D02*
X130741628Y-74090606D01*
X130741628Y-74090606D02*
X130671819Y-74003069D01*
X132178466Y-71946661D02*
X132189781Y-71935347D01*
X130623240Y-73902192D02*
X130598325Y-73793035D01*
X130671819Y-73471037D02*
X130741627Y-73383500D01*
X131050513Y-73228883D02*
X131162477Y-73228884D01*
X131162477Y-73228884D02*
X131271634Y-73253799D01*
X131372511Y-73302378D02*
X131460048Y-73372187D01*
X132167153Y-74079293D02*
X132254690Y-74149102D01*
X132060078Y-72135075D02*
X132108658Y-72034198D01*
X132355567Y-74197681D02*
X132464724Y-74222596D01*
X133028876Y-73658443D02*
X133003961Y-73549286D01*
X132035164Y-72356196D02*
X132035163Y-72244232D01*
X132464724Y-74222596D02*
X132576689Y-74222596D01*
X132685846Y-74197681D02*
X132786722Y-74149102D01*
X132955382Y-73980441D02*
X133003961Y-73879565D01*
X132060079Y-72465353D02*
X132035164Y-72356196D01*
X133003961Y-73879565D02*
X133028876Y-73770408D01*
X133003961Y-73549286D02*
X132955382Y-73448409D01*
X132885573Y-73360872D02*
X132178467Y-72653767D01*
X132178467Y-72653767D02*
X132108658Y-72566230D01*
X132108658Y-72566230D02*
X132060079Y-72465353D01*
X132035163Y-72244232D02*
X132060078Y-72135075D01*
X132189781Y-71935347D02*
X132277318Y-71865539D01*
X132277318Y-71865539D02*
X132378195Y-71816959D01*
X132378195Y-71816959D02*
X132487352Y-71792044D01*
X132487352Y-71792044D02*
X132599316Y-71792045D01*
X132599316Y-71792045D02*
X132708473Y-71816960D01*
X133194460Y-72078650D02*
X133306424Y-72078650D01*
X132708473Y-71816960D02*
X132809350Y-71865539D01*
X132809350Y-71865539D02*
X132896887Y-71935348D01*
X132984426Y-72005156D02*
X133085302Y-72053736D01*
X133085302Y-72053736D02*
X133194460Y-72078650D01*
X133306424Y-72078650D02*
X133415580Y-72053737D01*
X134228840Y-71310500D02*
X136508672Y-71310500D01*
X136508672Y-71310500D02*
X136588500Y-71310500D01*
X148971000Y-89598500D02*
X148971000Y-81153000D01*
X132016500Y-100012500D02*
X132247640Y-100243640D01*
X132247640Y-100243640D02*
X136080500Y-100243640D01*
X129286000Y-100012500D02*
X132016500Y-100012500D01*
D18*
X147619719Y-79261616D02*
X148312222Y-79954119D01*
X148312222Y-79954119D02*
X151071581Y-79954119D01*
X151071581Y-79954119D02*
X151511000Y-79514700D01*
X151511000Y-79514700D02*
X151511000Y-78613000D01*
D17*
X142176500Y-78600300D02*
X146958403Y-78600300D01*
X146958403Y-78600300D02*
X147619719Y-79261616D01*
X132778500Y-89598500D02*
X133245860Y-89131140D01*
X133245860Y-89131140D02*
X136334500Y-89131140D01*
X129286000Y-89598500D02*
X132778500Y-89598500D01*
X147193000Y-90170000D02*
X143281400Y-90170000D01*
X143281400Y-90170000D02*
X142176500Y-89065100D01*
X147883881Y-90860881D02*
X147193000Y-90170000D01*
X151511000Y-89598500D02*
X150745345Y-89598500D01*
D18*
X150745345Y-89598500D02*
X149482964Y-90860881D01*
X149482964Y-90860881D02*
X147883881Y-90860881D01*
D17*
X129273300Y-78806040D02*
X130479800Y-78806040D01*
X130479800Y-78806040D02*
X136588500Y-78806040D01*
X148971000Y-100012500D02*
X148971000Y-99024672D01*
X148971000Y-99024672D02*
X148971000Y-92138500D01*
D19*
G36*
X129962731Y-117552000D02*
X123811500Y-117552000D01*
X123811500Y-81407000D01*
X124890690Y-81407000D01*
X124889380Y-81500878D01*
X124954572Y-81856082D01*
X125087515Y-82191859D01*
X125283146Y-82495418D01*
X125336300Y-82550460D01*
X125336300Y-88401444D01*
X125328504Y-88409079D01*
X125124473Y-88707058D01*
X124982206Y-89038992D01*
X124907122Y-89392237D01*
X124902080Y-89753338D01*
X124967272Y-90108542D01*
X125100215Y-90444319D01*
X125295846Y-90747878D01*
X125411580Y-90867724D01*
X125328504Y-90949079D01*
X125124473Y-91247058D01*
X124982206Y-91578992D01*
X124907122Y-91932237D01*
X124902080Y-92293338D01*
X124967272Y-92648542D01*
X125100215Y-92984319D01*
X125295846Y-93287878D01*
X125349000Y-93342920D01*
X125349000Y-98803007D01*
X125328504Y-98823079D01*
X125124473Y-99121058D01*
X124982206Y-99452992D01*
X124907122Y-99806237D01*
X124902080Y-100167338D01*
X124967272Y-100522542D01*
X125100215Y-100858319D01*
X125295846Y-101161878D01*
X125411580Y-101281724D01*
X125328504Y-101363079D01*
X125124473Y-101661058D01*
X124982206Y-101992992D01*
X124907122Y-102346237D01*
X124902080Y-102707338D01*
X124967272Y-103062542D01*
X125100215Y-103398319D01*
X125295846Y-103701878D01*
X125349000Y-103756920D01*
X125349000Y-110121700D01*
X125361591Y-110250112D01*
X125372839Y-110378680D01*
X125374889Y-110385737D01*
X125375606Y-110393045D01*
X125412889Y-110516535D01*
X125448905Y-110640501D01*
X125452286Y-110647024D01*
X125454409Y-110654055D01*
X125514988Y-110767989D01*
X125574377Y-110882560D01*
X125578959Y-110888300D01*
X125582409Y-110894788D01*
X125663966Y-110994787D01*
X125744476Y-111095640D01*
X125754559Y-111105864D01*
X125754730Y-111106074D01*
X125754924Y-111106234D01*
X125758172Y-111109528D01*
X129610410Y-114961766D01*
X129605117Y-114974117D01*
X129480839Y-115558799D01*
X129472493Y-116156484D01*
X129580398Y-116744408D01*
X129800442Y-117300176D01*
X129962731Y-117552000D01*
X129962731Y-117552000D01*
G37*
X129962731Y-117552000D02*
X123811500Y-117552000D01*
X123811500Y-81407000D01*
X124890690Y-81407000D01*
X124889380Y-81500878D01*
X124954572Y-81856082D01*
X125087515Y-82191859D01*
X125283146Y-82495418D01*
X125336300Y-82550460D01*
X125336300Y-88401444D01*
X125328504Y-88409079D01*
X125124473Y-88707058D01*
X124982206Y-89038992D01*
X124907122Y-89392237D01*
X124902080Y-89753338D01*
X124967272Y-90108542D01*
X125100215Y-90444319D01*
X125295846Y-90747878D01*
X125411580Y-90867724D01*
X125328504Y-90949079D01*
X125124473Y-91247058D01*
X124982206Y-91578992D01*
X124907122Y-91932237D01*
X124902080Y-92293338D01*
X124967272Y-92648542D01*
X125100215Y-92984319D01*
X125295846Y-93287878D01*
X125349000Y-93342920D01*
X125349000Y-98803007D01*
X125328504Y-98823079D01*
X125124473Y-99121058D01*
X124982206Y-99452992D01*
X124907122Y-99806237D01*
X124902080Y-100167338D01*
X124967272Y-100522542D01*
X125100215Y-100858319D01*
X125295846Y-101161878D01*
X125411580Y-101281724D01*
X125328504Y-101363079D01*
X125124473Y-101661058D01*
X124982206Y-101992992D01*
X124907122Y-102346237D01*
X124902080Y-102707338D01*
X124967272Y-103062542D01*
X125100215Y-103398319D01*
X125295846Y-103701878D01*
X125349000Y-103756920D01*
X125349000Y-110121700D01*
X125361591Y-110250112D01*
X125372839Y-110378680D01*
X125374889Y-110385737D01*
X125375606Y-110393045D01*
X125412889Y-110516535D01*
X125448905Y-110640501D01*
X125452286Y-110647024D01*
X125454409Y-110654055D01*
X125514988Y-110767989D01*
X125574377Y-110882560D01*
X125578959Y-110888300D01*
X125582409Y-110894788D01*
X125663966Y-110994787D01*
X125744476Y-111095640D01*
X125754559Y-111105864D01*
X125754730Y-111106074D01*
X125754924Y-111106234D01*
X125758172Y-111109528D01*
X129610410Y-114961766D01*
X129605117Y-114974117D01*
X129480839Y-115558799D01*
X129472493Y-116156484D01*
X129580398Y-116744408D01*
X129800442Y-117300176D01*
X129962731Y-117552000D01*
G36*
X134683500Y-108449970D02*
X134555469Y-108575347D01*
X134335961Y-108895932D01*
X134182901Y-109253046D01*
X134102121Y-109633089D01*
X134096696Y-110021585D01*
X134166834Y-110403735D01*
X134309862Y-110764984D01*
X134520334Y-111091572D01*
X134550417Y-111122724D01*
X134335961Y-111435932D01*
X134182901Y-111793046D01*
X134102121Y-112173089D01*
X134096696Y-112561585D01*
X134166834Y-112943735D01*
X134309862Y-113304984D01*
X134449795Y-113522118D01*
X133981217Y-113206058D01*
X133430179Y-112974423D01*
X132844644Y-112854230D01*
X132246915Y-112850057D01*
X131659759Y-112962063D01*
X131590144Y-112990188D01*
X128143000Y-109543044D01*
X128143000Y-103949500D01*
X134370766Y-103949500D01*
X134193937Y-104207753D01*
X134028417Y-104593941D01*
X133941060Y-105004923D01*
X133935193Y-105425046D01*
X134011041Y-105838308D01*
X134165714Y-106228966D01*
X134393320Y-106582142D01*
X134683500Y-106882631D01*
X134683500Y-108449970D01*
X134683500Y-108449970D01*
G37*
X134683500Y-108449970D02*
X134555469Y-108575347D01*
X134335961Y-108895932D01*
X134182901Y-109253046D01*
X134102121Y-109633089D01*
X134096696Y-110021585D01*
X134166834Y-110403735D01*
X134309862Y-110764984D01*
X134520334Y-111091572D01*
X134550417Y-111122724D01*
X134335961Y-111435932D01*
X134182901Y-111793046D01*
X134102121Y-112173089D01*
X134096696Y-112561585D01*
X134166834Y-112943735D01*
X134309862Y-113304984D01*
X134449795Y-113522118D01*
X133981217Y-113206058D01*
X133430179Y-112974423D01*
X132844644Y-112854230D01*
X132246915Y-112850057D01*
X131659759Y-112962063D01*
X131590144Y-112990188D01*
X128143000Y-109543044D01*
X128143000Y-103949500D01*
X134370766Y-103949500D01*
X134193937Y-104207753D01*
X134028417Y-104593941D01*
X133941060Y-105004923D01*
X133935193Y-105425046D01*
X134011041Y-105838308D01*
X134165714Y-106228966D01*
X134393320Y-106582142D01*
X134683500Y-106882631D01*
X134683500Y-108449970D01*
G36*
X135356615Y-87215381D02*
X135337090Y-87223270D01*
X134985512Y-87453337D01*
X134698764Y-87734140D01*
X133245860Y-87734140D01*
X133117447Y-87746731D01*
X132988880Y-87757979D01*
X132981822Y-87760029D01*
X132974515Y-87760746D01*
X132851024Y-87798029D01*
X132727059Y-87834045D01*
X132720535Y-87837426D01*
X132713505Y-87839549D01*
X132599570Y-87900128D01*
X132485000Y-87959517D01*
X132479259Y-87964099D01*
X132472772Y-87967549D01*
X132372772Y-88049106D01*
X132271920Y-88129616D01*
X132261695Y-88139699D01*
X132261486Y-88139870D01*
X132261325Y-88140064D01*
X132258032Y-88143312D01*
X132199844Y-88201500D01*
X130885845Y-88201500D01*
X130843687Y-88137819D01*
X130597925Y-87929005D01*
X130303800Y-87796746D01*
X129984500Y-87751470D01*
X128587500Y-87751470D01*
X128402023Y-87766545D01*
X128130300Y-87851510D01*
X128130300Y-82558708D01*
X128134051Y-82555136D01*
X128342222Y-82260035D01*
X128489110Y-81930120D01*
X128569119Y-81577958D01*
X128571506Y-81407000D01*
X133967834Y-81407000D01*
X133529301Y-81845533D01*
X133447420Y-81945215D01*
X133364445Y-82044102D01*
X133360904Y-82050542D01*
X133356244Y-82056216D01*
X133295269Y-82169932D01*
X133233097Y-82283024D01*
X133230876Y-82290023D01*
X133227404Y-82296500D01*
X133189666Y-82419934D01*
X133150657Y-82542908D01*
X133149838Y-82550207D01*
X133147690Y-82557234D01*
X133134651Y-82685598D01*
X133120265Y-82813856D01*
X133120164Y-82828220D01*
X133120138Y-82828485D01*
X133120161Y-82828731D01*
X133120129Y-82833361D01*
X133120129Y-84400239D01*
X133132720Y-84528651D01*
X133143968Y-84657219D01*
X133146018Y-84664276D01*
X133146735Y-84671584D01*
X133184018Y-84795074D01*
X133220034Y-84919040D01*
X133223415Y-84925563D01*
X133225538Y-84932594D01*
X133286117Y-85046528D01*
X133345506Y-85161099D01*
X133350088Y-85166839D01*
X133353538Y-85173327D01*
X133435095Y-85273326D01*
X133515605Y-85374179D01*
X133525688Y-85384403D01*
X133525859Y-85384613D01*
X133526053Y-85384773D01*
X133529301Y-85388067D01*
X135356615Y-87215381D01*
X135356615Y-87215381D01*
G37*
X135356615Y-87215381D02*
X135337090Y-87223270D01*
X134985512Y-87453337D01*
X134698764Y-87734140D01*
X133245860Y-87734140D01*
X133117447Y-87746731D01*
X132988880Y-87757979D01*
X132981822Y-87760029D01*
X132974515Y-87760746D01*
X132851024Y-87798029D01*
X132727059Y-87834045D01*
X132720535Y-87837426D01*
X132713505Y-87839549D01*
X132599570Y-87900128D01*
X132485000Y-87959517D01*
X132479259Y-87964099D01*
X132472772Y-87967549D01*
X132372772Y-88049106D01*
X132271920Y-88129616D01*
X132261695Y-88139699D01*
X132261486Y-88139870D01*
X132261325Y-88140064D01*
X132258032Y-88143312D01*
X132199844Y-88201500D01*
X130885845Y-88201500D01*
X130843687Y-88137819D01*
X130597925Y-87929005D01*
X130303800Y-87796746D01*
X129984500Y-87751470D01*
X128587500Y-87751470D01*
X128402023Y-87766545D01*
X128130300Y-87851510D01*
X128130300Y-82558708D01*
X128134051Y-82555136D01*
X128342222Y-82260035D01*
X128489110Y-81930120D01*
X128569119Y-81577958D01*
X128571506Y-81407000D01*
X133967834Y-81407000D01*
X133529301Y-81845533D01*
X133447420Y-81945215D01*
X133364445Y-82044102D01*
X133360904Y-82050542D01*
X133356244Y-82056216D01*
X133295269Y-82169932D01*
X133233097Y-82283024D01*
X133230876Y-82290023D01*
X133227404Y-82296500D01*
X133189666Y-82419934D01*
X133150657Y-82542908D01*
X133149838Y-82550207D01*
X133147690Y-82557234D01*
X133134651Y-82685598D01*
X133120265Y-82813856D01*
X133120164Y-82828220D01*
X133120138Y-82828485D01*
X133120161Y-82828731D01*
X133120129Y-82833361D01*
X133120129Y-84400239D01*
X133132720Y-84528651D01*
X133143968Y-84657219D01*
X133146018Y-84664276D01*
X133146735Y-84671584D01*
X133184018Y-84795074D01*
X133220034Y-84919040D01*
X133223415Y-84925563D01*
X133225538Y-84932594D01*
X133286117Y-85046528D01*
X133345506Y-85161099D01*
X133350088Y-85166839D01*
X133353538Y-85173327D01*
X133435095Y-85273326D01*
X133515605Y-85374179D01*
X133525688Y-85384403D01*
X133525859Y-85384613D01*
X133526053Y-85384773D01*
X133529301Y-85388067D01*
X135356615Y-87215381D01*
G36*
X139050882Y-103949500D02*
X138180519Y-104819862D01*
X138141472Y-104622656D01*
X137981360Y-104234195D01*
X137792209Y-103949500D01*
X139050882Y-103949500D01*
X139050882Y-103949500D01*
G37*
X139050882Y-103949500D02*
X138180519Y-104819862D01*
X138141472Y-104622656D01*
X137981360Y-104234195D01*
X137792209Y-103949500D01*
X139050882Y-103949500D01*
G36*
X140779500Y-98612853D02*
X140527316Y-98859810D01*
X140289937Y-99206493D01*
X140124417Y-99592681D01*
X140037060Y-100003663D01*
X140031341Y-100413142D01*
X139288984Y-101155500D01*
X138019861Y-101155500D01*
X138123294Y-100923187D01*
X138216381Y-100513465D01*
X138223082Y-100033558D01*
X138141472Y-99621396D01*
X137981360Y-99232935D01*
X137748845Y-98882971D01*
X137452783Y-98584835D01*
X137104451Y-98349882D01*
X136717117Y-98187062D01*
X136305535Y-98102577D01*
X135885381Y-98099643D01*
X135472659Y-98178374D01*
X135083090Y-98335770D01*
X134731512Y-98565837D01*
X134444764Y-98846640D01*
X132784366Y-98846640D01*
X132679928Y-98790640D01*
X132566837Y-98728468D01*
X132559837Y-98726247D01*
X132553361Y-98722775D01*
X132429926Y-98685037D01*
X132306953Y-98646028D01*
X132299653Y-98645209D01*
X132292627Y-98643061D01*
X132164262Y-98630022D01*
X132036005Y-98615636D01*
X132021640Y-98615535D01*
X132021376Y-98615509D01*
X132021129Y-98615532D01*
X132016500Y-98615500D01*
X130885845Y-98615500D01*
X130843687Y-98551819D01*
X130597925Y-98343005D01*
X130303800Y-98210746D01*
X129984500Y-98165470D01*
X128587500Y-98165470D01*
X128402023Y-98180545D01*
X128143000Y-98261539D01*
X128143000Y-93351168D01*
X128146751Y-93347596D01*
X128354922Y-93052495D01*
X128501810Y-92722580D01*
X128581819Y-92370418D01*
X128587579Y-91957932D01*
X128517434Y-91603673D01*
X128443856Y-91425161D01*
X128587500Y-91445530D01*
X129984500Y-91445530D01*
X130169977Y-91430455D01*
X130477774Y-91334209D01*
X130746681Y-91156187D01*
X130883210Y-90995500D01*
X132778500Y-90995500D01*
X132906912Y-90982908D01*
X133035480Y-90971661D01*
X133042537Y-90969610D01*
X133049845Y-90968894D01*
X133173335Y-90931610D01*
X133297301Y-90895595D01*
X133303824Y-90892213D01*
X133310855Y-90890091D01*
X133424789Y-90829511D01*
X133539360Y-90770123D01*
X133545100Y-90765540D01*
X133551588Y-90762091D01*
X133651587Y-90680533D01*
X133752440Y-90600024D01*
X133762664Y-90589940D01*
X133762874Y-90589770D01*
X133763034Y-90589575D01*
X133766328Y-90586328D01*
X133824516Y-90528140D01*
X134705027Y-90528140D01*
X134939191Y-90770623D01*
X135120675Y-90896758D01*
X133211801Y-92805633D01*
X133129920Y-92905315D01*
X133046945Y-93004202D01*
X133043404Y-93010642D01*
X133038744Y-93016316D01*
X132977769Y-93130032D01*
X132915597Y-93243124D01*
X132913376Y-93250123D01*
X132909904Y-93256600D01*
X132872166Y-93380034D01*
X132833157Y-93503008D01*
X132832338Y-93510307D01*
X132830190Y-93517334D01*
X132817151Y-93645698D01*
X132802765Y-93773956D01*
X132802664Y-93788320D01*
X132802638Y-93788585D01*
X132802661Y-93788831D01*
X132802629Y-93793461D01*
X132802629Y-95169839D01*
X132815220Y-95298251D01*
X132826468Y-95426819D01*
X132828518Y-95433876D01*
X132829235Y-95441184D01*
X132866518Y-95564674D01*
X132902534Y-95688640D01*
X132905915Y-95695163D01*
X132908038Y-95702194D01*
X132968617Y-95816128D01*
X133028006Y-95930699D01*
X133032588Y-95936439D01*
X133036038Y-95942927D01*
X133117595Y-96042926D01*
X133198105Y-96143779D01*
X133208188Y-96154003D01*
X133208359Y-96154213D01*
X133208553Y-96154373D01*
X133211801Y-96157667D01*
X133991733Y-96937599D01*
X134091388Y-97019456D01*
X134190302Y-97102455D01*
X134196745Y-97105997D01*
X134202416Y-97110655D01*
X134316059Y-97171590D01*
X134429224Y-97233803D01*
X134436228Y-97236024D01*
X134442700Y-97239495D01*
X134566100Y-97277222D01*
X134689108Y-97316243D01*
X134696406Y-97317061D01*
X134703433Y-97319210D01*
X134831803Y-97332249D01*
X134960056Y-97346635D01*
X134974420Y-97346735D01*
X134974685Y-97346762D01*
X134974931Y-97346738D01*
X134979561Y-97346771D01*
X140293089Y-97346771D01*
X140421501Y-97334179D01*
X140550069Y-97322932D01*
X140557126Y-97320881D01*
X140564434Y-97320165D01*
X140687924Y-97282881D01*
X140779500Y-97256276D01*
X140779500Y-98612853D01*
X140779500Y-98612853D01*
G37*
X140779500Y-98612853D02*
X140527316Y-98859810D01*
X140289937Y-99206493D01*
X140124417Y-99592681D01*
X140037060Y-100003663D01*
X140031341Y-100413142D01*
X139288984Y-101155500D01*
X138019861Y-101155500D01*
X138123294Y-100923187D01*
X138216381Y-100513465D01*
X138223082Y-100033558D01*
X138141472Y-99621396D01*
X137981360Y-99232935D01*
X137748845Y-98882971D01*
X137452783Y-98584835D01*
X137104451Y-98349882D01*
X136717117Y-98187062D01*
X136305535Y-98102577D01*
X135885381Y-98099643D01*
X135472659Y-98178374D01*
X135083090Y-98335770D01*
X134731512Y-98565837D01*
X134444764Y-98846640D01*
X132784366Y-98846640D01*
X132679928Y-98790640D01*
X132566837Y-98728468D01*
X132559837Y-98726247D01*
X132553361Y-98722775D01*
X132429926Y-98685037D01*
X132306953Y-98646028D01*
X132299653Y-98645209D01*
X132292627Y-98643061D01*
X132164262Y-98630022D01*
X132036005Y-98615636D01*
X132021640Y-98615535D01*
X132021376Y-98615509D01*
X132021129Y-98615532D01*
X132016500Y-98615500D01*
X130885845Y-98615500D01*
X130843687Y-98551819D01*
X130597925Y-98343005D01*
X130303800Y-98210746D01*
X129984500Y-98165470D01*
X128587500Y-98165470D01*
X128402023Y-98180545D01*
X128143000Y-98261539D01*
X128143000Y-93351168D01*
X128146751Y-93347596D01*
X128354922Y-93052495D01*
X128501810Y-92722580D01*
X128581819Y-92370418D01*
X128587579Y-91957932D01*
X128517434Y-91603673D01*
X128443856Y-91425161D01*
X128587500Y-91445530D01*
X129984500Y-91445530D01*
X130169977Y-91430455D01*
X130477774Y-91334209D01*
X130746681Y-91156187D01*
X130883210Y-90995500D01*
X132778500Y-90995500D01*
X132906912Y-90982908D01*
X133035480Y-90971661D01*
X133042537Y-90969610D01*
X133049845Y-90968894D01*
X133173335Y-90931610D01*
X133297301Y-90895595D01*
X133303824Y-90892213D01*
X133310855Y-90890091D01*
X133424789Y-90829511D01*
X133539360Y-90770123D01*
X133545100Y-90765540D01*
X133551588Y-90762091D01*
X133651587Y-90680533D01*
X133752440Y-90600024D01*
X133762664Y-90589940D01*
X133762874Y-90589770D01*
X133763034Y-90589575D01*
X133766328Y-90586328D01*
X133824516Y-90528140D01*
X134705027Y-90528140D01*
X134939191Y-90770623D01*
X135120675Y-90896758D01*
X133211801Y-92805633D01*
X133129920Y-92905315D01*
X133046945Y-93004202D01*
X133043404Y-93010642D01*
X133038744Y-93016316D01*
X132977769Y-93130032D01*
X132915597Y-93243124D01*
X132913376Y-93250123D01*
X132909904Y-93256600D01*
X132872166Y-93380034D01*
X132833157Y-93503008D01*
X132832338Y-93510307D01*
X132830190Y-93517334D01*
X132817151Y-93645698D01*
X132802765Y-93773956D01*
X132802664Y-93788320D01*
X132802638Y-93788585D01*
X132802661Y-93788831D01*
X132802629Y-93793461D01*
X132802629Y-95169839D01*
X132815220Y-95298251D01*
X132826468Y-95426819D01*
X132828518Y-95433876D01*
X132829235Y-95441184D01*
X132866518Y-95564674D01*
X132902534Y-95688640D01*
X132905915Y-95695163D01*
X132908038Y-95702194D01*
X132968617Y-95816128D01*
X133028006Y-95930699D01*
X133032588Y-95936439D01*
X133036038Y-95942927D01*
X133117595Y-96042926D01*
X133198105Y-96143779D01*
X133208188Y-96154003D01*
X133208359Y-96154213D01*
X133208553Y-96154373D01*
X133211801Y-96157667D01*
X133991733Y-96937599D01*
X134091388Y-97019456D01*
X134190302Y-97102455D01*
X134196745Y-97105997D01*
X134202416Y-97110655D01*
X134316059Y-97171590D01*
X134429224Y-97233803D01*
X134436228Y-97236024D01*
X134442700Y-97239495D01*
X134566100Y-97277222D01*
X134689108Y-97316243D01*
X134696406Y-97317061D01*
X134703433Y-97319210D01*
X134831803Y-97332249D01*
X134960056Y-97346635D01*
X134974420Y-97346735D01*
X134974685Y-97346762D01*
X134974931Y-97346738D01*
X134979561Y-97346771D01*
X140293089Y-97346771D01*
X140421501Y-97334179D01*
X140550069Y-97322932D01*
X140557126Y-97320881D01*
X140564434Y-97320165D01*
X140687924Y-97282881D01*
X140779500Y-97256276D01*
X140779500Y-98612853D01*
G36*
X141309278Y-91024357D02*
X141255041Y-91029675D01*
X141126429Y-91040928D01*
X141119371Y-91042978D01*
X141112064Y-91043695D01*
X140988573Y-91080978D01*
X140864608Y-91116994D01*
X140858084Y-91120375D01*
X140851054Y-91122498D01*
X140737119Y-91183077D01*
X140653657Y-91226340D01*
X140653735Y-91215269D01*
X140653762Y-91215005D01*
X140653738Y-91214758D01*
X140653771Y-91210129D01*
X140653771Y-90572635D01*
X140781191Y-90704583D01*
X141126208Y-90944376D01*
X141309278Y-91024357D01*
X141309278Y-91024357D01*
G37*
X141309278Y-91024357D02*
X141255041Y-91029675D01*
X141126429Y-91040928D01*
X141119371Y-91042978D01*
X141112064Y-91043695D01*
X140988573Y-91080978D01*
X140864608Y-91116994D01*
X140858084Y-91120375D01*
X140851054Y-91122498D01*
X140737119Y-91183077D01*
X140653657Y-91226340D01*
X140653735Y-91215269D01*
X140653762Y-91215005D01*
X140653738Y-91214758D01*
X140653771Y-91210129D01*
X140653771Y-90572635D01*
X140781191Y-90704583D01*
X141126208Y-90944376D01*
X141309278Y-91024357D01*
G36*
X142662731Y-117552000D02*
X135089503Y-117552000D01*
X135187544Y-117413019D01*
X135430668Y-116866953D01*
X135563097Y-116284064D01*
X135572631Y-115601328D01*
X135456528Y-115014968D01*
X135228746Y-114462327D01*
X134924473Y-114004360D01*
X135109276Y-114132801D01*
X135465313Y-114288350D01*
X135844783Y-114371782D01*
X136086693Y-114376849D01*
X138597872Y-116888028D01*
X138697554Y-116969908D01*
X138796441Y-117052884D01*
X138802881Y-117056424D01*
X138808555Y-117061085D01*
X138922236Y-117122040D01*
X139035363Y-117184232D01*
X139042367Y-117186453D01*
X139048839Y-117189924D01*
X139172239Y-117227651D01*
X139295247Y-117266672D01*
X139302545Y-117267490D01*
X139309572Y-117269639D01*
X139437942Y-117282678D01*
X139566195Y-117297064D01*
X139580559Y-117297164D01*
X139580824Y-117297191D01*
X139581070Y-117297167D01*
X139585700Y-117297200D01*
X142499263Y-117297200D01*
X142500442Y-117300176D01*
X142662731Y-117552000D01*
X142662731Y-117552000D01*
G37*
X142662731Y-117552000D02*
X135089503Y-117552000D01*
X135187544Y-117413019D01*
X135430668Y-116866953D01*
X135563097Y-116284064D01*
X135572631Y-115601328D01*
X135456528Y-115014968D01*
X135228746Y-114462327D01*
X134924473Y-114004360D01*
X135109276Y-114132801D01*
X135465313Y-114288350D01*
X135844783Y-114371782D01*
X136086693Y-114376849D01*
X138597872Y-116888028D01*
X138697554Y-116969908D01*
X138796441Y-117052884D01*
X138802881Y-117056424D01*
X138808555Y-117061085D01*
X138922236Y-117122040D01*
X139035363Y-117184232D01*
X139042367Y-117186453D01*
X139048839Y-117189924D01*
X139172239Y-117227651D01*
X139295247Y-117266672D01*
X139302545Y-117267490D01*
X139309572Y-117269639D01*
X139437942Y-117282678D01*
X139566195Y-117297064D01*
X139580559Y-117297164D01*
X139580824Y-117297191D01*
X139581070Y-117297167D01*
X139585700Y-117297200D01*
X142499263Y-117297200D01*
X142500442Y-117300176D01*
X142662731Y-117552000D01*
G36*
X142703395Y-114186943D02*
X142540593Y-114424710D01*
X142506952Y-114503200D01*
X140164356Y-114503200D01*
X138059032Y-112397876D01*
X138059113Y-112392042D01*
X139417828Y-111033328D01*
X139499708Y-110933645D01*
X139582684Y-110834759D01*
X139586224Y-110828318D01*
X139590885Y-110822645D01*
X139651840Y-110708963D01*
X139714032Y-110595837D01*
X139716253Y-110588832D01*
X139719724Y-110582361D01*
X139757451Y-110458960D01*
X139796472Y-110335953D01*
X139797290Y-110328654D01*
X139799439Y-110321628D01*
X139812478Y-110193257D01*
X139826864Y-110065005D01*
X139826964Y-110050640D01*
X139826991Y-110050376D01*
X139826967Y-110050129D01*
X139827000Y-110045500D01*
X139827000Y-107124694D01*
X140442383Y-106509310D01*
X140489320Y-106582142D01*
X140779500Y-106882631D01*
X140779500Y-108322970D01*
X140651469Y-108448347D01*
X140431961Y-108768932D01*
X140278901Y-109126046D01*
X140198121Y-109506089D01*
X140192696Y-109894585D01*
X140262834Y-110276735D01*
X140405862Y-110637984D01*
X140616334Y-110964572D01*
X140646417Y-110995724D01*
X140431961Y-111308932D01*
X140278901Y-111666046D01*
X140198121Y-112046089D01*
X140192696Y-112434585D01*
X140262834Y-112816735D01*
X140405862Y-113177984D01*
X140616334Y-113504572D01*
X140886232Y-113784060D01*
X141205276Y-114005801D01*
X141561313Y-114161350D01*
X141940783Y-114244782D01*
X142329231Y-114252919D01*
X142703395Y-114186943D01*
X142703395Y-114186943D01*
G37*
X142703395Y-114186943D02*
X142540593Y-114424710D01*
X142506952Y-114503200D01*
X140164356Y-114503200D01*
X138059032Y-112397876D01*
X138059113Y-112392042D01*
X139417828Y-111033328D01*
X139499708Y-110933645D01*
X139582684Y-110834759D01*
X139586224Y-110828318D01*
X139590885Y-110822645D01*
X139651840Y-110708963D01*
X139714032Y-110595837D01*
X139716253Y-110588832D01*
X139719724Y-110582361D01*
X139757451Y-110458960D01*
X139796472Y-110335953D01*
X139797290Y-110328654D01*
X139799439Y-110321628D01*
X139812478Y-110193257D01*
X139826864Y-110065005D01*
X139826964Y-110050640D01*
X139826991Y-110050376D01*
X139826967Y-110050129D01*
X139827000Y-110045500D01*
X139827000Y-107124694D01*
X140442383Y-106509310D01*
X140489320Y-106582142D01*
X140779500Y-106882631D01*
X140779500Y-108322970D01*
X140651469Y-108448347D01*
X140431961Y-108768932D01*
X140278901Y-109126046D01*
X140198121Y-109506089D01*
X140192696Y-109894585D01*
X140262834Y-110276735D01*
X140405862Y-110637984D01*
X140616334Y-110964572D01*
X140646417Y-110995724D01*
X140431961Y-111308932D01*
X140278901Y-111666046D01*
X140198121Y-112046089D01*
X140192696Y-112434585D01*
X140262834Y-112816735D01*
X140405862Y-113177984D01*
X140616334Y-113504572D01*
X140886232Y-113784060D01*
X141205276Y-114005801D01*
X141561313Y-114161350D01*
X141940783Y-114244782D01*
X142329231Y-114252919D01*
X142703395Y-114186943D01*
G36*
X147574000Y-88389007D02*
X147553504Y-88409079D01*
X147349473Y-88707058D01*
X147316168Y-88784763D01*
X147212505Y-88773136D01*
X147198140Y-88773035D01*
X147197876Y-88773009D01*
X147197629Y-88773032D01*
X147193000Y-88773000D01*
X144302842Y-88773000D01*
X144237472Y-88442856D01*
X144077360Y-88054395D01*
X143844845Y-87704431D01*
X143548783Y-87406295D01*
X143200451Y-87171342D01*
X142813117Y-87008522D01*
X142401535Y-86924037D01*
X141981381Y-86921103D01*
X141568659Y-86999834D01*
X141179090Y-87157230D01*
X140827512Y-87387297D01*
X140653771Y-87557436D01*
X140653771Y-86475571D01*
X140641179Y-86347158D01*
X140629932Y-86218591D01*
X140627881Y-86211533D01*
X140627165Y-86204226D01*
X140589881Y-86080735D01*
X140553866Y-85956770D01*
X140550484Y-85950246D01*
X140548362Y-85943216D01*
X140487782Y-85829281D01*
X140428394Y-85714711D01*
X140423811Y-85708970D01*
X140420362Y-85702483D01*
X140338804Y-85602483D01*
X140258295Y-85501631D01*
X140248211Y-85491406D01*
X140248041Y-85491197D01*
X140247846Y-85491036D01*
X140244599Y-85487743D01*
X138725890Y-83969034D01*
X138731082Y-83597218D01*
X138651723Y-83196429D01*
X139795713Y-83196429D01*
X140036010Y-83436726D01*
X140031193Y-83781706D01*
X140107041Y-84194968D01*
X140261714Y-84585626D01*
X140489320Y-84938802D01*
X140781191Y-85241043D01*
X141126208Y-85480836D01*
X141511231Y-85649049D01*
X141921593Y-85739273D01*
X142341665Y-85748072D01*
X142755446Y-85675111D01*
X143147175Y-85523170D01*
X143501931Y-85298034D01*
X143806202Y-85008281D01*
X144048398Y-84664946D01*
X144219294Y-84281107D01*
X144312381Y-83871385D01*
X144319082Y-83391478D01*
X144237472Y-82979316D01*
X144077360Y-82590855D01*
X143844845Y-82240891D01*
X143548783Y-81942755D01*
X143200451Y-81707802D01*
X142813117Y-81544982D01*
X142401535Y-81460497D01*
X142008347Y-81457751D01*
X141957596Y-81407000D01*
X147145279Y-81407000D01*
X147192272Y-81663042D01*
X147325215Y-81998819D01*
X147520846Y-82302378D01*
X147574000Y-82357420D01*
X147574000Y-88389007D01*
X147574000Y-88389007D01*
G37*
X147574000Y-88389007D02*
X147553504Y-88409079D01*
X147349473Y-88707058D01*
X147316168Y-88784763D01*
X147212505Y-88773136D01*
X147198140Y-88773035D01*
X147197876Y-88773009D01*
X147197629Y-88773032D01*
X147193000Y-88773000D01*
X144302842Y-88773000D01*
X144237472Y-88442856D01*
X144077360Y-88054395D01*
X143844845Y-87704431D01*
X143548783Y-87406295D01*
X143200451Y-87171342D01*
X142813117Y-87008522D01*
X142401535Y-86924037D01*
X141981381Y-86921103D01*
X141568659Y-86999834D01*
X141179090Y-87157230D01*
X140827512Y-87387297D01*
X140653771Y-87557436D01*
X140653771Y-86475571D01*
X140641179Y-86347158D01*
X140629932Y-86218591D01*
X140627881Y-86211533D01*
X140627165Y-86204226D01*
X140589881Y-86080735D01*
X140553866Y-85956770D01*
X140550484Y-85950246D01*
X140548362Y-85943216D01*
X140487782Y-85829281D01*
X140428394Y-85714711D01*
X140423811Y-85708970D01*
X140420362Y-85702483D01*
X140338804Y-85602483D01*
X140258295Y-85501631D01*
X140248211Y-85491406D01*
X140248041Y-85491197D01*
X140247846Y-85491036D01*
X140244599Y-85487743D01*
X138725890Y-83969034D01*
X138731082Y-83597218D01*
X138651723Y-83196429D01*
X139795713Y-83196429D01*
X140036010Y-83436726D01*
X140031193Y-83781706D01*
X140107041Y-84194968D01*
X140261714Y-84585626D01*
X140489320Y-84938802D01*
X140781191Y-85241043D01*
X141126208Y-85480836D01*
X141511231Y-85649049D01*
X141921593Y-85739273D01*
X142341665Y-85748072D01*
X142755446Y-85675111D01*
X143147175Y-85523170D01*
X143501931Y-85298034D01*
X143806202Y-85008281D01*
X144048398Y-84664946D01*
X144219294Y-84281107D01*
X144312381Y-83871385D01*
X144319082Y-83391478D01*
X144237472Y-82979316D01*
X144077360Y-82590855D01*
X143844845Y-82240891D01*
X143548783Y-81942755D01*
X143200451Y-81707802D01*
X142813117Y-81544982D01*
X142401535Y-81460497D01*
X142008347Y-81457751D01*
X141957596Y-81407000D01*
X147145279Y-81407000D01*
X147192272Y-81663042D01*
X147325215Y-81998819D01*
X147520846Y-82302378D01*
X147574000Y-82357420D01*
X147574000Y-88389007D01*
G36*
X147574000Y-98803007D02*
X147553504Y-98823079D01*
X147349473Y-99121058D01*
X147207206Y-99452992D01*
X147132122Y-99806237D01*
X147128957Y-100032881D01*
X147047580Y-100056524D01*
X146805521Y-100181996D01*
X146592441Y-100352095D01*
X146578553Y-100365791D01*
X145824172Y-101120172D01*
X145742291Y-101219854D01*
X145659316Y-101318741D01*
X145655775Y-101325181D01*
X145651115Y-101330855D01*
X145590140Y-101444571D01*
X145527968Y-101557663D01*
X145525747Y-101564662D01*
X145522275Y-101571139D01*
X145484537Y-101694573D01*
X145445528Y-101817547D01*
X145444709Y-101824846D01*
X145442561Y-101831873D01*
X145429522Y-101960237D01*
X145415136Y-102088495D01*
X145415035Y-102102859D01*
X145415009Y-102103124D01*
X145415032Y-102103370D01*
X145415000Y-102108000D01*
X145415000Y-107053844D01*
X143830952Y-108637891D01*
X143719249Y-108469765D01*
X143573500Y-108322994D01*
X143573500Y-106873219D01*
X143806202Y-106651621D01*
X144048398Y-106308286D01*
X144219294Y-105924447D01*
X144312381Y-105514725D01*
X144319082Y-105034818D01*
X144237472Y-104622656D01*
X144077360Y-104234195D01*
X143844845Y-103884231D01*
X143548783Y-103586095D01*
X143439387Y-103512306D01*
X144816599Y-102135095D01*
X144898479Y-102035412D01*
X144981455Y-101936526D01*
X144984995Y-101930085D01*
X144989656Y-101924412D01*
X145050611Y-101810730D01*
X145112803Y-101697604D01*
X145115024Y-101690599D01*
X145118495Y-101684128D01*
X145156218Y-101560739D01*
X145195243Y-101437720D01*
X145196061Y-101430420D01*
X145198210Y-101423394D01*
X145211248Y-101295029D01*
X145225635Y-101166772D01*
X145225735Y-101152407D01*
X145225762Y-101152143D01*
X145225738Y-101151896D01*
X145225771Y-101147267D01*
X145225771Y-93273269D01*
X145213179Y-93144856D01*
X145201932Y-93016289D01*
X145199881Y-93009231D01*
X145199165Y-93001924D01*
X145161881Y-92878433D01*
X145125866Y-92754468D01*
X145122484Y-92747944D01*
X145120362Y-92740914D01*
X145059782Y-92626979D01*
X145000394Y-92512409D01*
X144995811Y-92506668D01*
X144992362Y-92500181D01*
X144910804Y-92400181D01*
X144830295Y-92299329D01*
X144820211Y-92289104D01*
X144820041Y-92288895D01*
X144819846Y-92288734D01*
X144816599Y-92285441D01*
X144098158Y-91567000D01*
X146614344Y-91567000D01*
X146896053Y-91848709D01*
X147106736Y-92021766D01*
X147130692Y-92034611D01*
X147127080Y-92293338D01*
X147192272Y-92648542D01*
X147325215Y-92984319D01*
X147520846Y-93287878D01*
X147574000Y-93342920D01*
X147574000Y-98803007D01*
X147574000Y-98803007D01*
G37*
X147574000Y-98803007D02*
X147553504Y-98823079D01*
X147349473Y-99121058D01*
X147207206Y-99452992D01*
X147132122Y-99806237D01*
X147128957Y-100032881D01*
X147047580Y-100056524D01*
X146805521Y-100181996D01*
X146592441Y-100352095D01*
X146578553Y-100365791D01*
X145824172Y-101120172D01*
X145742291Y-101219854D01*
X145659316Y-101318741D01*
X145655775Y-101325181D01*
X145651115Y-101330855D01*
X145590140Y-101444571D01*
X145527968Y-101557663D01*
X145525747Y-101564662D01*
X145522275Y-101571139D01*
X145484537Y-101694573D01*
X145445528Y-101817547D01*
X145444709Y-101824846D01*
X145442561Y-101831873D01*
X145429522Y-101960237D01*
X145415136Y-102088495D01*
X145415035Y-102102859D01*
X145415009Y-102103124D01*
X145415032Y-102103370D01*
X145415000Y-102108000D01*
X145415000Y-107053844D01*
X143830952Y-108637891D01*
X143719249Y-108469765D01*
X143573500Y-108322994D01*
X143573500Y-106873219D01*
X143806202Y-106651621D01*
X144048398Y-106308286D01*
X144219294Y-105924447D01*
X144312381Y-105514725D01*
X144319082Y-105034818D01*
X144237472Y-104622656D01*
X144077360Y-104234195D01*
X143844845Y-103884231D01*
X143548783Y-103586095D01*
X143439387Y-103512306D01*
X144816599Y-102135095D01*
X144898479Y-102035412D01*
X144981455Y-101936526D01*
X144984995Y-101930085D01*
X144989656Y-101924412D01*
X145050611Y-101810730D01*
X145112803Y-101697604D01*
X145115024Y-101690599D01*
X145118495Y-101684128D01*
X145156218Y-101560739D01*
X145195243Y-101437720D01*
X145196061Y-101430420D01*
X145198210Y-101423394D01*
X145211248Y-101295029D01*
X145225635Y-101166772D01*
X145225735Y-101152407D01*
X145225762Y-101152143D01*
X145225738Y-101151896D01*
X145225771Y-101147267D01*
X145225771Y-93273269D01*
X145213179Y-93144856D01*
X145201932Y-93016289D01*
X145199881Y-93009231D01*
X145199165Y-93001924D01*
X145161881Y-92878433D01*
X145125866Y-92754468D01*
X145122484Y-92747944D01*
X145120362Y-92740914D01*
X145059782Y-92626979D01*
X145000394Y-92512409D01*
X144995811Y-92506668D01*
X144992362Y-92500181D01*
X144910804Y-92400181D01*
X144830295Y-92299329D01*
X144820211Y-92289104D01*
X144820041Y-92288895D01*
X144819846Y-92288734D01*
X144816599Y-92285441D01*
X144098158Y-91567000D01*
X146614344Y-91567000D01*
X146896053Y-91848709D01*
X147106736Y-92021766D01*
X147130692Y-92034611D01*
X147127080Y-92293338D01*
X147192272Y-92648542D01*
X147325215Y-92984319D01*
X147520846Y-93287878D01*
X147574000Y-93342920D01*
X147574000Y-98803007D01*
G36*
X147574000Y-111575044D02*
X146161468Y-112987575D01*
X146130179Y-112974423D01*
X145544644Y-112854230D01*
X144946915Y-112850057D01*
X144359759Y-112962063D01*
X143965315Y-113121428D01*
X144065509Y-112896390D01*
X144151588Y-112517512D01*
X144155113Y-112265042D01*
X147574000Y-108846156D01*
X147574000Y-111575044D01*
X147574000Y-111575044D01*
G37*
X147574000Y-111575044D02*
X146161468Y-112987575D01*
X146130179Y-112974423D01*
X145544644Y-112854230D01*
X144946915Y-112850057D01*
X144359759Y-112962063D01*
X143965315Y-113121428D01*
X144065509Y-112896390D01*
X144151588Y-112517512D01*
X144155113Y-112265042D01*
X147574000Y-108846156D01*
X147574000Y-111575044D01*
G36*
X154445500Y-117552000D02*
X147789503Y-117552000D01*
X147887544Y-117413019D01*
X148130668Y-116866953D01*
X148263097Y-116284064D01*
X148272631Y-115601328D01*
X148156528Y-115014968D01*
X148135764Y-114964591D01*
X149958828Y-113141528D01*
X150040708Y-113041845D01*
X150123684Y-112942959D01*
X150127224Y-112936518D01*
X150131885Y-112930845D01*
X150192859Y-112817128D01*
X150255032Y-112704037D01*
X150257252Y-112697037D01*
X150260725Y-112690561D01*
X150298462Y-112567126D01*
X150337472Y-112444153D01*
X150338290Y-112436853D01*
X150340439Y-112429827D01*
X150353477Y-112301462D01*
X150367864Y-112173205D01*
X150367964Y-112158840D01*
X150367991Y-112158576D01*
X150367967Y-112158329D01*
X150368000Y-112153700D01*
X150368000Y-103765168D01*
X150371751Y-103761596D01*
X150579922Y-103466495D01*
X150726810Y-103136580D01*
X150806819Y-102784418D01*
X150807670Y-102723461D01*
X151056952Y-102750542D01*
X151328561Y-102726780D01*
X151590382Y-102650714D01*
X151832441Y-102525242D01*
X152045521Y-102355143D01*
X152059409Y-102341447D01*
X152498828Y-101902028D01*
X152580708Y-101802345D01*
X152598872Y-101780698D01*
X152702774Y-101748209D01*
X152971681Y-101570187D01*
X153180495Y-101324425D01*
X153312754Y-101030300D01*
X153358030Y-100711000D01*
X153358030Y-99314000D01*
X153342955Y-99128523D01*
X153246709Y-98820726D01*
X153068687Y-98551819D01*
X152822925Y-98343005D01*
X152528800Y-98210746D01*
X152209500Y-98165470D01*
X150812500Y-98165470D01*
X150627023Y-98180545D01*
X150368000Y-98261539D01*
X150368000Y-93351168D01*
X150371751Y-93347596D01*
X150579922Y-93052495D01*
X150726810Y-92722580D01*
X150806819Y-92370418D01*
X150812579Y-91957932D01*
X150742434Y-91603673D01*
X150671762Y-91432212D01*
X150677576Y-91426398D01*
X150812500Y-91445530D01*
X152209500Y-91445530D01*
X152394977Y-91430455D01*
X152702774Y-91334209D01*
X152971681Y-91156187D01*
X153180495Y-90910425D01*
X153312754Y-90616300D01*
X153358030Y-90297000D01*
X153358030Y-88900000D01*
X153342955Y-88714523D01*
X153246709Y-88406726D01*
X153068687Y-88137819D01*
X152822925Y-87929005D01*
X152528800Y-87796746D01*
X152209500Y-87751470D01*
X150812500Y-87751470D01*
X150627023Y-87766545D01*
X150368000Y-87847539D01*
X150368000Y-82365668D01*
X150371751Y-82362096D01*
X150579922Y-82066995D01*
X150726810Y-81737080D01*
X150801802Y-81407000D01*
X154445500Y-81407000D01*
X154445500Y-117552000D01*
X154445500Y-117552000D01*
G37*
X154445500Y-117552000D02*
X147789503Y-117552000D01*
X147887544Y-117413019D01*
X148130668Y-116866953D01*
X148263097Y-116284064D01*
X148272631Y-115601328D01*
X148156528Y-115014968D01*
X148135764Y-114964591D01*
X149958828Y-113141528D01*
X150040708Y-113041845D01*
X150123684Y-112942959D01*
X150127224Y-112936518D01*
X150131885Y-112930845D01*
X150192859Y-112817128D01*
X150255032Y-112704037D01*
X150257252Y-112697037D01*
X150260725Y-112690561D01*
X150298462Y-112567126D01*
X150337472Y-112444153D01*
X150338290Y-112436853D01*
X150340439Y-112429827D01*
X150353477Y-112301462D01*
X150367864Y-112173205D01*
X150367964Y-112158840D01*
X150367991Y-112158576D01*
X150367967Y-112158329D01*
X150368000Y-112153700D01*
X150368000Y-103765168D01*
X150371751Y-103761596D01*
X150579922Y-103466495D01*
X150726810Y-103136580D01*
X150806819Y-102784418D01*
X150807670Y-102723461D01*
X151056952Y-102750542D01*
X151328561Y-102726780D01*
X151590382Y-102650714D01*
X151832441Y-102525242D01*
X152045521Y-102355143D01*
X152059409Y-102341447D01*
X152498828Y-101902028D01*
X152580708Y-101802345D01*
X152598872Y-101780698D01*
X152702774Y-101748209D01*
X152971681Y-101570187D01*
X153180495Y-101324425D01*
X153312754Y-101030300D01*
X153358030Y-100711000D01*
X153358030Y-99314000D01*
X153342955Y-99128523D01*
X153246709Y-98820726D01*
X153068687Y-98551819D01*
X152822925Y-98343005D01*
X152528800Y-98210746D01*
X152209500Y-98165470D01*
X150812500Y-98165470D01*
X150627023Y-98180545D01*
X150368000Y-98261539D01*
X150368000Y-93351168D01*
X150371751Y-93347596D01*
X150579922Y-93052495D01*
X150726810Y-92722580D01*
X150806819Y-92370418D01*
X150812579Y-91957932D01*
X150742434Y-91603673D01*
X150671762Y-91432212D01*
X150677576Y-91426398D01*
X150812500Y-91445530D01*
X152209500Y-91445530D01*
X152394977Y-91430455D01*
X152702774Y-91334209D01*
X152971681Y-91156187D01*
X153180495Y-90910425D01*
X153312754Y-90616300D01*
X153358030Y-90297000D01*
X153358030Y-88900000D01*
X153342955Y-88714523D01*
X153246709Y-88406726D01*
X153068687Y-88137819D01*
X152822925Y-87929005D01*
X152528800Y-87796746D01*
X152209500Y-87751470D01*
X150812500Y-87751470D01*
X150627023Y-87766545D01*
X150368000Y-87847539D01*
X150368000Y-82365668D01*
X150371751Y-82362096D01*
X150579922Y-82066995D01*
X150726810Y-81737080D01*
X150801802Y-81407000D01*
X154445500Y-81407000D01*
X154445500Y-117552000D01*
M02*
