M48
INCH,TZ
T1C0.032
T2C0.039
T3C0.120
%
G90
G05
T1
X49895Y-31026
X49895Y-32026
X49900Y-35275
X49900Y-36275
X49900Y-39375
X49900Y-40375
X50895Y-31026
X50900Y-35275
X50900Y-39375
X53575Y-43250
X53575Y-44250
X55975Y-43200
X55975Y-44200
X58650Y-30950
X58650Y-31950
X58650Y-35275
X58650Y-36275
X58650Y-39375
X58650Y-40375
X59650Y-30950
X59650Y-35275
X59650Y-39375
T2
X53575Y-39466
X53575Y-41435
X53675Y-35091
X53675Y-37060
X53775Y-31026
X53775Y-32995
X55975Y-30945
X55975Y-32914
X55975Y-35065
X55975Y-37034
X55975Y-39466
X55975Y-41435
T3
X52175Y-45630
X53775Y-28075
X55975Y-28100
X57175Y-45630
T0
M30
