G04 #@! TF.GenerationSoftware,KiCad,Pcbnew,5.0.2-5.fc29*
G04 #@! TF.CreationDate,2019-03-13T23:33:12-07:00*
G04 #@! TF.ProjectId,electroscope_pth,656c6563-7472-46f7-9363-6f70655f7074,rev?*
G04 #@! TF.SameCoordinates,Original*
G04 #@! TF.FileFunction,Soldermask,Top*
G04 #@! TF.FilePolarity,Negative*
%FSLAX46Y46*%
G04 Gerber Fmt 4.6, Leading zero omitted, Abs format (unit mm)*
G04 Created by KiCad (PCBNEW 5.0.2-5.fc29) date Wed 13 Mar 2019 11:33:12 PM PDT*
%MOMM*%
%LPD*%
G01*
G04 APERTURE LIST*
%ADD10C,0.100000*%
G04 APERTURE END LIST*
D10*
G36*
X146669165Y-110568408D02*
X146669167Y-110568409D01*
X146669168Y-110568409D01*
X147015856Y-110712011D01*
X147326458Y-110919549D01*
X147327869Y-110920492D01*
X147593208Y-111185831D01*
X147593210Y-111185834D01*
X147801689Y-111497844D01*
X147945291Y-111844532D01*
X148018500Y-112212574D01*
X148018500Y-112587826D01*
X147945291Y-112955868D01*
X147801689Y-113302556D01*
X147594151Y-113613158D01*
X147593208Y-113614569D01*
X147327869Y-113879908D01*
X147327866Y-113879910D01*
X147015856Y-114088389D01*
X146669168Y-114231991D01*
X146669167Y-114231991D01*
X146669165Y-114231992D01*
X146301128Y-114305200D01*
X145925872Y-114305200D01*
X145557835Y-114231992D01*
X145557833Y-114231991D01*
X145557832Y-114231991D01*
X145211144Y-114088389D01*
X144899134Y-113879910D01*
X144899131Y-113879908D01*
X144633792Y-113614569D01*
X144632849Y-113613158D01*
X144425311Y-113302556D01*
X144281709Y-112955868D01*
X144208500Y-112587826D01*
X144208500Y-112212574D01*
X144281709Y-111844532D01*
X144425311Y-111497844D01*
X144633790Y-111185834D01*
X144633792Y-111185831D01*
X144899131Y-110920492D01*
X144900542Y-110919549D01*
X145211144Y-110712011D01*
X145557832Y-110568409D01*
X145557833Y-110568409D01*
X145557835Y-110568408D01*
X145925872Y-110495200D01*
X146301128Y-110495200D01*
X146669165Y-110568408D01*
X146669165Y-110568408D01*
G37*
G36*
X133969165Y-110568408D02*
X133969167Y-110568409D01*
X133969168Y-110568409D01*
X134315856Y-110712011D01*
X134626458Y-110919549D01*
X134627869Y-110920492D01*
X134893208Y-111185831D01*
X134893210Y-111185834D01*
X135101689Y-111497844D01*
X135245291Y-111844532D01*
X135318500Y-112212574D01*
X135318500Y-112587826D01*
X135245291Y-112955868D01*
X135101689Y-113302556D01*
X134894151Y-113613158D01*
X134893208Y-113614569D01*
X134627869Y-113879908D01*
X134627866Y-113879910D01*
X134315856Y-114088389D01*
X133969168Y-114231991D01*
X133969167Y-114231991D01*
X133969165Y-114231992D01*
X133601128Y-114305200D01*
X133225872Y-114305200D01*
X132857835Y-114231992D01*
X132857833Y-114231991D01*
X132857832Y-114231991D01*
X132511144Y-114088389D01*
X132199134Y-113879910D01*
X132199131Y-113879908D01*
X131933792Y-113614569D01*
X131932849Y-113613158D01*
X131725311Y-113302556D01*
X131581709Y-112955868D01*
X131508500Y-112587826D01*
X131508500Y-112212574D01*
X131581709Y-111844532D01*
X131725311Y-111497844D01*
X131933790Y-111185834D01*
X131933792Y-111185831D01*
X132199131Y-110920492D01*
X132200542Y-110919549D01*
X132511144Y-110712011D01*
X132857832Y-110568409D01*
X132857833Y-110568409D01*
X132857835Y-110568408D01*
X133225872Y-110495200D01*
X133601128Y-110495200D01*
X133969165Y-110568408D01*
X133969165Y-110568408D01*
G37*
G36*
X146056494Y-107684011D02*
X146209037Y-107747196D01*
X146346325Y-107838929D01*
X146463071Y-107955675D01*
X146554804Y-108092963D01*
X146617989Y-108245506D01*
X146650200Y-108407443D01*
X146650200Y-108572557D01*
X146617989Y-108734494D01*
X146554804Y-108887037D01*
X146463071Y-109024325D01*
X146346325Y-109141071D01*
X146209037Y-109232804D01*
X146056494Y-109295989D01*
X145894557Y-109328200D01*
X145729443Y-109328200D01*
X145567506Y-109295989D01*
X145414963Y-109232804D01*
X145277675Y-109141071D01*
X145160929Y-109024325D01*
X145069196Y-108887037D01*
X145006011Y-108734494D01*
X144973800Y-108572557D01*
X144973800Y-108407443D01*
X145006011Y-108245506D01*
X145069196Y-108092963D01*
X145160929Y-107955675D01*
X145277675Y-107838929D01*
X145414963Y-107747196D01*
X145567506Y-107684011D01*
X145729443Y-107651800D01*
X145894557Y-107651800D01*
X146056494Y-107684011D01*
X146056494Y-107684011D01*
G37*
G36*
X133960494Y-107684011D02*
X134113037Y-107747196D01*
X134250325Y-107838929D01*
X134367071Y-107955675D01*
X134458804Y-108092963D01*
X134521989Y-108245506D01*
X134554200Y-108407443D01*
X134554200Y-108572557D01*
X134521989Y-108734494D01*
X134458804Y-108887037D01*
X134367071Y-109024325D01*
X134250325Y-109141071D01*
X134113037Y-109232804D01*
X133960494Y-109295989D01*
X133798557Y-109328200D01*
X133633443Y-109328200D01*
X133471506Y-109295989D01*
X133318963Y-109232804D01*
X133181675Y-109141071D01*
X133064929Y-109024325D01*
X132973196Y-108887037D01*
X132910011Y-108734494D01*
X132877800Y-108572557D01*
X132877800Y-108407443D01*
X132910011Y-108245506D01*
X132973196Y-108092963D01*
X133064929Y-107955675D01*
X133181675Y-107838929D01*
X133318963Y-107747196D01*
X133471506Y-107684011D01*
X133633443Y-107651800D01*
X133798557Y-107651800D01*
X133960494Y-107684011D01*
X133960494Y-107684011D01*
G37*
G36*
X146056494Y-105144011D02*
X146209037Y-105207196D01*
X146346325Y-105298929D01*
X146463071Y-105415675D01*
X146554804Y-105552963D01*
X146617989Y-105705506D01*
X146650200Y-105867443D01*
X146650200Y-106032557D01*
X146617989Y-106194494D01*
X146554804Y-106347037D01*
X146463071Y-106484325D01*
X146346325Y-106601071D01*
X146209037Y-106692804D01*
X146056494Y-106755989D01*
X145894557Y-106788200D01*
X145729443Y-106788200D01*
X145567506Y-106755989D01*
X145414963Y-106692804D01*
X145277675Y-106601071D01*
X145160929Y-106484325D01*
X145069196Y-106347037D01*
X145006011Y-106194494D01*
X144973800Y-106032557D01*
X144973800Y-105867443D01*
X145006011Y-105705506D01*
X145069196Y-105552963D01*
X145160929Y-105415675D01*
X145277675Y-105298929D01*
X145414963Y-105207196D01*
X145567506Y-105144011D01*
X145729443Y-105111800D01*
X145894557Y-105111800D01*
X146056494Y-105144011D01*
X146056494Y-105144011D01*
G37*
G36*
X133960494Y-105144011D02*
X134113037Y-105207196D01*
X134250325Y-105298929D01*
X134367071Y-105415675D01*
X134458804Y-105552963D01*
X134521989Y-105705506D01*
X134554200Y-105867443D01*
X134554200Y-106032557D01*
X134521989Y-106194494D01*
X134458804Y-106347037D01*
X134367071Y-106484325D01*
X134250325Y-106601071D01*
X134113037Y-106692804D01*
X133960494Y-106755989D01*
X133798557Y-106788200D01*
X133633443Y-106788200D01*
X133471506Y-106755989D01*
X133318963Y-106692804D01*
X133181675Y-106601071D01*
X133064929Y-106484325D01*
X132973196Y-106347037D01*
X132910011Y-106194494D01*
X132877800Y-106032557D01*
X132877800Y-105867443D01*
X132910011Y-105705506D01*
X132973196Y-105552963D01*
X133064929Y-105415675D01*
X133181675Y-105298929D01*
X133318963Y-105207196D01*
X133471506Y-105144011D01*
X133633443Y-105111800D01*
X133798557Y-105111800D01*
X133960494Y-105144011D01*
X133960494Y-105144011D01*
G37*
G36*
X143102538Y-104283819D02*
X143284437Y-104359164D01*
X143448141Y-104468548D01*
X143587352Y-104607759D01*
X143696736Y-104771463D01*
X143772081Y-104953362D01*
X143810490Y-105146457D01*
X143810490Y-105343343D01*
X143772081Y-105536438D01*
X143696736Y-105718337D01*
X143587352Y-105882041D01*
X143448141Y-106021252D01*
X143284437Y-106130636D01*
X143102538Y-106205981D01*
X142909443Y-106244390D01*
X142712557Y-106244390D01*
X142519462Y-106205981D01*
X142337563Y-106130636D01*
X142173859Y-106021252D01*
X142034648Y-105882041D01*
X141925264Y-105718337D01*
X141849919Y-105536438D01*
X141811510Y-105343343D01*
X141811510Y-105146457D01*
X141849919Y-104953362D01*
X141925264Y-104771463D01*
X142034648Y-104607759D01*
X142173859Y-104468548D01*
X142337563Y-104359164D01*
X142519462Y-104283819D01*
X142712557Y-104245410D01*
X142909443Y-104245410D01*
X143102538Y-104283819D01*
X143102538Y-104283819D01*
G37*
G36*
X137006538Y-104283819D02*
X137188437Y-104359164D01*
X137352141Y-104468548D01*
X137491352Y-104607759D01*
X137600736Y-104771463D01*
X137676081Y-104953362D01*
X137714490Y-105146457D01*
X137714490Y-105343343D01*
X137676081Y-105536438D01*
X137600736Y-105718337D01*
X137491352Y-105882041D01*
X137352141Y-106021252D01*
X137188437Y-106130636D01*
X137006538Y-106205981D01*
X136813443Y-106244390D01*
X136616557Y-106244390D01*
X136423462Y-106205981D01*
X136241563Y-106130636D01*
X136077859Y-106021252D01*
X135938648Y-105882041D01*
X135829264Y-105718337D01*
X135753919Y-105536438D01*
X135715510Y-105343343D01*
X135715510Y-105146457D01*
X135753919Y-104953362D01*
X135829264Y-104771463D01*
X135938648Y-104607759D01*
X136077859Y-104468548D01*
X136241563Y-104359164D01*
X136423462Y-104283819D01*
X136616557Y-104245410D01*
X136813443Y-104245410D01*
X137006538Y-104283819D01*
X137006538Y-104283819D01*
G37*
G36*
X148714745Y-101880842D02*
X148841863Y-101933496D01*
X148956271Y-102009941D01*
X149053559Y-102107229D01*
X149130004Y-102221637D01*
X149182658Y-102348755D01*
X149209500Y-102483702D01*
X149209500Y-102621298D01*
X149182658Y-102756245D01*
X149130004Y-102883363D01*
X149053559Y-102997771D01*
X148956271Y-103095059D01*
X148841863Y-103171504D01*
X148714745Y-103224158D01*
X148579798Y-103251000D01*
X148442202Y-103251000D01*
X148307255Y-103224158D01*
X148180137Y-103171504D01*
X148065729Y-103095059D01*
X147968441Y-102997771D01*
X147891996Y-102883363D01*
X147839342Y-102756245D01*
X147812500Y-102621298D01*
X147812500Y-102483702D01*
X147839342Y-102348755D01*
X147891996Y-102221637D01*
X147968441Y-102107229D01*
X148065729Y-102009941D01*
X148180137Y-101933496D01*
X148307255Y-101880842D01*
X148442202Y-101854000D01*
X148579798Y-101854000D01*
X148714745Y-101880842D01*
X148714745Y-101880842D01*
G37*
G36*
X128628945Y-101880842D02*
X128756063Y-101933496D01*
X128870471Y-102009941D01*
X128967759Y-102107229D01*
X129044204Y-102221637D01*
X129096858Y-102348755D01*
X129123700Y-102483702D01*
X129123700Y-102621298D01*
X129096858Y-102756245D01*
X129044204Y-102883363D01*
X128967759Y-102997771D01*
X128870471Y-103095059D01*
X128756063Y-103171504D01*
X128628945Y-103224158D01*
X128493998Y-103251000D01*
X128356402Y-103251000D01*
X128221455Y-103224158D01*
X128094337Y-103171504D01*
X127979929Y-103095059D01*
X127882641Y-102997771D01*
X127806196Y-102883363D01*
X127753542Y-102756245D01*
X127726700Y-102621298D01*
X127726700Y-102483702D01*
X127753542Y-102348755D01*
X127806196Y-102221637D01*
X127882641Y-102107229D01*
X127979929Y-102009941D01*
X128094337Y-101933496D01*
X128221455Y-101880842D01*
X128356402Y-101854000D01*
X128493998Y-101854000D01*
X128628945Y-101880842D01*
X128628945Y-101880842D01*
G37*
G36*
X137006538Y-99282559D02*
X137188437Y-99357904D01*
X137352141Y-99467288D01*
X137491352Y-99606499D01*
X137600736Y-99770203D01*
X137676081Y-99952102D01*
X137714490Y-100145197D01*
X137714490Y-100342083D01*
X137676081Y-100535178D01*
X137600736Y-100717077D01*
X137491352Y-100880781D01*
X137352141Y-101019992D01*
X137188437Y-101129376D01*
X137006538Y-101204721D01*
X136813443Y-101243130D01*
X136616557Y-101243130D01*
X136423462Y-101204721D01*
X136241563Y-101129376D01*
X136077859Y-101019992D01*
X135938648Y-100880781D01*
X135829264Y-100717077D01*
X135753919Y-100535178D01*
X135715510Y-100342083D01*
X135715510Y-100145197D01*
X135753919Y-99952102D01*
X135829264Y-99770203D01*
X135938648Y-99606499D01*
X136077859Y-99467288D01*
X136241563Y-99357904D01*
X136423462Y-99282559D01*
X136616557Y-99244150D01*
X136813443Y-99244150D01*
X137006538Y-99282559D01*
X137006538Y-99282559D01*
G37*
G36*
X143102538Y-99282559D02*
X143284437Y-99357904D01*
X143448141Y-99467288D01*
X143587352Y-99606499D01*
X143696736Y-99770203D01*
X143772081Y-99952102D01*
X143810490Y-100145197D01*
X143810490Y-100342083D01*
X143772081Y-100535178D01*
X143696736Y-100717077D01*
X143587352Y-100880781D01*
X143448141Y-101019992D01*
X143284437Y-101129376D01*
X143102538Y-101204721D01*
X142909443Y-101243130D01*
X142712557Y-101243130D01*
X142519462Y-101204721D01*
X142337563Y-101129376D01*
X142173859Y-101019992D01*
X142034648Y-100880781D01*
X141925264Y-100717077D01*
X141849919Y-100535178D01*
X141811510Y-100342083D01*
X141811510Y-100145197D01*
X141849919Y-99952102D01*
X141925264Y-99770203D01*
X142034648Y-99606499D01*
X142173859Y-99467288D01*
X142337563Y-99357904D01*
X142519462Y-99282559D01*
X142712557Y-99244150D01*
X142909443Y-99244150D01*
X143102538Y-99282559D01*
X143102538Y-99282559D01*
G37*
G36*
X151749500Y-100711000D02*
X150352500Y-100711000D01*
X150352500Y-99314000D01*
X151749500Y-99314000D01*
X151749500Y-100711000D01*
X151749500Y-100711000D01*
G37*
G36*
X148714745Y-99340842D02*
X148841863Y-99393496D01*
X148956271Y-99469941D01*
X149053559Y-99567229D01*
X149130004Y-99681637D01*
X149182658Y-99808755D01*
X149209500Y-99943702D01*
X149209500Y-100081298D01*
X149182658Y-100216245D01*
X149130004Y-100343363D01*
X149053559Y-100457771D01*
X148956271Y-100555059D01*
X148841863Y-100631504D01*
X148714745Y-100684158D01*
X148579798Y-100711000D01*
X148442202Y-100711000D01*
X148307255Y-100684158D01*
X148180137Y-100631504D01*
X148065729Y-100555059D01*
X147968441Y-100457771D01*
X147891996Y-100343363D01*
X147839342Y-100216245D01*
X147812500Y-100081298D01*
X147812500Y-99943702D01*
X147839342Y-99808755D01*
X147891996Y-99681637D01*
X147968441Y-99567229D01*
X148065729Y-99469941D01*
X148180137Y-99393496D01*
X148307255Y-99340842D01*
X148442202Y-99314000D01*
X148579798Y-99314000D01*
X148714745Y-99340842D01*
X148714745Y-99340842D01*
G37*
G36*
X131663700Y-100711000D02*
X130266700Y-100711000D01*
X130266700Y-99314000D01*
X131663700Y-99314000D01*
X131663700Y-100711000D01*
X131663700Y-100711000D01*
G37*
G36*
X128628945Y-99340842D02*
X128756063Y-99393496D01*
X128870471Y-99469941D01*
X128967759Y-99567229D01*
X129044204Y-99681637D01*
X129096858Y-99808755D01*
X129123700Y-99943702D01*
X129123700Y-100081298D01*
X129096858Y-100216245D01*
X129044204Y-100343363D01*
X128967759Y-100457771D01*
X128870471Y-100555059D01*
X128756063Y-100631504D01*
X128628945Y-100684158D01*
X128493998Y-100711000D01*
X128356402Y-100711000D01*
X128221455Y-100684158D01*
X128094337Y-100631504D01*
X127979929Y-100555059D01*
X127882641Y-100457771D01*
X127806196Y-100343363D01*
X127753542Y-100216245D01*
X127726700Y-100081298D01*
X127726700Y-99943702D01*
X127753542Y-99808755D01*
X127806196Y-99681637D01*
X127882641Y-99567229D01*
X127979929Y-99469941D01*
X128094337Y-99393496D01*
X128221455Y-99340842D01*
X128356402Y-99314000D01*
X128493998Y-99314000D01*
X128628945Y-99340842D01*
X128628945Y-99340842D01*
G37*
G36*
X137260538Y-93171319D02*
X137442437Y-93246664D01*
X137606141Y-93356048D01*
X137745352Y-93495259D01*
X137854736Y-93658963D01*
X137930081Y-93840862D01*
X137968490Y-94033957D01*
X137968490Y-94230843D01*
X137930081Y-94423938D01*
X137854736Y-94605837D01*
X137745352Y-94769541D01*
X137606141Y-94908752D01*
X137442437Y-95018136D01*
X137260538Y-95093481D01*
X137067443Y-95131890D01*
X136870557Y-95131890D01*
X136677462Y-95093481D01*
X136495563Y-95018136D01*
X136331859Y-94908752D01*
X136192648Y-94769541D01*
X136083264Y-94605837D01*
X136007919Y-94423938D01*
X135969510Y-94230843D01*
X135969510Y-94033957D01*
X136007919Y-93840862D01*
X136083264Y-93658963D01*
X136192648Y-93495259D01*
X136331859Y-93356048D01*
X136495563Y-93246664D01*
X136677462Y-93171319D01*
X136870557Y-93132910D01*
X137067443Y-93132910D01*
X137260538Y-93171319D01*
X137260538Y-93171319D01*
G37*
G36*
X143102538Y-93105279D02*
X143284437Y-93180624D01*
X143448141Y-93290008D01*
X143587352Y-93429219D01*
X143696736Y-93592923D01*
X143772081Y-93774822D01*
X143810490Y-93967917D01*
X143810490Y-94164803D01*
X143772081Y-94357898D01*
X143696736Y-94539797D01*
X143587352Y-94703501D01*
X143448141Y-94842712D01*
X143284437Y-94952096D01*
X143102538Y-95027441D01*
X142909443Y-95065850D01*
X142712557Y-95065850D01*
X142519462Y-95027441D01*
X142337563Y-94952096D01*
X142173859Y-94842712D01*
X142034648Y-94703501D01*
X141925264Y-94539797D01*
X141849919Y-94357898D01*
X141811510Y-94164803D01*
X141811510Y-93967917D01*
X141849919Y-93774822D01*
X141925264Y-93592923D01*
X142034648Y-93429219D01*
X142173859Y-93290008D01*
X142337563Y-93180624D01*
X142519462Y-93105279D01*
X142712557Y-93066870D01*
X142909443Y-93066870D01*
X143102538Y-93105279D01*
X143102538Y-93105279D01*
G37*
G36*
X128628945Y-91466842D02*
X128756063Y-91519496D01*
X128870471Y-91595941D01*
X128967759Y-91693229D01*
X129044204Y-91807637D01*
X129096858Y-91934755D01*
X129123700Y-92069702D01*
X129123700Y-92207298D01*
X129096858Y-92342245D01*
X129044204Y-92469363D01*
X128967759Y-92583771D01*
X128870471Y-92681059D01*
X128756063Y-92757504D01*
X128628945Y-92810158D01*
X128493998Y-92837000D01*
X128356402Y-92837000D01*
X128221455Y-92810158D01*
X128094337Y-92757504D01*
X127979929Y-92681059D01*
X127882641Y-92583771D01*
X127806196Y-92469363D01*
X127753542Y-92342245D01*
X127726700Y-92207298D01*
X127726700Y-92069702D01*
X127753542Y-91934755D01*
X127806196Y-91807637D01*
X127882641Y-91693229D01*
X127979929Y-91595941D01*
X128094337Y-91519496D01*
X128221455Y-91466842D01*
X128356402Y-91440000D01*
X128493998Y-91440000D01*
X128628945Y-91466842D01*
X128628945Y-91466842D01*
G37*
G36*
X148714745Y-91466842D02*
X148841863Y-91519496D01*
X148956271Y-91595941D01*
X149053559Y-91693229D01*
X149130004Y-91807637D01*
X149182658Y-91934755D01*
X149209500Y-92069702D01*
X149209500Y-92207298D01*
X149182658Y-92342245D01*
X149130004Y-92469363D01*
X149053559Y-92583771D01*
X148956271Y-92681059D01*
X148841863Y-92757504D01*
X148714745Y-92810158D01*
X148579798Y-92837000D01*
X148442202Y-92837000D01*
X148307255Y-92810158D01*
X148180137Y-92757504D01*
X148065729Y-92681059D01*
X147968441Y-92583771D01*
X147891996Y-92469363D01*
X147839342Y-92342245D01*
X147812500Y-92207298D01*
X147812500Y-92069702D01*
X147839342Y-91934755D01*
X147891996Y-91807637D01*
X147968441Y-91693229D01*
X148065729Y-91595941D01*
X148180137Y-91519496D01*
X148307255Y-91466842D01*
X148442202Y-91440000D01*
X148579798Y-91440000D01*
X148714745Y-91466842D01*
X148714745Y-91466842D01*
G37*
G36*
X151749500Y-90297000D02*
X150352500Y-90297000D01*
X150352500Y-88900000D01*
X151749500Y-88900000D01*
X151749500Y-90297000D01*
X151749500Y-90297000D01*
G37*
G36*
X148714745Y-88926842D02*
X148841863Y-88979496D01*
X148956271Y-89055941D01*
X149053559Y-89153229D01*
X149130004Y-89267637D01*
X149182658Y-89394755D01*
X149209500Y-89529702D01*
X149209500Y-89667298D01*
X149182658Y-89802245D01*
X149130004Y-89929363D01*
X149053559Y-90043771D01*
X148956271Y-90141059D01*
X148841863Y-90217504D01*
X148714745Y-90270158D01*
X148579798Y-90297000D01*
X148442202Y-90297000D01*
X148307255Y-90270158D01*
X148180137Y-90217504D01*
X148065729Y-90141059D01*
X147968441Y-90043771D01*
X147891996Y-89929363D01*
X147839342Y-89802245D01*
X147812500Y-89667298D01*
X147812500Y-89529702D01*
X147839342Y-89394755D01*
X147891996Y-89267637D01*
X147968441Y-89153229D01*
X148065729Y-89055941D01*
X148180137Y-88979496D01*
X148307255Y-88926842D01*
X148442202Y-88900000D01*
X148579798Y-88900000D01*
X148714745Y-88926842D01*
X148714745Y-88926842D01*
G37*
G36*
X131663700Y-90297000D02*
X130266700Y-90297000D01*
X130266700Y-88900000D01*
X131663700Y-88900000D01*
X131663700Y-90297000D01*
X131663700Y-90297000D01*
G37*
G36*
X128628945Y-88926842D02*
X128756063Y-88979496D01*
X128870471Y-89055941D01*
X128967759Y-89153229D01*
X129044204Y-89267637D01*
X129096858Y-89394755D01*
X129123700Y-89529702D01*
X129123700Y-89667298D01*
X129096858Y-89802245D01*
X129044204Y-89929363D01*
X128967759Y-90043771D01*
X128870471Y-90141059D01*
X128756063Y-90217504D01*
X128628945Y-90270158D01*
X128493998Y-90297000D01*
X128356402Y-90297000D01*
X128221455Y-90270158D01*
X128094337Y-90217504D01*
X127979929Y-90141059D01*
X127882641Y-90043771D01*
X127806196Y-89929363D01*
X127753542Y-89802245D01*
X127726700Y-89667298D01*
X127726700Y-89529702D01*
X127753542Y-89394755D01*
X127806196Y-89267637D01*
X127882641Y-89153229D01*
X127979929Y-89055941D01*
X128094337Y-88979496D01*
X128221455Y-88926842D01*
X128356402Y-88900000D01*
X128493998Y-88900000D01*
X128628945Y-88926842D01*
X128628945Y-88926842D01*
G37*
G36*
X137260538Y-88170059D02*
X137442437Y-88245404D01*
X137606141Y-88354788D01*
X137745352Y-88493999D01*
X137854736Y-88657703D01*
X137930081Y-88839602D01*
X137968490Y-89032697D01*
X137968490Y-89229583D01*
X137930081Y-89422678D01*
X137854736Y-89604577D01*
X137745352Y-89768281D01*
X137606141Y-89907492D01*
X137442437Y-90016876D01*
X137260538Y-90092221D01*
X137067443Y-90130630D01*
X136870557Y-90130630D01*
X136677462Y-90092221D01*
X136495563Y-90016876D01*
X136331859Y-89907492D01*
X136192648Y-89768281D01*
X136083264Y-89604577D01*
X136007919Y-89422678D01*
X135969510Y-89229583D01*
X135969510Y-89032697D01*
X136007919Y-88839602D01*
X136083264Y-88657703D01*
X136192648Y-88493999D01*
X136331859Y-88354788D01*
X136495563Y-88245404D01*
X136677462Y-88170059D01*
X136870557Y-88131650D01*
X137067443Y-88131650D01*
X137260538Y-88170059D01*
X137260538Y-88170059D01*
G37*
G36*
X143102538Y-88104019D02*
X143284437Y-88179364D01*
X143448141Y-88288748D01*
X143587352Y-88427959D01*
X143696736Y-88591663D01*
X143772081Y-88773562D01*
X143810490Y-88966657D01*
X143810490Y-89163543D01*
X143772081Y-89356638D01*
X143696736Y-89538537D01*
X143587352Y-89702241D01*
X143448141Y-89841452D01*
X143284437Y-89950836D01*
X143102538Y-90026181D01*
X142909443Y-90064590D01*
X142712557Y-90064590D01*
X142519462Y-90026181D01*
X142337563Y-89950836D01*
X142173859Y-89841452D01*
X142034648Y-89702241D01*
X141925264Y-89538537D01*
X141849919Y-89356638D01*
X141811510Y-89163543D01*
X141811510Y-88966657D01*
X141849919Y-88773562D01*
X141925264Y-88591663D01*
X142034648Y-88427959D01*
X142173859Y-88288748D01*
X142337563Y-88179364D01*
X142519462Y-88104019D01*
X142712557Y-88065610D01*
X142909443Y-88065610D01*
X143102538Y-88104019D01*
X143102538Y-88104019D01*
G37*
G36*
X137514538Y-82846219D02*
X137696437Y-82921564D01*
X137860141Y-83030948D01*
X137999352Y-83170159D01*
X138108736Y-83333863D01*
X138184081Y-83515762D01*
X138222490Y-83708857D01*
X138222490Y-83905743D01*
X138184081Y-84098838D01*
X138108736Y-84280737D01*
X137999352Y-84444441D01*
X137860141Y-84583652D01*
X137696437Y-84693036D01*
X137514538Y-84768381D01*
X137321443Y-84806790D01*
X137124557Y-84806790D01*
X136931462Y-84768381D01*
X136749563Y-84693036D01*
X136585859Y-84583652D01*
X136446648Y-84444441D01*
X136337264Y-84280737D01*
X136261919Y-84098838D01*
X136223510Y-83905743D01*
X136223510Y-83708857D01*
X136261919Y-83515762D01*
X136337264Y-83333863D01*
X136446648Y-83170159D01*
X136585859Y-83030948D01*
X136749563Y-82921564D01*
X136931462Y-82846219D01*
X137124557Y-82807810D01*
X137321443Y-82807810D01*
X137514538Y-82846219D01*
X137514538Y-82846219D01*
G37*
G36*
X143102538Y-82640479D02*
X143284437Y-82715824D01*
X143448141Y-82825208D01*
X143587352Y-82964419D01*
X143696736Y-83128123D01*
X143772081Y-83310022D01*
X143810490Y-83503117D01*
X143810490Y-83700003D01*
X143772081Y-83893098D01*
X143696736Y-84074997D01*
X143587352Y-84238701D01*
X143448141Y-84377912D01*
X143284437Y-84487296D01*
X143102538Y-84562641D01*
X142909443Y-84601050D01*
X142712557Y-84601050D01*
X142519462Y-84562641D01*
X142337563Y-84487296D01*
X142173859Y-84377912D01*
X142034648Y-84238701D01*
X141925264Y-84074997D01*
X141849919Y-83893098D01*
X141811510Y-83700003D01*
X141811510Y-83503117D01*
X141849919Y-83310022D01*
X141925264Y-83128123D01*
X142034648Y-82964419D01*
X142173859Y-82825208D01*
X142337563Y-82715824D01*
X142519462Y-82640479D01*
X142712557Y-82602070D01*
X142909443Y-82602070D01*
X143102538Y-82640479D01*
X143102538Y-82640479D01*
G37*
G36*
X128616245Y-80674382D02*
X128743363Y-80727036D01*
X128857771Y-80803481D01*
X128955059Y-80900769D01*
X129031504Y-81015177D01*
X129084158Y-81142295D01*
X129111000Y-81277242D01*
X129111000Y-81414838D01*
X129084158Y-81549785D01*
X129031504Y-81676903D01*
X128955059Y-81791311D01*
X128857771Y-81888599D01*
X128743363Y-81965044D01*
X128616245Y-82017698D01*
X128481298Y-82044540D01*
X128343702Y-82044540D01*
X128208755Y-82017698D01*
X128081637Y-81965044D01*
X127967229Y-81888599D01*
X127869941Y-81791311D01*
X127793496Y-81676903D01*
X127740842Y-81549785D01*
X127714000Y-81414838D01*
X127714000Y-81277242D01*
X127740842Y-81142295D01*
X127793496Y-81015177D01*
X127869941Y-80900769D01*
X127967229Y-80803481D01*
X128081637Y-80727036D01*
X128208755Y-80674382D01*
X128343702Y-80647540D01*
X128481298Y-80647540D01*
X128616245Y-80674382D01*
X128616245Y-80674382D01*
G37*
G36*
X148714745Y-80481342D02*
X148841863Y-80533996D01*
X148956271Y-80610441D01*
X149053559Y-80707729D01*
X149130004Y-80822137D01*
X149182658Y-80949255D01*
X149209500Y-81084202D01*
X149209500Y-81221798D01*
X149182658Y-81356745D01*
X149130004Y-81483863D01*
X149053559Y-81598271D01*
X148956271Y-81695559D01*
X148841863Y-81772004D01*
X148714745Y-81824658D01*
X148579798Y-81851500D01*
X148442202Y-81851500D01*
X148307255Y-81824658D01*
X148180137Y-81772004D01*
X148065729Y-81695559D01*
X147968441Y-81598271D01*
X147891996Y-81483863D01*
X147839342Y-81356745D01*
X147812500Y-81221798D01*
X147812500Y-81084202D01*
X147839342Y-80949255D01*
X147891996Y-80822137D01*
X147968441Y-80707729D01*
X148065729Y-80610441D01*
X148180137Y-80533996D01*
X148307255Y-80481342D01*
X148442202Y-80454500D01*
X148579798Y-80454500D01*
X148714745Y-80481342D01*
X148714745Y-80481342D01*
G37*
G36*
X137514538Y-77844959D02*
X137696437Y-77920304D01*
X137860141Y-78029688D01*
X137999352Y-78168899D01*
X138108736Y-78332603D01*
X138184081Y-78514502D01*
X138222490Y-78707597D01*
X138222490Y-78904483D01*
X138184081Y-79097578D01*
X138108736Y-79279477D01*
X137999352Y-79443181D01*
X137860141Y-79582392D01*
X137696437Y-79691776D01*
X137514538Y-79767121D01*
X137321443Y-79805530D01*
X137124557Y-79805530D01*
X136931462Y-79767121D01*
X136749563Y-79691776D01*
X136585859Y-79582392D01*
X136446648Y-79443181D01*
X136337264Y-79279477D01*
X136261919Y-79097578D01*
X136223510Y-78904483D01*
X136223510Y-78707597D01*
X136261919Y-78514502D01*
X136337264Y-78332603D01*
X136446648Y-78168899D01*
X136585859Y-78029688D01*
X136749563Y-77920304D01*
X136931462Y-77844959D01*
X137124557Y-77806550D01*
X137321443Y-77806550D01*
X137514538Y-77844959D01*
X137514538Y-77844959D01*
G37*
G36*
X143102538Y-77639219D02*
X143284437Y-77714564D01*
X143448141Y-77823948D01*
X143587352Y-77963159D01*
X143696736Y-78126863D01*
X143772081Y-78308762D01*
X143810490Y-78501857D01*
X143810490Y-78698743D01*
X143772081Y-78891838D01*
X143696736Y-79073737D01*
X143587352Y-79237441D01*
X143448141Y-79376652D01*
X143284437Y-79486036D01*
X143102538Y-79561381D01*
X142909443Y-79599790D01*
X142712557Y-79599790D01*
X142519462Y-79561381D01*
X142337563Y-79486036D01*
X142173859Y-79376652D01*
X142034648Y-79237441D01*
X141925264Y-79073737D01*
X141849919Y-78891838D01*
X141811510Y-78698743D01*
X141811510Y-78501857D01*
X141849919Y-78308762D01*
X141925264Y-78126863D01*
X142034648Y-77963159D01*
X142173859Y-77823948D01*
X142337563Y-77714564D01*
X142519462Y-77639219D01*
X142712557Y-77600810D01*
X142909443Y-77600810D01*
X143102538Y-77639219D01*
X143102538Y-77639219D01*
G37*
G36*
X128616245Y-78134382D02*
X128743363Y-78187036D01*
X128857771Y-78263481D01*
X128955059Y-78360769D01*
X129031504Y-78475177D01*
X129084158Y-78602295D01*
X129111000Y-78737242D01*
X129111000Y-78874838D01*
X129084158Y-79009785D01*
X129031504Y-79136903D01*
X128955059Y-79251311D01*
X128857771Y-79348599D01*
X128743363Y-79425044D01*
X128616245Y-79477698D01*
X128481298Y-79504540D01*
X128343702Y-79504540D01*
X128208755Y-79477698D01*
X128081637Y-79425044D01*
X127967229Y-79348599D01*
X127869941Y-79251311D01*
X127793496Y-79136903D01*
X127740842Y-79009785D01*
X127714000Y-78874838D01*
X127714000Y-78737242D01*
X127740842Y-78602295D01*
X127793496Y-78475177D01*
X127869941Y-78360769D01*
X127967229Y-78263481D01*
X128081637Y-78187036D01*
X128208755Y-78134382D01*
X128343702Y-78107540D01*
X128481298Y-78107540D01*
X128616245Y-78134382D01*
X128616245Y-78134382D01*
G37*
G36*
X131651000Y-79504540D02*
X130254000Y-79504540D01*
X130254000Y-78107540D01*
X131651000Y-78107540D01*
X131651000Y-79504540D01*
X131651000Y-79504540D01*
G37*
G36*
X148714745Y-77941342D02*
X148841863Y-77993996D01*
X148956271Y-78070441D01*
X149053559Y-78167729D01*
X149130004Y-78282137D01*
X149182658Y-78409255D01*
X149209500Y-78544202D01*
X149209500Y-78681798D01*
X149182658Y-78816745D01*
X149130004Y-78943863D01*
X149053559Y-79058271D01*
X148956271Y-79155559D01*
X148841863Y-79232004D01*
X148714745Y-79284658D01*
X148579798Y-79311500D01*
X148442202Y-79311500D01*
X148307255Y-79284658D01*
X148180137Y-79232004D01*
X148065729Y-79155559D01*
X147968441Y-79058271D01*
X147891996Y-78943863D01*
X147839342Y-78816745D01*
X147812500Y-78681798D01*
X147812500Y-78544202D01*
X147839342Y-78409255D01*
X147891996Y-78282137D01*
X147968441Y-78167729D01*
X148065729Y-78070441D01*
X148180137Y-77993996D01*
X148307255Y-77941342D01*
X148442202Y-77914500D01*
X148579798Y-77914500D01*
X148714745Y-77941342D01*
X148714745Y-77941342D01*
G37*
G36*
X151749500Y-79311500D02*
X150352500Y-79311500D01*
X150352500Y-77914500D01*
X151749500Y-77914500D01*
X151749500Y-79311500D01*
X151749500Y-79311500D01*
G37*
G36*
X150297712Y-68912088D02*
X150667510Y-69065263D01*
X150667513Y-69065265D01*
X151000325Y-69287643D01*
X151283357Y-69570675D01*
X151505735Y-69903487D01*
X151505737Y-69903490D01*
X151658912Y-70273288D01*
X151737000Y-70665864D01*
X151737000Y-71066136D01*
X151658912Y-71458712D01*
X151505737Y-71828510D01*
X151505735Y-71828513D01*
X151283357Y-72161325D01*
X151000325Y-72444357D01*
X150667513Y-72666735D01*
X150667510Y-72666737D01*
X150297712Y-72819912D01*
X149905136Y-72898000D01*
X149504864Y-72898000D01*
X149112288Y-72819912D01*
X148742490Y-72666737D01*
X148742487Y-72666735D01*
X148409675Y-72444357D01*
X148126643Y-72161325D01*
X147904265Y-71828513D01*
X147904263Y-71828510D01*
X147751088Y-71458712D01*
X147673000Y-71066136D01*
X147673000Y-70665864D01*
X147751088Y-70273288D01*
X147904263Y-69903490D01*
X147904265Y-69903487D01*
X148126643Y-69570675D01*
X148409675Y-69287643D01*
X148742487Y-69065265D01*
X148742490Y-69065263D01*
X149112288Y-68912088D01*
X149504864Y-68834000D01*
X149905136Y-68834000D01*
X150297712Y-68912088D01*
X150297712Y-68912088D01*
G37*
G36*
X130338712Y-68912088D02*
X130708510Y-69065263D01*
X130708513Y-69065265D01*
X131041325Y-69287643D01*
X131324357Y-69570675D01*
X131546735Y-69903487D01*
X131546737Y-69903490D01*
X131699912Y-70273288D01*
X131778000Y-70665864D01*
X131778000Y-71066136D01*
X131699912Y-71458712D01*
X131546737Y-71828510D01*
X131546735Y-71828513D01*
X131324357Y-72161325D01*
X131041325Y-72444357D01*
X130708513Y-72666735D01*
X130708510Y-72666737D01*
X130338712Y-72819912D01*
X129946136Y-72898000D01*
X129545864Y-72898000D01*
X129153288Y-72819912D01*
X128783490Y-72666737D01*
X128783487Y-72666735D01*
X128450675Y-72444357D01*
X128167643Y-72161325D01*
X127945265Y-71828513D01*
X127945263Y-71828510D01*
X127792088Y-71458712D01*
X127714000Y-71066136D01*
X127714000Y-70665864D01*
X127792088Y-70273288D01*
X127945263Y-69903490D01*
X127945265Y-69903487D01*
X128167643Y-69570675D01*
X128450675Y-69287643D01*
X128783487Y-69065265D01*
X128783490Y-69065263D01*
X129153288Y-68912088D01*
X129545864Y-68834000D01*
X129946136Y-68834000D01*
X130338712Y-68912088D01*
X130338712Y-68912088D01*
G37*
M02*
